<svg width="135" height="137" viewBox="0 0 135 137" fill="none" xmlns="http://www.w3.org/2000/svg">
<path d="M133.851 112.891C132.822 124.467 94.3734 128.089 64.5875 124.888C74.1374 117.709 74.8475 109.172 74.6345 102.091C74.3505 92.4221 60.2208 90.1909 56.9546 97.3695C53.6885 104.548 41.7244 110.757 41.7244 110.757C41.7244 110.757 36.9672 113.053 31.7839 114.766C30.8254 113.699 30.2574 112.535 30.1509 111.274C29.9734 109.56 29.9734 107.491 30.0444 105.13C30.1154 102.737 30.3284 100.086 30.6124 97.2078C33.0975 72.4706 42.1504 32.5353 42.1504 32.5353C44.387 21.2176 47.4047 12.6485 49.8188 6.73099C50.8838 4.17642 52.1974 1.16915 54.363 1.00747C57.5937 0.748782 58.9782 7.24837 67.4276 14.136C69.5577 15.8498 71.3328 17.3373 74.2439 18.5984C79.4627 20.8943 88.0896 22.4464 94.3734 18.8571C97.5331 17.0463 99.4146 14.233 103.178 8.63883C106.337 3.95007 107.367 1.00747 109.32 1.03981C111.45 1.03981 113.047 4.5968 113.899 6.53697C116.136 11.6461 119.402 20.0859 122.668 32.5677C122.597 32.6 135.52 94.0712 133.851 112.891Z" fill="#F4B537" stroke="black" stroke-width="2" stroke-miterlimit="10"/>
<path d="M64 94C67.6358 104.888 71.2369 115.777 74.8726 126.665C74.8726 127.059 74.7341 131.683 78.1968 133.388C81.0707 134.799 84.6026 133.356 85.1566 133.159C94.3326 129.42 90.1082 105.118 89.5195 101.838" fill="#F4B537"/>
<path d="M64 94C67.6358 104.888 71.2369 115.777 74.8726 126.665C74.8726 127.059 74.7341 131.683 78.1968 133.388C81.0707 134.799 84.6026 133.356 85.1566 133.159C94.3326 129.42 90.1082 105.118 89.5195 101.838" stroke="black" stroke-width="2" stroke-miterlimit="10"/>
<path d="M66.2741 50.4124H59.0928" stroke="black" stroke-width="2" stroke-miterlimit="10"/>
<path d="M66.0277 52.7203L59.832 53.8579" stroke="black" stroke-width="2" stroke-miterlimit="10"/>
<path d="M99.5059 49.0473L104.469 47.9096" stroke="black" stroke-width="2" stroke-miterlimit="10"/>
<path d="M100.491 51.5826L105.208 52.1352" stroke="black" stroke-width="2" stroke-miterlimit="10"/>
<path d="M81.3411 49.2098C84.0868 48.2671 88.0295 48.8197 89.0504 49.5673C90.0713 50.3149 86.551 52.6878 86.551 52.6878C86.551 52.6878 78.5953 50.1524 81.3411 49.2098Z" fill="#F4B537" stroke="black" stroke-width="2" stroke-miterlimit="10"/>
<path d="M86.6218 52.7203C86.6218 52.7203 78.7012 50.2174 81.4118 49.2422C84.1576 48.2996 88.1003 48.8522 89.1211 49.5998C90.142 50.3474 86.6218 52.7203 86.6218 52.7203Z" fill="black" stroke="black" stroke-width="2" stroke-miterlimit="10"/>
<path d="M66.3092 50.3474H59.1279" stroke="black" stroke-width="2" stroke-miterlimit="10"/>
<path d="M66.0628 52.6553L59.8672 53.8255" stroke="black" stroke-width="2" stroke-miterlimit="10"/>
<path d="M99.3301 49.0473L104.294 47.8771" stroke="black" stroke-width="2" stroke-miterlimit="10"/>
<path d="M100.315 51.5501L105.033 52.1352" stroke="black" stroke-width="2" stroke-miterlimit="10"/>
<path d="M78.7354 53.7929C80.3195 55.2557 82.6076 55.6457 84.3325 54.8656C85.8814 54.1505 86.4095 52.7528 86.5503 52.3952C86.7263 52.8503 87.2543 53.923 88.5216 54.5731C90.2113 55.4182 92.4995 55.0931 94.2244 53.6954" stroke="black" stroke-width="2" stroke-miterlimit="10"/>
<path d="M91 42C91.6076 40.3747 97.9709 36.7547 102 40.9657L91 42Z" fill="#F4B537"/>
<path d="M91 42C91.6076 40.3747 97.9709 36.7547 102 40.9657" stroke="black" stroke-width="2" stroke-miterlimit="10"/>
<path d="M66.0012 40C65.8944 39.7558 72.9797 37.8775 78 40H66.0012Z" fill="#F4B537"/>
<path d="M66.0012 40C65.8944 39.7558 72.9797 37.8775 78 40" stroke="black" stroke-width="2" stroke-miterlimit="10"/>
<path d="M119 96C115.65 106.623 112.299 117.212 108.949 127.835C108.949 128.23 109.058 132.717 105.854 134.399C103.195 135.785 99.9179 134.366 99.408 134.168C90.923 130.54 94.8196 106.853 95.3658 103.653" fill="#F4B537"/>
<path d="M119 96C115.65 106.623 112.299 117.212 108.949 127.835C108.949 128.23 109.058 132.717 105.854 134.399C103.195 135.785 99.9179 134.366 99.408 134.168C90.923 130.54 94.8196 106.853 95.3658 103.653" stroke="black" stroke-width="2" stroke-miterlimit="10"/>
<path d="M64.8912 125.44C62.7348 127.18 58.4574 130.207 50.5035 132.591C44.3525 134.459 28.5155 139.226 13.5622 132.591C9.88572 130.948 2.1793 127.534 1.11879 121.253C0.376426 116.776 3.27517 113.04 5.3255 110.431C12.2542 101.606 24.4502 99.1906 28.8336 98.2887C29.4699 98.1599 30.283 97.9989 31.0961 97.9023C30.8132 100.769 30.6011 103.442 30.5304 105.793C29.6467 106.534 29.0104 107.082 28.869 107.178C28.869 107.178 17.274 110.141 19.7132 115.552C20.5616 117.42 27.3842 116.937 32.298 115.359C38.2369 113.459 41.984 109.755 43.893 107.533C47.7108 99.1906 55.3112 93.8118 63.053 94.005C64.1842 94.0372 70.1231 94.2949 73.5874 98.2565C79.491 105.02 72.8097 116.261 71.9613 117.678C69.5575 121.64 66.588 124.055 64.8912 125.44Z" fill="#F4B537" stroke="black" stroke-width="2" stroke-miterlimit="10"/>
</svg>
