<svg width="82" height="84" viewBox="0 0 82 84" fill="none" xmlns="http://www.w3.org/2000/svg">
<path d="M34.2015 12.9415C31.1017 14.6875 33.4996 21.6791 29.6573 24.3391C26.3847 26.6008 22.4 23.0765 19.768 25.4076C17.7612 27.2216 18.0193 31.2446 18.8808 33.6667C21.2169 40.2801 31.755 46.1353 40.0215 40.7551C47.229 36.0727 48.1408 25.8654 45.1394 19.8186C42.7154 14.979 37.0018 11.3621 34.2015 12.9415Z" fill="#F4B537" stroke="black" stroke-width="2" stroke-miterlimit="10"/>
<path d="M54.0257 24.9687C53.0407 27.8642 55.6417 31.3679 59.8352 32.7946C64.0287 34.2212 68.2266 33.0306 69.2116 30.1351C70.1966 27.2397 67.5956 23.7359 63.4022 22.3093C59.2087 20.8826 55.0107 22.0733 54.0257 24.9687Z" fill="#F4B537" stroke="black" stroke-width="2" stroke-miterlimit="10.0003"/>
<path d="M53.0108 42.533C51.2597 44.6884 52.6823 48.7448 56.1884 51.5932C59.6944 54.4416 63.9562 55.0034 65.7073 52.848C67.4584 50.6926 66.0357 46.6362 62.5297 43.7878C59.0237 40.9394 54.7619 40.3776 53.0108 42.533Z" fill="#F4B537" stroke="black" stroke-width="2" stroke-miterlimit="10"/>
<path d="M38.4983 62.503C40.0057 67.2247 43.6165 70.2898 46.5634 69.3491C49.5103 68.4084 50.6772 63.8181 49.1698 59.0964C47.6624 54.3747 44.0515 51.3096 41.1047 52.2503C38.1578 53.191 36.9909 57.7813 38.4983 62.503Z" fill="#F4B537" stroke="black" stroke-width="2" stroke-miterlimit="9.9997"/>
<path d="M17.2578 53.7783C16.1214 58.3313 17.3705 62.564 20.0477 63.2323C22.725 63.9006 25.8166 60.7514 26.9531 56.1985C28.0895 51.6455 26.8404 47.4128 24.1631 46.7444C21.4859 46.0761 18.3942 49.2253 17.2578 53.7783Z" fill="#F4B537" stroke="black" stroke-width="2" stroke-miterlimit="9.9995"/>
</svg>
