<svg width="130" height="164" viewBox="0 0 130 164" fill="none" xmlns="http://www.w3.org/2000/svg">
<path d="M78.6612 114.061C81.9657 114.061 84.6446 111.63 84.6446 108.632C84.6446 105.634 81.9657 103.204 78.6612 103.204C75.3566 103.204 72.6777 105.634 72.6777 108.632C72.6777 111.63 75.3566 114.061 78.6612 114.061Z" fill="white" stroke="black" stroke-width="0.925271" stroke-miterlimit="10"/>
<path d="M129.304 61.4434V106.412C121.933 100.12 116.505 94.0129 113.606 89.294C102.41 100.737 90.7206 102.525 82.6091 101.878H82.5782C82.4857 101.878 82.3624 101.847 82.2698 101.847C82.2081 101.847 82.1773 101.847 82.1156 101.847C81.9614 101.847 81.8072 101.816 81.6838 101.816C81.6838 101.816 81.6838 101.816 81.653 101.816H81.6221C81.3446 101.785 81.0361 101.754 80.7585 101.723C80.666 101.723 80.5735 101.693 80.481 101.693C80.3884 101.693 80.2959 101.662 80.1725 101.662C79.9875 101.631 79.8024 101.6 79.6174 101.569C79.5248 101.569 79.4323 101.538 79.3398 101.538C79.2473 101.538 79.1547 101.508 79.0622 101.508C79.0005 101.508 78.908 101.477 78.8463 101.477C78.8155 101.477 78.8155 101.477 78.7846 101.477C78.7229 101.477 78.6921 101.446 78.6304 101.446C78.5379 101.415 78.4145 101.415 78.322 101.384C78.1986 101.353 78.1061 101.353 78.0136 101.323C77.921 101.292 77.8594 101.292 77.7668 101.261C77.5201 101.199 77.2734 101.168 77.0575 101.107C76.9032 101.076 76.749 101.045 76.5948 100.983C76.5331 100.983 76.4715 100.952 76.4406 100.952C76.4098 100.952 76.4098 100.952 76.3789 100.952C76.3481 100.952 76.3172 100.922 76.2556 100.922H76.2247C76.1939 100.922 76.163 100.922 76.163 100.891C76.1013 100.86 76.0088 100.86 75.9471 100.829C75.9163 100.829 75.8546 100.798 75.8238 100.798C75.7929 100.798 75.7621 100.798 75.7621 100.767C75.7004 100.737 75.6387 100.737 75.577 100.706C75.5153 100.675 75.4537 100.675 75.392 100.644H75.3611C75.2994 100.613 75.2378 100.613 75.1761 100.582C75.1452 100.582 75.1452 100.582 75.1144 100.582C75.0835 100.582 75.0219 100.551 74.991 100.551C74.9602 100.551 74.9293 100.521 74.8985 100.521C74.8676 100.521 74.8368 100.49 74.806 100.49C74.7751 100.49 74.7751 100.49 74.7443 100.459C74.6826 100.428 74.5901 100.428 74.5284 100.397C74.4975 100.397 74.4975 100.397 74.4667 100.366C74.405 100.336 74.3433 100.336 74.3125 100.305C74.2508 100.274 74.1891 100.274 74.0966 100.243C74.0041 100.212 73.8807 100.181 73.7882 100.151C73.7573 100.151 73.7265 100.12 73.6956 100.12C73.6031 100.089 73.4797 100.058 73.3872 99.9963C73.2638 99.9655 73.1713 99.9038 73.0788 99.873C72.8937 99.8113 72.7087 99.7188 72.5853 99.6571C72.5545 99.6571 72.5236 99.6262 72.4928 99.6262C72.4619 99.5954 72.4311 99.5954 72.3694 99.5645C72.3386 99.5645 72.3077 99.5337 72.2769 99.5337C72.2152 99.5029 72.1535 99.472 72.1227 99.472C71.9068 99.7496 71.6909 100.027 71.5058 100.274C71.3516 100.459 71.2282 100.613 71.074 100.798C70.9815 100.922 70.889 101.014 70.7964 101.107C70.7656 101.137 70.7656 101.168 70.7348 101.168C70.7039 101.23 70.6422 101.292 70.5806 101.323C70.5497 101.353 70.488 101.415 70.4572 101.446C70.4263 101.477 70.3955 101.508 70.3647 101.569C70.3338 101.6 70.2721 101.662 70.2413 101.693C70.2413 101.693 70.2413 101.693 70.2413 101.723C70.2104 101.754 70.1796 101.816 70.1179 101.847C70.0871 101.878 70.0562 101.909 70.0254 101.939C70.0254 101.939 70.0254 101.939 69.9945 101.97C69.9329 102.032 69.8712 102.094 69.8095 102.155L69.7786 102.186C69.717 102.248 69.6553 102.31 69.5936 102.371C69.5936 102.371 69.5936 102.371 69.5628 102.402C69.2543 102.71 68.9767 103.019 68.6992 103.296C68.6066 103.389 68.545 103.451 68.4524 103.543C68.2674 103.728 68.0823 103.913 67.8973 104.068C67.8356 104.098 67.8047 104.16 67.743 104.191C67.6814 104.253 67.6197 104.314 67.558 104.376C67.5272 104.407 67.4655 104.468 67.4346 104.499C67.4038 104.53 67.3421 104.592 67.3113 104.623C67.2804 104.654 67.2187 104.715 67.1879 104.746C67.1879 104.746 67.1879 104.746 67.157 104.746C67.1262 104.777 67.0954 104.808 67.0645 104.839L67.0337 104.869C67.0028 104.9 66.9411 104.962 66.9103 104.993C66.8795 104.993 66.8795 105.024 66.8486 105.054C66.8178 105.085 66.8178 105.085 66.7869 105.116L66.7561 105.147C66.7253 105.178 66.7253 105.178 66.6944 105.209C66.6327 105.24 66.6019 105.301 66.5402 105.332C66.5094 105.363 66.4785 105.394 66.4477 105.425C65.2448 106.504 64.227 107.244 62.3148 108.694C59.2922 110.976 56.6706 112.703 54.8509 113.814H54.8201C55.036 114.338 55.2519 114.862 55.4678 115.387C55.5911 115.664 55.6837 115.911 55.807 116.189C55.9304 116.466 56.0229 116.713 56.1463 116.99C56.208 117.176 56.3005 117.361 56.3622 117.546C56.5781 118.101 56.794 118.656 57.0099 119.211C57.1641 119.581 57.2875 119.951 57.4417 120.321C57.5034 120.506 57.5959 120.692 57.6576 120.877C57.8118 121.247 57.9352 121.617 58.0894 122.018C58.4286 122.974 58.7988 123.93 59.138 124.855C59.3539 125.503 59.6007 126.151 59.8166 126.798C59.9091 127.045 59.9708 127.261 60.0633 127.508C60.2792 128.155 60.4951 128.772 60.711 129.42C60.9577 130.16 61.2045 130.9 61.4512 131.641C61.4512 131.641 67.6505 128.001 71.5367 128.248C71.5984 128.248 71.66 128.248 71.7217 128.248C71.7526 128.248 71.8142 128.248 71.8451 128.248C71.9068 128.248 71.9376 128.248 71.9993 128.279C72.061 128.279 72.1227 128.31 72.1844 128.31C72.2152 128.31 72.2152 128.31 72.246 128.31C72.2769 128.31 72.3077 128.31 72.3077 128.34C72.3694 128.34 72.4003 128.371 72.4619 128.371C72.4928 128.371 72.5236 128.371 72.5545 128.402C72.5853 128.402 72.6161 128.433 72.6778 128.433C72.7087 128.433 72.7395 128.464 72.7704 128.464C72.8012 128.464 72.8629 128.495 72.8937 128.525C72.9246 128.556 72.9863 128.556 73.0171 128.587C73.1096 128.618 73.2022 128.68 73.2638 128.711C73.2947 128.741 73.3564 128.772 73.3872 128.803C73.4181 128.834 73.4489 128.834 73.4797 128.865C73.5106 128.896 73.5414 128.896 73.5723 128.926C73.6031 128.957 73.6339 128.957 73.6648 128.988C73.6956 129.019 73.7265 129.05 73.7573 129.05C73.7882 129.081 73.819 129.111 73.8498 129.142C73.8807 129.173 73.9115 129.204 73.9424 129.266C73.9732 129.297 74.0041 129.327 74.0349 129.389C74.0657 129.42 74.0966 129.451 74.0966 129.482C74.0966 129.482 74.0966 129.482 74.1274 129.512C74.1583 129.543 74.1891 129.605 74.1891 129.636C74.22 129.667 74.22 129.728 74.2508 129.759C74.2816 129.821 74.3125 129.883 74.3433 129.944C74.3742 129.975 74.3742 130.037 74.405 130.068C74.4359 130.129 74.4359 130.191 74.4667 130.222C74.4975 130.284 74.4975 130.345 74.5284 130.407C74.5284 130.438 74.5284 130.469 74.5592 130.499C74.5592 130.53 74.5592 130.561 74.5901 130.592C74.5901 130.654 74.6209 130.684 74.6209 130.746C74.6209 130.777 74.6209 130.777 74.6209 130.808C74.6209 130.839 74.6209 130.839 74.6209 130.869C74.6209 130.9 74.6209 130.962 74.6209 130.993C74.6209 131.024 74.6209 131.055 74.6209 131.116C74.6209 131.147 74.6209 131.147 74.6209 131.178V131.209C74.6209 131.27 74.6209 131.332 74.6209 131.394C74.6209 131.425 74.6209 131.425 74.6209 131.456C74.6209 131.517 74.6209 131.579 74.6209 131.641C74.6209 131.826 74.6209 132.042 74.5901 132.257C74.5901 132.319 74.5901 132.35 74.5901 132.412C74.5901 132.442 74.5901 132.473 74.5901 132.473C74.5901 132.504 74.5901 132.535 74.5901 132.566C74.5901 132.658 74.5592 132.751 74.5592 132.843C74.5592 132.874 74.5592 132.936 74.5284 132.967C74.5284 132.998 74.5284 133.028 74.5284 133.059C74.5284 133.121 74.4975 133.183 74.4975 133.244C74.4975 133.275 74.4975 133.275 74.4975 133.306C74.4975 133.368 74.4667 133.46 74.4667 133.522C74.4359 133.645 74.405 133.8 74.3742 133.923C74.3742 133.985 74.3433 134.046 74.3125 134.139C74.2816 134.324 74.22 134.509 74.1583 134.694C74.1583 134.725 74.1274 134.786 74.1274 134.817C74.0966 134.972 74.0349 135.095 74.0041 135.249C73.9732 135.311 73.9732 135.403 73.9424 135.465C73.9115 135.588 73.8498 135.743 73.819 135.866C73.7573 136.02 73.6956 136.205 73.6339 136.39C73.6031 136.514 73.5414 136.606 73.5106 136.73C73.4489 136.884 73.3872 137.038 73.3564 137.192C73.3255 137.254 73.2947 137.346 73.2638 137.408C73.2022 137.562 73.1405 137.716 73.0788 137.871C72.9863 138.087 72.9246 138.272 72.832 138.488C72.8012 138.58 72.7395 138.673 72.7087 138.765C72.647 138.919 72.5545 139.074 72.4928 139.259C72.246 139.814 71.9685 140.4 71.66 141.017C71.5367 141.294 71.3825 141.541 71.2591 141.819C71.1049 142.158 70.9198 142.497 70.7348 142.836C70.7039 142.898 70.6731 142.96 70.6422 143.021C70.4572 143.361 70.2721 143.731 70.0562 144.07C69.9637 144.255 69.8712 144.44 69.7478 144.625C69.6861 144.749 69.6244 144.872 69.5319 144.995C69.4702 145.119 69.3777 145.242 69.316 145.365C69.2543 145.489 69.1618 145.612 69.1001 145.736C69.0384 145.859 68.9459 145.982 68.8842 146.136C68.7608 146.322 68.6683 146.537 68.545 146.722C68.5141 146.784 68.4524 146.846 68.4216 146.908C68.3599 147.031 68.2674 147.185 68.1748 147.308C68.0823 147.432 68.0206 147.586 67.9281 147.709C67.8356 147.833 67.7739 147.987 67.6814 148.11C67.6197 148.234 67.5272 148.357 67.4655 148.48C67.4346 148.511 67.4346 148.542 67.4038 148.573C67.3421 148.696 67.2496 148.82 67.1879 148.943C67.0954 149.066 67.0337 149.221 66.9411 149.344C66.9411 149.344 66.9411 149.375 66.9103 149.375L66.8178 149.467C66.8178 149.467 66.8178 149.467 66.7869 149.498L66.7253 149.56C66.6944 149.591 66.6636 149.622 66.6327 149.652C66.5094 149.776 66.3243 149.961 66.1392 150.177C66.1084 150.208 66.0776 150.238 66.0467 150.3C66.0159 150.331 65.985 150.393 65.9233 150.424C65.6149 150.763 65.2757 151.164 64.9364 151.626C64.9055 151.688 64.8439 151.75 64.813 151.811C64.6588 151.997 64.5354 152.182 64.3812 152.397C64.3195 152.459 64.2887 152.521 64.227 152.583C64.1653 152.644 64.1345 152.706 64.1036 152.798C64.0728 152.86 64.0111 152.953 63.9803 153.014C63.9494 153.076 63.8877 153.169 63.8569 153.23C63.8261 153.261 63.8261 153.292 63.7952 153.323C63.7644 153.354 63.7644 153.384 63.7335 153.446C63.6719 153.539 63.6102 153.662 63.5485 153.755C63.3943 154.032 63.2401 154.31 63.1167 154.587C63.0858 154.618 63.0858 154.68 63.055 154.711C63.055 154.711 63.055 154.741 63.0242 154.741C62.9933 154.803 62.9625 154.865 62.9316 154.927C62.9008 154.988 62.8699 155.081 62.8391 155.142C62.8083 155.204 62.8083 155.235 62.7774 155.297C62.7466 155.389 62.7157 155.482 62.6849 155.574C62.6541 155.636 62.654 155.698 62.6232 155.759C62.5924 155.821 62.5924 155.883 62.5615 155.975C62.4382 156.376 62.3765 156.777 62.3148 157.178H12.0417C11.5173 157.178 9.32753 157.147 6.98351 155.913C6.98351 155.913 6.98351 155.913 6.95267 155.913C6.08908 155.451 5.19465 154.865 4.36191 154.032C2.41884 152.058 1.1543 149.344 1.1543 146.352V61.4434C1.1543 55.46 6.0274 50.5869 12.0108 50.5869H118.633C119.373 50.5869 120.113 50.6486 120.823 50.8028C125.079 51.6664 128.41 55.0282 129.274 59.2536C129.212 59.963 129.304 60.7032 129.304 61.4434Z" fill="white" stroke="black" stroke-width="0.925271" stroke-miterlimit="10"/>
<path d="M72.2458 139.259C72.3075 139.074 72.4 138.92 72.4617 138.765C72.4926 138.673 72.5543 138.58 72.5851 138.488C72.6468 138.334 72.7085 138.21 72.7393 138.087C72.3692 138.981 71.9066 139.968 71.4131 141.017C71.7215 140.4 71.9991 139.814 72.2458 139.259Z" fill="white" stroke="black" stroke-width="0.925271" stroke-miterlimit="10"/>
<path d="M73.3879 136.39C73.3571 136.514 73.2954 136.606 73.2646 136.73C73.2029 136.884 73.1412 137.007 73.1104 137.162C73.2954 136.699 73.4496 136.236 73.6038 135.804C73.6038 135.835 73.573 135.866 73.573 135.866C73.5113 136.02 73.4496 136.205 73.3879 136.39Z" fill="white" stroke="black" stroke-width="0.925271" stroke-miterlimit="10"/>
<path d="M71.4134 140.986C71.2592 141.294 71.105 141.603 70.9199 141.942C70.9508 141.88 70.9816 141.849 71.0125 141.788C71.1358 141.51 71.29 141.263 71.4134 140.986Z" fill="white" stroke="black" stroke-width="0.925271" stroke-miterlimit="10"/>
<path d="M69.8096 144.008C70.0255 143.669 70.2105 143.299 70.3956 142.96C70.2105 143.299 70.0255 143.669 69.8096 144.008Z" fill="white" stroke="black" stroke-width="0.925271" stroke-miterlimit="10"/>
<path d="M62.9324 160.479C62.9015 160.448 62.8707 160.386 62.8398 160.355C62.7781 160.232 62.7165 160.17 62.6548 160.047C62.6239 160.016 62.6239 159.954 62.5931 159.893C62.5622 159.862 62.5622 159.8 62.5314 159.769C62.5006 159.646 62.4389 159.553 62.408 159.43V159.399C62.3772 159.307 62.3463 159.214 62.3155 159.122C62.2847 159.091 62.2847 158.998 62.2847 158.967C62.2538 158.937 62.2538 158.844 62.2538 158.813C62.2538 158.782 62.223 158.721 62.223 158.69C62.1921 158.628 62.1921 158.566 62.1921 158.505C62.1613 158.381 62.1613 158.289 62.1613 158.196C62.1305 157.98 62.1305 157.795 62.1305 157.641V157.394C62.1305 157.302 62.1305 157.209 62.1613 157.148C62.1921 156.747 62.2847 156.346 62.408 155.945C62.4389 155.883 62.4389 155.821 62.4697 155.729C62.5006 155.667 62.5006 155.606 62.5314 155.544C62.5931 155.328 62.6856 155.143 62.7473 154.927C62.7165 154.989 62.6856 155.081 62.6548 155.143C62.6239 155.205 62.5931 155.266 62.5931 155.328C62.5622 155.39 62.5314 155.482 62.5006 155.544C62.4697 155.606 62.4697 155.667 62.4389 155.729C62.408 155.791 62.408 155.852 62.3772 155.945C62.2538 156.346 62.1921 156.747 62.1305 157.148C62.1305 157.24 62.0996 157.333 62.0996 157.394V157.641C62.0996 157.795 62.0996 157.98 62.1305 158.196C62.1305 158.32 62.1613 158.381 62.1613 158.505C62.1613 158.566 62.1921 158.628 62.1921 158.69C62.1921 158.721 62.223 158.782 62.223 158.813C62.223 158.844 62.2538 158.937 62.2538 158.967C62.2538 158.998 62.2847 159.091 62.2847 159.122C62.3155 159.214 62.3155 159.307 62.3772 159.399V159.43L62.5006 159.769C62.5314 159.8 62.5314 159.862 62.5622 159.893C62.5931 159.923 62.5931 160.016 62.6239 160.047C62.6548 160.17 62.7473 160.232 62.809 160.355C62.8398 160.386 62.8398 160.448 62.9324 160.479C63.0866 160.756 63.3333 161.034 63.58 161.281C63.7034 161.404 63.981 161.651 64.3511 161.928C64.4128 162.021 64.4745 162.052 64.5362 162.052C63.8268 161.558 63.3025 161.034 62.9324 160.479Z" fill="white"/>
<path d="M62.9324 160.479C62.9015 160.448 62.8707 160.386 62.8398 160.355C62.7781 160.232 62.7165 160.17 62.6548 160.047C62.6239 160.016 62.6239 159.954 62.5931 159.893C62.5622 159.862 62.5622 159.8 62.5314 159.769C62.5006 159.646 62.4389 159.553 62.408 159.43V159.399C62.3772 159.307 62.3463 159.214 62.3155 159.122C62.2847 159.091 62.2847 158.998 62.2847 158.967C62.2538 158.937 62.2538 158.844 62.2538 158.813C62.2538 158.782 62.223 158.721 62.223 158.69C62.1921 158.628 62.1921 158.566 62.1921 158.505C62.1613 158.381 62.1613 158.289 62.1613 158.196C62.1305 157.98 62.1305 157.795 62.1305 157.641V157.394C62.1305 157.302 62.1305 157.209 62.1613 157.148C62.1921 156.747 62.2847 156.346 62.408 155.945C62.4389 155.883 62.4389 155.821 62.4697 155.729C62.5006 155.667 62.5006 155.606 62.5314 155.544C62.5931 155.328 62.6856 155.143 62.7473 154.927C62.7165 154.989 62.6856 155.081 62.6548 155.143C62.6239 155.205 62.5931 155.266 62.5931 155.328C62.5622 155.39 62.5314 155.482 62.5006 155.544C62.4697 155.606 62.4697 155.667 62.4389 155.729C62.408 155.791 62.408 155.852 62.3772 155.945C62.2538 156.346 62.1921 156.747 62.1305 157.148C62.1305 157.24 62.0996 157.333 62.0996 157.394V157.641C62.0996 157.795 62.0996 157.98 62.1305 158.196C62.1305 158.32 62.1613 158.381 62.1613 158.505C62.1613 158.566 62.1921 158.628 62.1921 158.69C62.1921 158.721 62.223 158.782 62.223 158.813C62.223 158.844 62.2538 158.937 62.2538 158.967C62.2538 158.998 62.2847 159.091 62.2847 159.122C62.3155 159.214 62.3155 159.307 62.3772 159.399V159.43L62.5006 159.769C62.5314 159.8 62.5314 159.862 62.5622 159.893C62.5931 159.923 62.5931 160.016 62.6239 160.047C62.6548 160.17 62.7473 160.232 62.809 160.355C62.8398 160.386 62.8398 160.448 62.9324 160.479ZM62.9324 160.479C63.0866 160.756 63.3333 161.034 63.58 161.281C63.7034 161.404 63.981 161.651 64.3511 161.928C64.4128 162.021 64.4745 162.052 64.5362 162.052C63.8268 161.558 63.3025 161.034 62.9324 160.479Z" stroke="black" stroke-width="0.925271" stroke-miterlimit="10"/>
<path d="M66.3858 105.363C65.183 106.443 64.1652 107.183 62.2529 108.633C59.2304 110.915 56.6088 112.642 54.7891 113.752H54.8199C56.6396 112.611 59.2612 110.915 62.2838 108.633C64.1343 107.214 65.1521 106.474 66.3858 105.363Z" fill="white" stroke="black" stroke-width="0.925271" stroke-miterlimit="10"/>
<path d="M73.9116 134.694C73.9116 134.725 73.8808 134.787 73.8808 134.817C73.8499 134.972 73.7882 135.095 73.7574 135.249C73.7574 135.28 73.7266 135.311 73.7266 135.373C73.8808 134.91 74.0041 134.478 74.0967 134.077C74.0967 134.108 74.0967 134.139 74.0658 134.139C74.035 134.324 73.9733 134.509 73.9116 134.694Z" fill="white" stroke="black" stroke-width="0.925271" stroke-miterlimit="10"/>
<path d="M106.296 95.4316C106.142 95.5549 105.988 95.6474 105.802 95.74C105.648 95.8325 105.494 95.9559 105.309 96.0484C105.155 96.1409 105.031 96.2335 104.877 96.326C104.137 96.7886 103.428 97.1896 102.718 97.5905C102.595 97.6522 102.471 97.7139 102.379 97.7756C101.114 98.4233 99.8807 99.0093 98.647 99.5027C98.4003 99.5953 98.1227 99.6878 97.876 99.8112C100.775 98.7317 103.767 97.2204 106.789 95.0923C106.728 95.154 106.635 95.1848 106.574 95.2465C106.481 95.3082 106.388 95.3699 106.296 95.4316Z" fill="white" stroke="black" stroke-width="0.925271" stroke-miterlimit="10"/>
<path d="M86.8649 102.001C86.2172 102.032 85.5695 102.032 84.9526 102.032H84.4283H84.3975C85.4153 102.063 86.4639 102.032 87.5434 101.97C87.3892 101.97 87.2658 102.001 87.0808 102.001H86.8649Z" fill="white" stroke="black" stroke-width="0.925271" stroke-miterlimit="10"/>
<path d="M96.7344 100.212C97.0736 100.089 97.4437 99.9654 97.783 99.842C97.5363 99.9346 97.3204 99.9962 97.0736 100.089C96.9503 100.15 96.8269 100.181 96.7344 100.212Z" fill="white" stroke="black" stroke-width="0.925271" stroke-miterlimit="10"/>
<path d="M109.658 92.9031C109.535 92.9956 109.412 93.119 109.288 93.2115C108.517 93.8283 107.777 94.4143 107.006 94.9387C108.024 94.1984 109.041 93.4274 110.09 92.533C110.059 92.533 110.059 92.5638 110.028 92.5638C109.905 92.6872 109.782 92.8105 109.658 92.9031Z" fill="white" stroke="black" stroke-width="0.925271" stroke-miterlimit="10"/>
<path d="M113.574 89.2942C116.473 94.0439 121.933 100.151 129.273 106.443V106.412C121.933 100.12 116.504 94.0439 113.574 89.2942Z" fill="white" stroke="black" stroke-width="0.925271" stroke-miterlimit="10"/>
<path d="M111.077 91.6996C111.201 91.6071 111.293 91.5146 111.386 91.4221C111.972 90.8977 112.527 90.3426 113.113 89.7874C113.267 89.6024 113.421 89.4482 113.576 89.2939C112.527 90.3734 111.478 91.3604 110.43 92.2548C110.676 92.0698 110.861 91.8847 111.077 91.6996Z" fill="white" stroke="black" stroke-width="0.925271" stroke-miterlimit="10"/>
<path d="M83.1329 101.97C82.9478 101.97 82.7319 101.939 82.5469 101.939C83.0095 101.97 83.503 102.001 84.0273 102.032C83.9348 102.032 83.8731 102.032 83.7806 102.001C83.5647 102.001 83.3488 101.97 83.1329 101.97Z" fill="white" stroke="black" stroke-width="0.925271" stroke-miterlimit="10"/>
<path d="M87.7284 101.971C87.8826 101.971 88.0369 101.94 88.1911 101.94C88.6537 101.909 89.1163 101.878 89.6098 101.817C89.7023 101.817 89.8257 101.786 89.9182 101.786C90.1341 101.755 90.35 101.724 90.5659 101.693C90.8127 101.662 91.0903 101.601 91.337 101.57C91.7688 101.477 92.1697 101.416 92.6015 101.323C92.8791 101.261 93.1567 101.2 93.4343 101.138C93.5268 101.107 93.6193 101.107 93.7119 101.076C91.5837 101.57 89.5173 101.878 87.5742 101.971C87.6051 101.971 87.6667 101.971 87.7284 101.971Z" fill="white" stroke="black" stroke-width="0.925271" stroke-miterlimit="10"/>
<path d="M82.208 101.878C82.3005 101.878 82.4239 101.909 82.5164 101.909C82.4239 101.878 82.3314 101.878 82.208 101.878Z" fill="white" stroke="black" stroke-width="0.925271" stroke-miterlimit="10"/>
<path d="M81.5596 101.816C81.5916 101.816 81.5916 101.816 81.5596 101.816C81.5916 101.816 81.5916 101.816 81.5596 101.816C81.5916 101.816 81.5916 101.816 81.5596 101.816Z" fill="white"/>
<path d="M81.5596 101.816C81.5916 101.816 81.5916 101.816 81.5596 101.816C81.5916 101.816 81.5916 101.816 81.5596 101.816ZM81.5596 101.816C81.5916 101.816 81.5916 101.816 81.5596 101.816Z" stroke="black" stroke-width="0.925271" stroke-miterlimit="10"/>
<path d="M80.4189 101.662C80.5115 101.662 80.604 101.693 80.6965 101.693C80.604 101.693 80.5115 101.662 80.4189 101.662Z" fill="white" stroke="black" stroke-width="0.925271" stroke-miterlimit="10"/>
<path d="M79.0312 101.446C79.1238 101.477 79.2163 101.477 79.3088 101.508C79.2163 101.477 79.1238 101.446 79.0312 101.446Z" fill="white" stroke="black" stroke-width="0.925271" stroke-miterlimit="10"/>
<path d="M78.5996 101.353C78.6619 101.353 78.6931 101.384 78.7554 101.384C78.7242 101.384 78.6619 101.384 78.5996 101.353Z" fill="white" stroke="black" stroke-width="0.925271" stroke-miterlimit="10"/>
<path d="M78.3223 101.292C78.4148 101.323 78.5382 101.323 78.6307 101.353C78.5382 101.353 78.4765 101.323 78.3839 101.292C78.3531 101.323 78.3223 101.292 78.3223 101.292Z" fill="white" stroke="black" stroke-width="0.925271" stroke-miterlimit="10"/>
<path d="M77.9834 101.23C78.0759 101.261 78.1993 101.261 78.2918 101.292C78.261 101.292 78.261 101.292 78.2301 101.292C78.1685 101.261 78.0759 101.261 77.9834 101.23Z" fill="white" stroke="black" stroke-width="0.925271" stroke-miterlimit="10"/>
<path d="M76.2559 100.829C76.2868 100.829 76.3177 100.86 76.3796 100.86C76.3177 100.829 76.2868 100.829 76.2559 100.829Z" fill="white" stroke="black" stroke-width="0.925271" stroke-miterlimit="10"/>
<path d="M75.793 100.706C75.8239 100.706 75.8858 100.736 75.9167 100.736C75.8858 100.736 75.8239 100.706 75.793 100.706Z" fill="white" stroke="black" stroke-width="0.925271" stroke-miterlimit="10"/>
<path d="M75.5469 100.644C75.6087 100.675 75.6706 100.675 75.7324 100.706C75.6706 100.675 75.6087 100.644 75.5469 100.644Z" fill="white" stroke="black" stroke-width="0.925271" stroke-miterlimit="10"/>
<path d="M75.2998 100.552C75.2998 100.584 75.3319 100.584 75.2998 100.552C75.2998 100.584 75.2998 100.584 75.2998 100.552Z" fill="white" stroke="black" stroke-width="0.925271" stroke-miterlimit="10"/>
<path d="M75.084 100.49C75.084 100.49 75.1154 100.49 75.1469 100.49C75.1154 100.521 75.084 100.49 75.084 100.49Z" fill="white" stroke="black" stroke-width="0.925271" stroke-miterlimit="10"/>
<path d="M74.8682 100.428C74.8991 100.428 74.93 100.459 74.9609 100.459C74.8991 100.459 74.8682 100.428 74.8682 100.428Z" fill="white" stroke="black" stroke-width="0.925271" stroke-miterlimit="10"/>
<path d="M74.6826 100.366C74.7141 100.366 74.7141 100.366 74.7455 100.398C74.7455 100.398 74.7141 100.398 74.6826 100.366Z" fill="white" stroke="black" stroke-width="0.925271" stroke-miterlimit="10"/>
<path d="M74.25 100.243C74.3123 100.274 74.3746 100.274 74.4058 100.305C74.3435 100.274 74.2812 100.243 74.25 100.243Z" fill="white" stroke="black" stroke-width="0.925271" stroke-miterlimit="10"/>
<path d="M74.374 132.413C74.374 132.351 74.374 132.32 74.374 132.257C74.4052 132.32 74.374 132.351 74.374 132.413Z" fill="white" stroke="black" stroke-width="0.925271" stroke-miterlimit="10"/>
<path d="M74.374 130.87V130.901C74.374 130.932 74.374 130.963 74.374 130.994C74.374 130.963 74.374 130.932 74.374 130.87Z" fill="white" stroke="black" stroke-width="0.925271" stroke-miterlimit="10"/>
<path d="M74.3438 130.777C74.3438 130.777 74.3438 130.808 74.3438 130.84C74.3752 130.808 74.3438 130.777 74.3438 130.777Z" fill="white" stroke="black" stroke-width="0.925271" stroke-miterlimit="10"/>
<path d="M74.2822 133.09C74.2822 133.059 74.2822 133.028 74.2822 132.998C74.3132 133.028 74.3132 133.059 74.2822 133.09Z" fill="white" stroke="black" stroke-width="0.925271" stroke-miterlimit="10"/>
<path d="M74.25 133.307C74.25 133.245 74.2809 133.152 74.2809 133.09C74.2809 133.152 74.25 133.214 74.25 133.245C74.25 133.276 74.25 133.276 74.25 133.307Z" fill="white" stroke="black" stroke-width="0.925271" stroke-miterlimit="10"/>
<path d="M74.0352 100.151C74.097 100.182 74.1589 100.182 74.2517 100.213C74.1898 100.182 74.1589 100.182 74.097 100.151C74.0661 100.182 74.0352 100.182 74.0352 100.151Z" fill="white" stroke="black" stroke-width="0.925271" stroke-miterlimit="10"/>
<path d="M70.5498 101.262C70.6121 101.2 70.6433 101.169 70.7056 101.106L70.6744 101.138C70.6121 101.2 70.581 101.231 70.5498 101.262Z" fill="white" stroke="black" stroke-width="0.925271" stroke-miterlimit="10"/>
<path d="M70.4883 142.806C70.55 142.682 70.6117 142.59 70.6733 142.467C70.6117 142.559 70.55 142.682 70.4883 142.806Z" fill="white" stroke="black" stroke-width="0.925271" stroke-miterlimit="10"/>
<path d="M70.1485 101.693C70.1175 101.724 70.0866 101.755 70.0557 101.786C70.1175 101.755 70.1485 101.724 70.1485 101.693C70.1794 101.693 70.1794 101.693 70.1485 101.693Z" fill="white"/>
<path d="M70.1485 101.693C70.1175 101.724 70.0866 101.755 70.0557 101.786C70.1175 101.755 70.1485 101.724 70.1485 101.693ZM70.1485 101.693C70.1794 101.693 70.1794 101.693 70.1485 101.693Z" stroke="black" stroke-width="0.925271" stroke-miterlimit="10"/>
<path d="M69.9639 101.909C69.902 101.971 69.8402 102.033 69.7783 102.125L69.8092 102.095C69.8402 102.064 69.902 102.002 69.9639 101.909Z" fill="white" stroke="black" stroke-width="0.925271" stroke-miterlimit="10"/>
<path d="M67.0957 104.748L67.1281 104.716C67.1281 104.716 67.1281 104.716 67.0957 104.748C67.1281 104.716 67.0957 104.748 67.0957 104.748Z" fill="white"/>
<path d="M67.0957 104.748L67.1281 104.716C67.1281 104.716 67.1281 104.716 67.0957 104.748ZM67.0957 104.748C67.1281 104.716 67.0957 104.748 67.0957 104.748Z" stroke="black" stroke-width="0.925271" stroke-miterlimit="10"/>
<path d="M66.9727 104.871C67.0041 104.839 67.0041 104.839 67.0356 104.808C67.0041 104.839 67.0041 104.839 66.9727 104.871C66.9727 104.871 66.9727 104.839 66.9727 104.871Z" fill="white"/>
<path d="M66.9727 104.871C67.0041 104.839 67.0041 104.839 67.0356 104.808C67.0041 104.839 67.0041 104.839 66.9727 104.871ZM66.9727 104.871C66.9727 104.839 66.9727 104.871 66.9727 104.871Z" stroke="black" stroke-width="0.925271" stroke-miterlimit="10"/>
<path d="M66.8486 104.962C66.8796 104.931 66.9414 104.9 66.9723 104.869C66.9105 104.9 66.8796 104.931 66.8486 104.962Z" fill="white" stroke="black" stroke-width="0.925271" stroke-miterlimit="10"/>
<path d="M66.6943 105.085C66.7253 105.054 66.7562 105.023 66.7871 105.023C66.7562 105.023 66.7562 105.054 66.6943 105.085C66.7253 105.085 66.6943 105.085 66.6943 105.085Z" fill="white"/>
<path d="M66.6943 105.085C66.7253 105.054 66.7562 105.023 66.7871 105.023C66.7562 105.023 66.7562 105.054 66.6943 105.085ZM66.6943 105.085C66.7253 105.085 66.6943 105.085 66.6943 105.085Z" stroke="black" stroke-width="0.925271" stroke-miterlimit="10"/>
<path d="M66.7256 149.344C66.7256 149.344 66.7256 149.378 66.7256 149.344V149.344Z" fill="white" stroke="black" stroke-width="0.925271" stroke-miterlimit="10"/>
<path d="M66.4482 149.622C66.4792 149.591 66.5101 149.56 66.541 149.529L66.5101 149.56C66.4792 149.622 66.4482 149.622 66.4482 149.622Z" fill="white" stroke="black" stroke-width="0.925271" stroke-miterlimit="10"/>
<path d="M113.698 89.3252C105.957 97.2517 97.9686 100.552 91.0907 101.6C89.4252 101.847 87.8214 101.971 86.3102 102.001C85.6008 102.001 84.9223 102.001 84.2437 101.971C84.0895 101.971 83.9044 101.971 83.7502 101.94C83.6886 101.94 83.6577 101.94 83.596 101.94C83.5343 101.94 83.5035 101.94 83.4418 101.94C83.3801 101.94 83.3184 101.94 83.2876 101.94C83.1025 101.94 82.8867 101.909 82.7016 101.909H82.6708C82.6091 101.909 82.5782 101.909 82.5165 101.909C82.4549 101.909 82.424 101.909 82.3623 101.909C82.3006 101.909 82.2698 101.909 82.2081 101.909C82.0539 101.909 81.8997 101.878 81.7763 101.878C81.7763 101.878 81.7763 101.878 81.7455 101.878H81.7146C81.4371 101.847 81.1286 101.816 80.8511 101.785C80.7894 101.785 80.7585 101.785 80.6968 101.755C80.6352 101.755 80.6043 101.755 80.5426 101.724C80.4501 101.724 80.3576 101.693 80.2342 101.693C80.0492 101.662 79.8641 101.631 79.679 101.6C79.5865 101.6 79.494 101.57 79.4015 101.57C79.3089 101.57 79.2164 101.539 79.1239 101.539C79.0622 101.539 78.9697 101.508 78.908 101.508C78.8771 101.508 78.8771 101.508 78.8463 101.508C78.7846 101.508 78.7538 101.477 78.6921 101.477C78.5996 101.446 78.4762 101.446 78.3837 101.415C78.2603 101.385 78.1678 101.385 78.0752 101.354C77.9827 101.323 77.921 101.323 77.8285 101.292C77.5818 101.23 77.335 101.199 77.1191 101.138C76.9649 101.107 76.8107 101.076 76.6565 101.014C76.5948 101.014 76.5331 100.984 76.5023 100.984C76.4714 100.984 76.4714 100.984 76.4406 100.984C76.4097 100.984 76.3789 100.953 76.3172 100.953H76.2864C76.2247 100.953 76.1938 100.922 76.1322 100.922C76.0705 100.922 76.0396 100.891 75.978 100.891C75.9163 100.891 75.8854 100.86 75.8546 100.86C75.8237 100.86 75.7929 100.86 75.7929 100.829C75.7312 100.799 75.6695 100.799 75.6078 100.768C75.5462 100.737 75.4845 100.737 75.4228 100.706H75.3919C75.3303 100.675 75.2686 100.675 75.2069 100.644C75.1761 100.644 75.1761 100.644 75.1452 100.644C75.1144 100.644 75.0527 100.613 75.0218 100.613C74.991 100.613 74.9602 100.583 74.9293 100.583C74.8985 100.583 74.8676 100.552 74.8368 100.552C74.8059 100.552 74.8059 100.552 74.7751 100.521C74.7134 100.49 74.6209 100.49 74.5592 100.459C74.5284 100.459 74.5284 100.459 74.4975 100.428C74.4358 100.398 74.3741 100.398 74.3433 100.367C74.2816 100.336 74.2508 100.336 74.1891 100.305C74.1583 100.305 74.1583 100.305 74.1274 100.305C74.0349 100.274 73.9115 100.243 73.819 100.213C73.7881 100.213 73.7573 100.182 73.7265 100.182C73.6339 100.151 73.5106 100.12 73.418 100.058C73.2947 100.027 73.2021 99.9658 73.1096 99.935C72.9246 99.8733 72.7395 99.7807 72.6161 99.7191C72.5853 99.7191 72.5544 99.6882 72.5236 99.6882C72.4928 99.6574 72.4619 99.6574 72.4002 99.6265C72.3694 99.6265 72.3386 99.5957 72.3077 99.5957C72.246 99.5648 72.1843 99.534 72.1535 99.534C71.9376 99.8116 71.7217 100.089 71.5366 100.336C71.3824 100.521 71.2591 100.675 71.1049 100.86C71.074 100.891 71.0432 100.922 71.0123 100.984C70.9506 101.045 70.889 101.138 70.8273 101.199C70.7964 101.23 70.7964 101.261 70.7656 101.261L70.7347 101.292C70.7039 101.323 70.6731 101.354 70.6422 101.415C70.6114 101.446 70.5497 101.508 70.5188 101.539C70.488 101.57 70.4572 101.6 70.4263 101.662C70.3955 101.693 70.3338 101.755 70.303 101.785L70.2721 101.816C70.2413 101.847 70.2104 101.878 70.1796 101.909C70.1487 101.94 70.1179 102.001 70.0562 102.032C70.0254 102.063 69.9945 102.094 69.9637 102.125C69.9328 102.156 69.902 102.186 69.8712 102.217L69.8403 102.248C69.7786 102.31 69.7169 102.372 69.6553 102.433C69.6553 102.433 69.6553 102.433 69.6244 102.464C69.316 102.772 69.0384 103.081 68.7608 103.358C68.6683 103.451 68.6066 103.513 68.5141 103.605C68.329 103.79 68.144 103.975 67.9589 104.13C67.8972 104.191 67.8664 104.222 67.8047 104.253C67.743 104.315 67.6813 104.376 67.6197 104.438C67.5888 104.469 67.558 104.5 67.4963 104.53C67.4963 104.53 67.4655 104.53 67.4655 104.561C67.4346 104.592 67.3729 104.654 67.3421 104.685C67.3112 104.716 67.2496 104.777 67.2187 104.808C67.2187 104.808 67.2187 104.808 67.1879 104.808C67.1879 104.808 67.1879 104.808 67.157 104.839C67.1262 104.87 67.0953 104.901 67.0645 104.901L67.0337 104.931C67.0337 104.931 67.0337 104.931 67.0028 104.962C66.972 104.993 66.9411 105.024 66.8794 105.055C66.8486 105.086 66.8486 105.086 66.8178 105.116C66.7869 105.147 66.7561 105.178 66.7252 105.178C66.7252 105.178 66.6944 105.178 66.6944 105.209C66.6635 105.24 66.6635 105.24 66.6327 105.271C66.571 105.302 66.5402 105.363 66.4785 105.394C66.4476 105.425 66.4168 105.456 66.386 105.487C65.1831 106.566 64.1653 107.306 62.2531 108.756C59.2305 111.038 56.6089 112.735 54.7892 113.876C54.7892 113.876 54.7892 113.876 54.7892 113.907C54.7892 113.907 54.7892 113.907 54.7584 113.876C54.7584 113.876 54.7584 113.876 54.7275 113.907C54.9434 114.431 55.1593 114.955 55.3752 115.479C55.4986 115.757 55.5911 116.004 55.7145 116.281C55.8379 116.559 55.9304 116.806 56.0538 117.083C56.1154 117.268 56.208 117.453 56.2697 117.638C56.4856 118.194 56.7014 118.749 56.9173 119.304C57.0716 119.674 57.1949 120.044 57.3491 120.414C57.4108 120.599 57.5034 120.784 57.565 120.969C57.7193 121.34 57.8426 121.71 57.9968 122.111C58.3361 123.067 58.7062 124.023 59.0455 124.948C59.2614 125.596 59.5081 126.243 59.724 126.891C59.8165 127.138 59.8782 127.354 59.9707 127.601C60.1866 128.248 60.4025 128.865 60.6184 129.513C60.8652 130.253 61.1119 130.993 61.3587 131.733C61.3587 131.733 67.558 128.094 71.4441 128.341C71.5058 128.341 71.5675 128.341 71.6292 128.341C71.66 128.341 71.7217 128.341 71.7525 128.341C71.8142 128.341 71.8451 128.341 71.9068 128.372C71.9684 128.372 72.0301 128.402 72.0918 128.402C72.1227 128.402 72.1227 128.402 72.1535 128.402C72.1843 128.402 72.2152 128.402 72.2152 128.433C72.2769 128.433 72.3077 128.464 72.3694 128.464C72.4002 128.464 72.4311 128.464 72.4619 128.495C72.4928 128.495 72.5236 128.526 72.5853 128.526C72.6161 128.526 72.647 128.557 72.6778 128.557C72.7087 128.557 72.7703 128.587 72.8012 128.618C72.832 128.649 72.8937 128.649 72.9246 128.68C73.0171 128.711 73.1096 128.773 73.1713 128.803C73.2021 128.834 73.2638 128.865 73.2947 128.896C73.3255 128.927 73.3563 128.927 73.3872 128.958C73.418 128.988 73.4489 128.988 73.4797 129.019C73.5106 129.05 73.5414 129.05 73.5722 129.081C73.6031 129.112 73.6339 129.143 73.6648 129.143C73.6956 129.173 73.7265 129.204 73.7573 129.235C73.7881 129.266 73.819 129.297 73.8498 129.359C73.8807 129.389 73.9115 129.42 73.9424 129.482C73.9732 129.513 74.004 129.544 74.004 129.574C74.004 129.574 74.004 129.574 74.0349 129.605C74.0657 129.636 74.0966 129.698 74.0966 129.729C74.1274 129.759 74.1274 129.821 74.1583 129.852C74.1891 129.914 74.2199 129.975 74.2508 130.037C74.2816 130.068 74.2816 130.13 74.3125 130.16C74.3433 130.222 74.3433 130.253 74.3741 130.315C74.405 130.376 74.405 130.438 74.4358 130.5C74.4358 130.531 74.4358 130.561 74.4667 130.592C74.4667 130.623 74.4667 130.654 74.4975 130.685C74.4975 130.746 74.5284 130.777 74.5284 130.839C74.5284 130.87 74.5284 130.87 74.5284 130.901C74.5284 130.931 74.5284 130.931 74.5284 130.962V130.993C74.5284 131.024 74.5284 131.055 74.5284 131.086C74.5284 131.117 74.5284 131.147 74.5284 131.209C74.5284 131.24 74.5284 131.24 74.5284 131.271V131.302C74.5284 131.363 74.5284 131.425 74.5284 131.487C74.5284 131.517 74.5284 131.518 74.5284 131.548C74.5284 131.61 74.5284 131.672 74.5284 131.733C74.5284 131.918 74.5284 132.134 74.4975 132.35C74.4975 132.412 74.4975 132.443 74.4975 132.504C74.4975 132.535 74.4975 132.535 74.4975 132.566C74.4975 132.597 74.4975 132.628 74.4975 132.659C74.4975 132.751 74.4667 132.844 74.4667 132.936C74.4667 132.967 74.4667 133.029 74.4358 133.06C74.4358 133.09 74.4358 133.121 74.4358 133.152C74.4358 133.214 74.405 133.276 74.405 133.306C74.405 133.337 74.405 133.337 74.405 133.368C74.405 133.43 74.3741 133.522 74.3741 133.584C74.3741 133.646 74.3433 133.738 74.3433 133.8C74.2816 134.108 74.1891 134.448 74.0966 134.818C74.0349 135.003 73.9732 135.219 73.9115 135.434C73.8807 135.527 73.8498 135.62 73.819 135.743C73.819 135.743 73.819 135.743 73.819 135.774C73.7573 135.928 73.7265 136.082 73.6648 136.236C73.3563 137.1 72.9862 138.056 72.5236 139.074C72.5236 139.074 72.5236 139.074 72.5236 139.105C72.4311 139.321 72.3386 139.537 72.2152 139.752C72.1843 139.783 72.1843 139.845 72.1535 139.876C72.0301 140.123 71.9068 140.369 71.7834 140.647C71.7217 140.801 71.6292 140.955 71.5675 141.109C71.5058 141.233 71.4441 141.387 71.3824 141.51C71.3208 141.634 71.2591 141.788 71.1665 141.911C71.1357 141.973 71.1049 142.035 71.074 142.066C71.0123 142.189 70.9506 142.281 70.889 142.405C70.8581 142.467 70.8273 142.528 70.7964 142.59C70.7347 142.713 70.6731 142.806 70.6114 142.929C70.5805 142.991 70.5497 143.053 70.5188 143.083C70.3338 143.423 70.1487 143.793 69.9328 144.132C69.8403 144.317 69.7478 144.502 69.6244 144.687C69.5627 144.811 69.501 144.934 69.4085 145.057C69.3468 145.181 69.2543 145.304 69.1926 145.427C69.1309 145.551 69.0384 145.674 68.9767 145.798C68.915 145.921 68.8225 146.044 68.7608 146.198C68.6375 146.384 68.5449 146.599 68.4216 146.784C68.3907 146.846 68.3599 146.908 68.2982 146.97C68.2365 147.093 68.144 147.247 68.0515 147.37C67.9589 147.494 67.8972 147.648 67.8047 147.771C67.7122 147.895 67.6505 148.049 67.558 148.172C67.4963 148.296 67.4038 148.419 67.3421 148.542C67.3112 148.573 67.3112 148.604 67.2804 148.635C67.2187 148.758 67.1262 148.882 67.0645 149.005C66.972 149.128 66.9103 149.283 66.8178 149.406C66.7869 149.437 66.7561 149.499 66.6944 149.529C66.6944 149.529 66.6944 149.529 66.6635 149.56L66.6019 149.622L66.571 149.653L66.5402 149.684C66.4168 149.807 66.2318 149.992 66.0467 150.208C66.0159 150.239 65.985 150.27 65.9542 150.331C65.9233 150.362 65.8925 150.424 65.8308 150.455C65.5224 150.794 65.1831 151.195 64.8438 151.658C64.813 151.719 64.7513 151.781 64.7205 151.843C64.5663 152.028 64.4429 152.213 64.2887 152.429C64.227 152.49 64.1962 152.552 64.1345 152.614C64.0728 152.675 64.0419 152.737 64.0111 152.83C63.9803 152.891 63.9186 152.984 63.8877 153.045C63.8569 153.107 63.7952 153.2 63.7644 153.261C63.7335 153.292 63.7335 153.323 63.7027 153.354C63.6718 153.385 63.6718 153.416 63.641 153.477C63.5793 153.57 63.5176 153.693 63.4559 153.786C63.3017 154.063 63.1475 154.341 63.0241 154.618C62.9933 154.649 62.9933 154.711 62.9625 154.742C62.9625 154.742 62.9625 154.773 62.9316 154.773C62.9008 154.834 62.8699 154.896 62.8391 154.958C62.7466 155.174 62.6849 155.359 62.6232 155.575C62.5923 155.605 62.5924 155.698 62.5615 155.76C62.5307 155.852 62.5307 155.914 62.4998 155.975C62.3765 156.376 62.3148 156.777 62.2531 157.178C62.2222 157.271 62.2222 157.363 62.2222 157.425V157.672C62.2222 157.857 62.2222 158.011 62.2531 158.227C62.2839 158.319 62.2839 158.412 62.2839 158.535C62.3148 158.566 62.3148 158.659 62.3148 158.72C62.3148 158.751 62.3456 158.813 62.3456 158.844C62.3765 158.875 62.3765 158.967 62.3765 158.998C62.4073 159.029 62.4073 159.121 62.4073 159.152C62.4381 159.245 62.4381 159.337 62.4998 159.43V159.461C62.5307 159.584 62.5923 159.677 62.6232 159.8C62.654 159.831 62.654 159.892 62.6849 159.923C62.7157 159.985 62.7157 160.047 62.7466 160.077C62.7774 160.201 62.8699 160.263 62.9316 160.386C62.9625 160.417 62.9933 160.478 63.0241 160.509C63.3943 161.064 63.9186 161.589 64.6279 162.082C64.6588 162.113 64.7513 162.144 64.7822 162.206L64.813 162.236C64.8747 162.267 64.9055 162.298 64.9364 162.298C65.5224 162.576 66.4168 162.915 67.558 162.946C67.8047 162.946 68.5758 162.977 70.5805 162.422C71.0123 162.298 72.1843 161.959 73.9732 161.25C75.9163 160.448 77.335 159.738 77.7977 159.491C78.9388 158.875 80.2342 158.134 81.5913 157.209C93.8974 157.24 106.234 157.24 118.54 157.271C124.524 157.271 129.397 152.398 129.397 146.414V106.443C122.057 100.151 116.628 94.0441 113.698 89.3252ZM78.7538 114.061C75.4536 114.061 72.7703 111.624 72.7703 108.632C72.7703 105.641 75.4536 103.204 78.7538 103.204C82.0539 103.204 84.7372 105.641 84.7372 108.632C84.7372 111.624 82.0539 114.061 78.7538 114.061Z" fill="white" stroke="black" stroke-width="0.925271" stroke-miterlimit="10"/>
<path d="M81.4365 157.178C91.121 149.19 100.775 141.171 110.459 133.152" stroke="black" stroke-width="0.925271" stroke-miterlimit="10"/>
<path d="M123.259 61.8444C119.712 62.8005 116.042 63.6641 112.186 64.7436C106.974 65.823 101.762 66.9025 96.5494 66.6866C95.6858 66.6866 94.6063 66.2548 94.1437 65.3913C93.9278 64.5277 94.3596 63.88 94.7914 63.2323C98.4924 59.0994 102.625 56.2928 107.406 53.4553C108.054 53.0235 108.485 52.5917 109.133 52.1599C109.503 51.9748 109.873 51.7898 110.274 51.6047C110.274 51.5739 110.305 51.543 110.398 51.5122C93.8969 53.6712 77.643 57.5881 62.0367 63.4173C54.4186 66.2548 47.2632 69.4933 40.9713 74.7056C37.0544 78.1908 32.0579 82.7555 33.7851 88.6155C34.2169 90.1268 35.5122 91.453 37.2703 91.8848C41.1256 92.8409 44.1481 93.3653 51.612 92.1007C51.612 92.1007 67.6192 89.3866 77.1495 86.5491C78.1981 86.2407 79.3085 85.9014 79.3085 85.9014C80.5113 85.5313 82.0534 85.0687 83.8731 84.4827C83.9965 84.4518 84.1199 84.3901 84.2432 84.3593C84.6442 84.2359 85.0452 84.1126 85.4769 83.9583C85.261 84.02 85.0451 84.1125 84.8293 84.1742C84.49 84.2976 84.1507 84.3901 83.8423 84.5135C83.503 84.6369 83.1638 84.7294 82.8245 84.8528C80.8814 85.4696 79 86.0556 77.1186 86.5799C77.1186 86.8575 77.0878 87.3818 76.9953 87.9987C76.7485 90.4044 76.0392 92.5633 75.1139 94.5373C75.6074 94.5681 76.1009 94.6298 76.5635 94.6606C84.6134 95.1541 96.6727 93.797 111.323 84.02C110.953 81.9844 111.076 80.0722 111.076 80.0722C111.261 77.0497 112.279 74.2122 113.944 71.4672C116.474 67.6736 119.219 64.2809 123.043 62.0294C122.334 62.3379 122.272 62.122 123.259 61.8444ZM45.937 84.6369C42.8219 85.6855 39.7685 85.007 39.1208 83.1256C38.504 81.2442 40.5087 78.8694 43.6546 77.8207C46.7697 76.7721 49.8231 77.4506 50.4708 79.332C51.1185 81.2134 49.0829 83.5882 45.937 84.6369ZM72.4615 66.3165C70.7343 66.81 69.1305 66.5016 68.9146 65.6997C68.6987 64.8978 69.9015 63.8491 71.6595 63.3865C73.3867 62.893 74.9905 63.2015 75.2064 64.0034C75.4532 64.7744 74.2195 65.823 72.4615 66.3165ZM80.9431 75.8776C79.2159 76.3711 77.6121 76.0627 77.3962 75.2608C77.1803 74.4589 78.414 73.4103 80.1412 72.9476C81.8684 72.4541 83.4722 72.7626 83.6881 73.5645C83.904 74.3664 82.7011 75.415 80.9431 75.8776Z" stroke="black" stroke-width="0.925271" stroke-miterlimit="10"/>
<path d="M113.636 89.3868C113.482 89.541 113.328 89.6952 113.173 89.8802C112.587 90.4354 112.032 90.9906 111.446 91.5149C111.354 91.6074 111.261 91.6999 111.138 91.7925C110.922 91.9775 110.706 92.1934 110.459 92.3785C110.336 92.5018 110.213 92.5944 110.089 92.6869C109.966 92.7794 109.842 92.9028 109.719 92.9953C109.596 93.0878 109.472 93.2112 109.349 93.3037C108.578 93.9206 107.807 94.5066 107.036 95.0617C106.912 95.1543 106.758 95.2468 106.635 95.3393C106.542 95.401 106.45 95.4627 106.357 95.5244C106.203 95.6478 106.049 95.7403 105.864 95.8328C105.71 95.9253 105.555 96.0487 105.37 96.1412C105.216 96.2338 105.093 96.3263 104.939 96.4188C104.198 96.8814 103.489 97.2824 102.78 97.6833C102.656 97.745 102.533 97.8067 102.44 97.8684C101.176 98.5161 99.9421 99.1021 98.7084 99.5956C98.4616 99.6881 98.1841 99.7806 97.9373 99.904C97.6597 99.9965 97.413 100.089 97.1354 100.182C96.9812 100.243 96.827 100.274 96.7036 100.336C96.426 100.428 96.1793 100.521 95.9017 100.583C95.6858 100.644 95.5008 100.706 95.2849 100.768C95.2232 100.798 95.1615 100.798 95.0998 100.829C94.8531 100.891 94.6063 100.953 94.3596 101.014C94.082 101.076 93.7736 101.169 93.496 101.23C93.2184 101.292 92.9409 101.354 92.6633 101.415C92.2315 101.508 91.8305 101.569 91.3987 101.662C91.152 101.693 90.8744 101.755 90.6277 101.785C90.4118 101.816 90.1959 101.847 89.98 101.878C89.8875 101.878 89.7641 101.909 89.6716 101.909C89.1781 101.97 88.7154 102.001 88.2528 102.032C88.0986 102.032 87.9444 102.063 87.7902 102.063C87.5743 102.063 87.3892 102.094 87.1733 102.094C87.0808 102.094 87.0191 102.094 86.9266 102.094C86.2789 102.125 85.6312 102.125 85.0144 102.125C84.8293 102.125 84.6751 102.125 84.49 102.125C84.2741 102.125 84.0582 102.125 83.8424 102.094C83.6265 102.094 83.4106 102.063 83.1947 102.063C83.0096 102.063 82.7937 102.032 82.6087 102.032C82.5778 102.032 82.5778 102.032 82.547 102.032C82.2385 102.001 81.961 101.97 81.6525 101.94H81.6217H81.5908C81.3133 101.909 81.0048 101.878 80.7273 101.847C80.6347 101.847 80.5422 101.816 80.4497 101.816C80.3572 101.816 80.2646 101.785 80.1413 101.785C79.9562 101.755 79.7711 101.724 79.5861 101.693C79.4936 101.693 79.401 101.662 79.3085 101.662C79.216 101.662 79.1543 101.631 79.0618 101.631C79.0618 101.631 79.0618 101.631 79.0309 101.631C78.9692 101.631 78.8767 101.6 78.815 101.6C78.7842 101.6 78.7842 101.6 78.7533 101.6C78.6917 101.6 78.6608 101.569 78.5991 101.569C78.5066 101.569 78.4449 101.539 78.3524 101.508C78.3216 101.508 78.2599 101.508 78.229 101.477C78.0748 101.446 77.8898 101.415 77.7355 101.384C77.4888 101.323 77.2421 101.292 77.0262 101.23C76.872 101.199 76.7178 101.169 76.5635 101.107C76.5019 101.107 76.4402 101.076 76.4093 101.076C76.3785 101.076 76.3785 101.076 76.3476 101.076C76.3168 101.076 76.286 101.045 76.2243 101.045H76.1934C76.1009 101.014 76.0084 100.983 75.9158 100.953C75.885 100.953 75.8233 100.922 75.7925 100.922C75.7616 100.922 75.7308 100.922 75.7308 100.891C75.6691 100.891 75.6074 100.86 75.5457 100.829C75.4841 100.798 75.4224 100.798 75.3607 100.768H75.3298C75.2682 100.737 75.2065 100.737 75.1448 100.706C75.1448 100.706 75.1139 100.706 75.0831 100.706C75.0214 100.706 74.9906 100.675 74.9289 100.675C74.898 100.675 74.8672 100.644 74.8364 100.644C74.8055 100.644 74.7747 100.613 74.7438 100.613C74.713 100.613 74.713 100.613 74.6822 100.583C74.6205 100.552 74.5279 100.552 74.4663 100.521C74.4354 100.521 74.4354 100.521 74.4046 100.49C74.3429 100.459 74.2812 100.459 74.2504 100.428C74.1887 100.397 74.127 100.397 74.0961 100.367C74.0653 100.367 74.0653 100.367 74.0345 100.367C73.9419 100.336 73.8186 100.305 73.726 100.274C73.6952 100.274 73.6644 100.243 73.6335 100.243C73.541 100.212 73.4176 100.182 73.3251 100.12C73.2017 100.089 73.1092 100.027 73.0167 99.9965C72.8316 99.9348 72.6466 99.8423 72.5232 99.7806C72.4923 99.7806 72.4615 99.7498 72.4307 99.7498C72.3998 99.7189 72.369 99.7189 72.3073 99.6881C72.2764 99.6881 72.2456 99.6573 72.2148 99.6573C72.1531 99.6264 72.0914 99.5956 72.0605 99.5956C72.2456 99.318 72.4615 99.0712 72.6466 98.7937C72.7082 98.7011 72.7699 98.6086 72.8316 98.5161C72.8933 98.4236 72.9858 98.3002 73.0475 98.2077C73.7569 97.1282 74.4663 95.9562 75.0523 94.6608C75.5149 94.6916 76.0392 94.7533 76.5019 94.7842C84.5517 95.2776 96.6111 93.9206 111.23 84.1436V84.2052C111.261 84.2978 111.261 84.3903 111.292 84.4828V84.5137C111.662 85.7474 112.464 87.4437 113.636 89.3868Z" fill="#F4B537" stroke="black" stroke-width="0.925271" stroke-miterlimit="10"/>
<path d="M110.274 51.605C110.336 51.5741 110.429 51.5431 110.491 51.5122C110.46 51.5122 110.429 51.5122 110.367 51.5431" stroke="black" stroke-width="0.925271" stroke-miterlimit="10"/>
<path d="M123.383 61.7827C123.259 61.8444 123.136 61.9369 123.013 61.9986" stroke="black" stroke-width="0.925271" stroke-miterlimit="10"/>
<path d="M54.759 113.906C54.7266 113.906 54.7266 113.939 54.7266 113.939" stroke="black" stroke-width="0.925271" stroke-miterlimit="10"/>
<path d="M74.4664 131.733C74.4664 131.918 74.4664 132.134 74.4356 132.35C74.4356 132.412 74.4356 132.443 74.4356 132.504C74.4356 132.535 74.4356 132.535 74.4356 132.566C74.4356 132.597 74.4356 132.628 74.4356 132.658C74.4356 132.751 74.4047 132.843 74.4047 132.936C74.4047 132.967 74.4047 133.029 74.3739 133.059C74.3739 133.09 74.3739 133.121 74.3739 133.152C74.3739 133.214 74.3431 133.306 74.3431 133.368C74.3431 133.43 74.3122 133.522 74.3122 133.584C74.1888 134.139 74.0346 134.756 73.8496 135.403C73.3561 136.946 72.6159 138.796 71.5364 141.017C71.3822 141.325 71.228 141.664 71.0429 141.973C70.9504 142.127 70.8579 142.312 70.7962 142.466C70.7345 142.59 70.6728 142.682 70.6111 142.806C70.5803 142.867 70.5494 142.929 70.5186 142.96C70.3335 143.299 70.1485 143.669 69.9326 144.008C69.8401 144.193 69.7475 144.379 69.6242 144.564C69.5625 144.687 69.5008 144.81 69.4083 144.934C69.3466 145.057 69.2541 145.18 69.1924 145.304C69.1307 145.427 69.0382 145.551 68.9765 145.674C68.9148 145.797 68.8223 145.921 68.7606 146.075C68.6372 146.26 68.5447 146.476 68.4213 146.661C68.3905 146.723 68.3596 146.784 68.2979 146.846C68.2363 146.969 68.1437 147.123 68.0512 147.247C67.9587 147.37 67.897 147.524 67.8045 147.648C67.7119 147.771 67.6502 147.925 67.5577 148.049C67.4344 148.265 67.3727 148.357 67.3418 148.419C67.311 148.481 67.2493 148.573 67.1876 148.696C67.0334 148.943 67.0334 148.974 67.0026 149.005C66.91 149.097 66.7867 149.313 66.6941 149.282C66.6325 149.252 66.6941 149.036 66.6016 148.696C66.5708 148.604 66.5399 148.511 66.5399 148.481C66.4782 148.296 66.4166 148.08 66.3549 147.833V147.802V147.74C65.9231 146.229 65.1829 143.7 64.2267 140.585C63.4248 137.932 62.4379 134.848 61.3584 131.579C61.3584 131.579 73.4178 124.516 74.4356 130.715C74.4356 130.777 74.4356 130.808 74.4664 130.87C74.4664 130.9 74.4664 130.931 74.4664 130.962C74.4664 130.993 74.4664 131.024 74.4664 131.085C74.4664 131.116 74.4664 131.116 74.4664 131.147V131.178C74.4664 131.24 74.4664 131.301 74.4664 131.363C74.4664 131.394 74.4664 131.394 74.4664 131.425C74.4664 131.61 74.4664 131.671 74.4664 131.733Z" fill="#FFF3DC" stroke="black" stroke-width="0.925271" stroke-miterlimit="10"/>
<path d="M66.6937 149.252L61.3271 131.702C64.1955 140.4 66.2928 147.864 66.6937 149.252Z" stroke="black" stroke-width="0.925271" stroke-miterlimit="10"/>
<path d="M111.539 83.835C111.477 83.8659 111.384 83.9587 111.322 83.9896" stroke="black" stroke-width="0.925271" stroke-miterlimit="10"/>
<path d="M75.1141 94.5374C74.9907 94.5374 74.929 94.5066 74.8057 94.5066" stroke="black" stroke-width="0.925271" stroke-miterlimit="10"/>
<path d="M113.699 89.325C113.667 89.3564 113.667 89.3564 113.636 89.3878" stroke="black" stroke-width="0.925271" stroke-miterlimit="10"/>
<path d="M72.0915 99.503C71.9987 99.4721 71.9678 99.4412 71.9678 99.4412" stroke="black" stroke-width="0.925271" stroke-miterlimit="10"/>
<path d="M78.7227 114.153C82.0272 114.153 84.7061 111.723 84.7061 108.725C84.7061 105.727 82.0272 103.297 78.7227 103.297C75.4181 103.297 72.7393 105.727 72.7393 108.725C72.7393 111.723 75.4181 114.153 78.7227 114.153Z" fill="#F4B537" stroke="black" stroke-width="0.925271" stroke-miterlimit="10"/>
<path d="M38.4115 142.405L36.2217 147.401" stroke="black" stroke-width="0.925271" stroke-miterlimit="10"/>
<path d="M40.787 147.185L38.4121 142.405" stroke="black" stroke-width="0.925271" stroke-miterlimit="10"/>
<path d="M20.5848 139.814H14.293" stroke="black" stroke-width="0.925271" stroke-miterlimit="10"/>
<path d="M20.3687 142.405L14.9404 143.7" stroke="black" stroke-width="0.925271" stroke-miterlimit="10"/>
<path d="M49.7002 138.272L54.049 136.976" stroke="black" stroke-width="0.925271" stroke-miterlimit="10"/>
<path d="M50.5635 141.109L54.6964 141.757" stroke="black" stroke-width="0.925271" stroke-miterlimit="10"/>
<path d="M72.4616 66.3166C70.7344 66.8101 69.1306 66.5017 68.9147 65.6998C68.6988 64.8979 69.9016 63.8492 71.6597 63.3866C73.3868 62.8931 74.9906 63.2015 75.2065 64.0034C75.4533 64.7745 74.2196 65.8231 72.4616 66.3166Z" fill="black" stroke="black" stroke-width="0.925271" stroke-miterlimit="10"/>
<path d="M80.9425 75.8776C79.2153 76.3711 77.6115 76.0627 77.3956 75.2608C77.1797 74.4589 78.4134 73.4102 80.1406 72.9476C81.8678 72.4541 83.4716 72.7626 83.6875 73.5645C83.9034 74.3664 82.7005 75.415 80.9425 75.8776Z" fill="black" stroke="black" stroke-width="0.925271" stroke-miterlimit="10"/>
<path d="M45.9373 84.6368C42.8223 85.6855 39.7689 85.0069 39.1212 83.1256C38.5043 81.2442 40.5091 78.8693 43.655 77.8207C46.7701 76.772 49.8235 77.4506 50.4712 79.332C51.1189 81.2133 49.0833 83.5882 45.9373 84.6368Z" fill="black" stroke="black" stroke-width="0.925271" stroke-miterlimit="10"/>
<path d="M62.592 155.451C62.592 155.451 62.592 155.42 62.6228 155.42C62.592 155.513 62.5611 155.605 62.5303 155.698C62.5611 155.574 62.592 155.513 62.592 155.451Z" stroke="black" stroke-width="0.925271" stroke-miterlimit="10"/>
<path d="M129.335 60.7958V106.504C121.964 100.212 116.536 94.1056 113.636 89.3867C112.434 87.4436 111.693 85.7473 111.385 84.3594V84.3285C111.354 84.236 111.354 84.1743 111.323 84.0818V84.0201C111.323 84.0201 111.323 84.0201 111.323 83.9893V83.9584C111.138 82.8173 111.077 81.7378 111.046 80.9976C111.046 80.7817 111.046 80.6275 111.046 80.4732C111.046 80.2265 111.046 80.0723 111.046 80.0723C111.231 77.0497 112.249 74.2122 113.914 71.4673C116.443 67.6737 119.188 64.281 123.013 62.0295C123.136 61.9678 123.259 61.9062 123.383 61.8136C123.352 61.8136 123.352 61.8136 123.321 61.8136H123.29C119.743 62.7697 116.073 63.6333 112.218 64.7128C107.005 65.7923 101.793 66.8718 96.5806 66.6559C95.717 66.6559 94.6376 66.2241 94.1749 65.3605C93.959 64.4969 94.3908 63.8492 94.8226 63.2015C98.5237 59.0687 102.657 56.262 107.437 53.4245C108.085 52.9927 108.517 52.5609 109.164 52.1291C109.534 51.9441 109.905 51.759 110.305 51.574C110.305 51.6048 110.336 51.574 110.521 51.4814C110.491 51.4814 110.491 51.4814 110.46 51.4814C110.429 51.4814 110.429 51.4814 110.398 51.5123C110.367 51.5123 110.367 51.5123 110.336 51.5123C93.8356 53.6713 77.6125 57.5882 62.0371 63.4174C54.419 66.2549 47.2636 69.4934 40.9718 74.7057C37.7025 77.6049 33.693 81.2443 33.4462 85.7781C33.4462 86.0249 33.4462 86.2408 33.4462 86.4875C33.4771 87.166 33.5696 87.8754 33.7855 88.6156C34.2173 90.1269 35.5127 91.4531 37.2707 91.8849C41.126 92.841 44.1485 93.3653 51.6124 92.1008C51.6124 92.1008 51.6124 92.1008 51.6432 92.1008H51.6741C51.7974 92.07 52.0442 92.0391 52.3834 91.9774C52.4143 91.9774 52.5068 91.9466 52.5377 91.9466C52.5685 91.9466 52.6302 91.9157 52.661 91.9157C52.7536 91.8849 52.8461 91.8849 52.9695 91.8849C53.0003 91.8849 53.0003 91.8849 53.0311 91.8541C53.0928 91.8232 53.1545 91.8232 53.2162 91.8232H53.247C53.3396 91.7924 53.4321 91.7924 53.5246 91.7924C53.7097 91.7615 53.9256 91.7307 54.1415 91.669C54.2032 91.669 54.2648 91.6382 54.3265 91.6382C54.6658 91.5765 55.0359 91.5148 55.406 91.4531C56.3004 91.2989 57.3182 91.1139 58.3977 90.898C58.4594 90.8671 58.5211 90.8671 58.5828 90.8671C59.5697 90.6821 60.6492 90.4662 61.7595 90.2503C61.8829 90.2194 62.0371 90.2194 62.1605 90.1577C62.1913 90.1577 62.1913 90.1577 62.253 90.1269C64.2578 89.7259 66.3859 89.2941 68.4832 88.7698C68.5449 88.7698 68.6066 88.739 68.6682 88.7081C68.7916 88.6773 68.8841 88.6465 69.0075 88.6156C69.4393 88.4922 69.8711 88.4306 70.3337 88.3072C70.673 88.2455 70.9506 88.153 71.2898 88.0913C71.4132 88.0605 71.5366 88.0296 71.66 87.9988C71.845 87.9679 71.9992 87.9062 72.1843 87.8754C72.2151 87.8446 72.3076 87.8446 72.3385 87.8446C72.5544 87.7829 72.8011 87.7212 73.017 87.6595C73.2021 87.6287 73.418 87.5361 73.603 87.5053C73.7572 87.4745 73.9115 87.4128 74.0657 87.3819C74.2199 87.3511 74.3741 87.2894 74.4975 87.2586C75.3919 87.0118 76.2246 86.7651 77.0265 86.5492C77.0265 86.8268 76.9957 87.3511 76.9032 87.9679C76.749 89.325 76.4714 90.5895 76.1013 91.7924C76.0396 92.0391 75.9471 92.2859 75.8545 92.5326C75.6078 93.1803 75.361 93.828 75.0835 94.4448C75.0835 94.4448 75.0835 94.4757 75.0526 94.4757C75.0526 94.4757 75.0526 94.4757 75.0526 94.5065C74.4666 95.771 73.7881 96.943 73.0787 98.0225C73.017 98.1459 72.9245 98.2384 72.8628 98.3309C72.8011 98.4235 72.7394 98.516 72.6778 98.6085C72.4927 98.8861 72.2768 99.1637 72.0918 99.4104C72.0918 99.4104 72.0918 99.4104 72.0609 99.4413C71.7833 99.8114 71.5057 100.181 71.2282 100.521C71.0431 100.737 70.8581 100.983 70.673 101.199C70.6422 101.23 70.6113 101.261 70.5805 101.323C70.5496 101.354 70.4879 101.415 70.4571 101.446C70.4263 101.477 70.3954 101.508 70.3646 101.569C70.3337 101.6 70.272 101.662 70.2412 101.693L70.2104 101.724C70.1795 101.754 70.1487 101.785 70.1178 101.816C70.087 101.847 70.0562 101.909 69.9945 101.94C69.9328 102.001 69.8711 102.063 69.8094 102.125C69.7477 102.186 69.686 102.248 69.6244 102.31C69.6244 102.31 69.5935 102.31 69.5935 102.34C69.2851 102.649 69.0075 102.957 68.7299 103.235C68.6374 103.327 68.5757 103.389 68.4832 103.482C68.2981 103.667 68.1131 103.852 67.928 104.006C67.8663 104.068 67.8355 104.098 67.7738 104.129C67.7121 104.191 67.6504 104.253 67.5888 104.314C67.5579 104.345 67.5271 104.376 67.4654 104.407C67.4654 104.407 67.4345 104.407 67.4345 104.438C67.4037 104.469 67.342 104.53 67.3112 104.561C67.2803 104.592 67.2187 104.654 67.1878 104.684L67.157 104.715C67.1261 104.746 67.0953 104.777 67.0644 104.777C67.0336 104.808 67.0336 104.808 67.0028 104.839C66.9719 104.87 66.9102 104.9 66.8794 104.931C66.8485 104.962 66.8485 104.962 66.8177 104.993C66.7869 105.024 66.756 105.055 66.7252 105.055C66.7252 105.055 66.6943 105.055 66.6943 105.085C66.6635 105.116 66.6635 105.116 66.6326 105.147C66.571 105.178 66.5401 105.24 66.4784 105.27C66.4476 105.301 66.4167 105.332 66.3859 105.363C65.1831 106.442 64.1652 107.183 62.253 108.632C59.2305 110.915 56.6089 112.611 54.7892 113.752C54.7892 113.752 54.7892 113.752 54.7583 113.752C54.7583 113.721 54.7275 113.721 54.7275 113.721C54.6658 113.598 46.6468 97.8066 41.5886 97.5907C41.4961 97.5907 41.4344 97.5907 41.3419 97.5907C41.311 97.5907 41.2802 97.5907 41.2493 97.5907C41.126 97.5907 41.0334 97.6216 40.9101 97.6524C39.0595 98.1459 38.0109 101.014 36.3762 105.579C35.2042 108.848 35.2351 110.421 33.5387 111.809C31.8733 113.166 29.7143 113.32 28.3572 113.413C28.3264 113.413 28.2647 113.413 28.2338 113.413C28.1722 113.413 28.1413 113.413 28.0796 113.413C27.9871 113.413 27.8637 113.413 27.7712 113.444C27.4628 113.475 27.1235 113.475 26.7843 113.475C26.6917 113.475 26.5992 113.475 26.5067 113.475C26.445 113.475 26.3833 113.475 26.3525 113.475C26.2908 113.475 26.2291 113.475 26.1982 113.475C26.1366 113.475 26.0749 113.475 26.044 113.444C25.9207 113.444 25.8281 113.413 25.7048 113.413C25.0571 113.32 24.3477 113.135 23.6692 112.796C22.0962 112.056 21.1093 110.853 20.4924 109.928C20.2765 109.619 20.1223 109.311 19.9681 109.095C18.7035 106.998 13.8921 99.7497 11.3322 99.5338C11.2705 99.5338 11.2088 99.5338 11.178 99.5338H11.1472C11.1163 99.5338 11.1163 99.5338 11.0855 99.5338C5.37962 100.243 7.23017 152.274 6.92174 154.495C6.92174 154.557 6.82922 155.05 6.86006 155.698C6.86006 155.759 6.86006 155.821 6.86006 155.883V155.914C6.86006 156.037 6.8909 156.099 6.8909 156.222C6.79837 156.191 6.70585 156.16 6.64416 156.129C5.81142 155.698 3.99171 154.618 2.63465 152.428C1.2159 150.208 1.06168 148.08 1 147.154V60.7958C1 60.5183 1.03084 60.179 1.03084 59.9014C1.03084 59.6238 1.06168 59.2846 1.06168 59.0378C1.09253 58.1742 1.27758 56.7555 1.98696 55.1825C2.75802 53.517 3.80666 52.4067 4.45435 51.7899L56.9481 3.95342C61.3277 -0.0560867 68.5449 -0.0560867 72.9245 3.95342L125.48 51.8207C126.066 52.3759 126.806 53.1778 127.485 54.2881C128.132 55.3676 128.503 56.3545 128.718 57.1256C128.873 57.6499 129.027 58.2359 129.15 58.9144C129.274 59.593 129.335 60.2407 129.335 60.7958Z" fill="#FFF3DC" stroke="black" stroke-width="0.925271" stroke-miterlimit="10"/>
<path d="M66.6014 148.943C66.6014 148.943 66.5706 148.881 66.5706 148.789C66.5706 148.727 66.5397 148.696 66.5397 148.666C66.4472 148.419 66.3855 148.203 66.293 147.956L66.2621 147.894V147.864V147.802L61.2965 131.641C59.3534 125.781 57.0711 119.334 54.7271 113.845C54.7271 113.845 54.7271 113.845 54.7579 113.814C54.7579 113.814 54.7579 113.814 54.7888 113.814C54.7271 113.69 46.9239 98.3617 41.8658 97.6832C41.7733 97.6832 41.7116 97.6523 41.619 97.6523C41.5265 97.6523 41.4648 97.6523 41.3723 97.6523C41.3415 97.6523 41.3106 97.6523 41.2798 97.6523C41.1873 97.6523 41.0639 97.6832 40.9714 97.714C39.1208 98.2075 38.0722 101.076 36.4375 105.641C35.2655 108.91 35.2964 110.483 33.6 111.871C31.9345 113.228 29.7756 113.382 28.4185 113.474C28.3568 113.474 28.326 113.474 28.2643 113.474C28.2026 113.474 28.1718 113.474 28.1101 113.474C28.0175 113.474 27.8942 113.474 27.8016 113.505C27.4932 113.536 27.154 113.536 26.8147 113.536C26.7222 113.536 26.6296 113.536 26.5371 113.536C26.4754 113.536 26.4137 113.536 26.3829 113.536C26.3212 113.536 26.2595 113.536 26.2287 113.536C26.167 113.536 26.1053 113.536 26.0745 113.505C25.9511 113.505 25.8586 113.474 25.7352 113.474C25.581 113.444 25.3959 113.413 25.2417 113.382C24.7482 113.259 24.2239 113.104 23.7304 112.858C22.1266 112.117 21.1705 110.884 20.5228 109.958C20.3069 109.65 20.1527 109.372 20.0294 109.157C18.734 107.059 13.9226 99.7805 11.3626 99.5954C11.301 99.5954 11.2393 99.5954 11.2084 99.5954H11.1776H11.1467C5.4409 100.305 7.29144 152.336 6.98302 154.556C6.98302 154.618 6.89049 155.112 6.92133 155.759C6.92133 155.821 6.92133 155.883 6.92133 155.944V155.975C6.92133 156.099 6.95218 156.16 6.95218 156.284C7.22976 156.407 7.59987 156.5 8.00082 156.623C8.74104 156.87 9.11115 156.962 9.5121 157.055C9.85136 157.116 10.314 157.178 11.2393 157.271C11.7019 157.301 12.072 157.363 12.3188 157.394H46.7697C46.8006 157.425 46.8931 157.456 46.9548 157.517C48.6203 158.597 53.4317 161.681 60.2787 162.637C61.8208 162.853 63.8873 163.038 66.3547 162.884C65.9537 162.791 65.5528 162.668 65.1826 162.452C65.121 162.421 65.0284 162.36 64.9668 162.329C64.9359 162.298 64.9051 162.298 64.8742 162.267C64.8434 162.236 64.7509 162.205 64.72 162.144C64.0106 161.681 63.4863 161.126 63.1162 160.571C63.0854 160.54 63.0545 160.478 63.0237 160.447C62.962 160.324 62.9003 160.262 62.8386 160.139C62.8078 160.108 62.8078 160.046 62.7769 159.985C62.7461 159.954 62.7461 159.892 62.7153 159.861C62.6844 159.738 62.6227 159.645 62.5919 159.522V159.491C62.561 159.399 62.5302 159.306 62.4994 159.214C62.4685 159.183 62.4685 159.09 62.4685 159.059C62.4377 159.029 62.4377 158.936 62.4377 158.905C62.4377 158.874 62.4068 158.813 62.4068 158.782C62.376 158.72 62.376 158.658 62.376 158.597C62.3451 158.473 62.3451 158.381 62.3451 158.288C62.3143 158.072 62.3143 157.887 62.3143 157.733V157.486C62.3143 157.394 62.3143 157.301 62.3451 157.24C62.376 156.839 62.4685 156.438 62.5919 156.037C62.6227 155.975 62.6227 155.914 62.6536 155.821C62.6844 155.759 62.6844 155.698 62.7153 155.636C62.7769 155.42 62.8695 155.235 62.9312 155.019C62.962 154.957 62.9928 154.896 63.0237 154.834C63.0237 154.834 63.0237 154.803 63.0545 154.803C63.0854 154.772 63.0854 154.711 63.1162 154.68C63.5172 153.816 64.0415 152.983 64.5658 152.243C64.6583 152.12 64.7509 151.997 64.8125 151.904C64.9051 151.781 64.9976 151.688 65.0593 151.565C65.1518 151.441 65.2443 151.318 65.3369 151.195C65.3369 151.195 65.3369 151.195 65.3677 151.164C65.4294 151.071 65.5219 150.979 65.5836 150.886C65.6453 150.794 65.7378 150.732 65.7995 150.639C65.8303 150.578 65.892 150.547 65.9229 150.485C65.9846 150.424 66.0154 150.362 66.0771 150.331C66.1388 150.269 66.2005 150.208 66.2313 150.177C66.2313 150.177 66.2313 150.177 66.2621 150.146C66.293 150.115 66.4163 149.992 66.6014 149.807C66.6631 149.683 66.7556 149.56 66.8173 149.406C66.6322 149.128 66.6014 149.005 66.6014 148.943ZM41.5882 126.027C43.8705 126.027 45.7211 127.878 45.7211 130.16C45.7211 132.442 43.8705 134.293 41.5882 134.293C39.3059 134.293 37.4553 132.442 37.4553 130.16C37.4553 127.878 39.3059 126.027 41.5882 126.027ZM33.7851 138.426C36.1908 137.346 39.6451 137.994 40.5396 138.827C41.434 139.66 38.3497 142.343 38.3497 142.343C38.3497 142.343 31.3794 139.505 33.7851 138.426ZM26.167 127.107C28.4493 127.107 30.2999 128.957 30.2999 131.24C30.2999 133.522 28.4493 135.373 26.167 135.373C23.8847 135.373 22.0341 133.522 22.0341 131.24C22.0341 128.957 23.8847 127.107 26.167 127.107ZM68.7912 162.791C68.3286 162.853 67.8043 162.946 67.1257 162.915C66.7556 162.915 66.4472 162.884 66.2005 162.853C66.7248 162.915 67.4341 162.946 68.2052 162.853C68.7295 162.791 69.1613 162.699 69.5623 162.606C69.8707 162.545 70.1483 162.483 70.4567 162.421C69.809 162.606 69.223 162.699 68.7912 162.791Z" fill="#F4B537" stroke="black" stroke-width="0.925271" stroke-miterlimit="10"/>
<path d="M38.4124 142.404C38.4124 142.404 31.4728 139.567 33.8477 138.488C36.2534 137.408 39.7077 138.056 40.6022 138.888C41.4966 139.721 38.4124 142.404 38.4124 142.404Z" fill="black" stroke="black" stroke-width="0.925271" stroke-miterlimit="10"/>
<path d="M41.6495 126.12C39.3671 126.12 37.5166 127.97 37.5166 130.253C37.5166 132.535 39.3671 134.386 41.6495 134.386C43.9318 134.386 45.7824 132.535 45.7824 130.253C45.7824 127.97 43.9318 126.12 41.6495 126.12ZM42.4205 131.764C41.0635 131.764 39.9223 130.623 39.9223 129.266C39.9223 127.909 41.0635 126.768 42.4205 126.768C43.7776 126.768 44.9188 127.909 44.9188 129.266C44.9188 130.623 43.7776 131.764 42.4205 131.764Z" stroke="black" stroke-width="0.925271" stroke-miterlimit="10"/>
<path d="M42.4211 131.764C43.8008 131.764 44.9193 130.646 44.9193 129.266C44.9193 127.886 43.8008 126.768 42.4211 126.768C41.0413 126.768 39.9229 127.886 39.9229 129.266C39.9229 130.646 41.0413 131.764 42.4211 131.764Z" fill="black" stroke="black" stroke-width="0.925271" stroke-miterlimit="10"/>
<path d="M26.2286 127.199C23.9462 127.199 22.0957 129.05 22.0957 131.332C22.0957 133.615 23.9462 135.465 26.2286 135.465C28.5109 135.465 30.3615 133.615 30.3615 131.332C30.3615 129.05 28.5109 127.199 26.2286 127.199ZM27.0922 132.628C25.7659 132.628 24.6865 131.548 24.6865 130.222C24.6865 128.896 25.7659 127.816 27.0922 127.816C28.4184 127.816 29.4979 128.896 29.4979 130.222C29.4979 131.579 28.4184 132.628 27.0922 132.628Z" stroke="black" stroke-width="0.925271" stroke-miterlimit="10"/>
<path d="M27.0922 132.659C28.4209 132.659 29.4979 131.581 29.4979 130.253C29.4979 128.924 28.4209 127.847 27.0922 127.847C25.7636 127.847 24.6865 128.924 24.6865 130.253C24.6865 131.581 25.7636 132.659 27.0922 132.659Z" fill="black" stroke="black" stroke-width="0.925271" stroke-miterlimit="10"/>
<path d="M20.4305 140.307H14.1387" stroke="black" stroke-width="0.925271" stroke-miterlimit="10"/>
<path d="M20.2134 142.929L14.7852 144.224" stroke="black" stroke-width="0.925271" stroke-miterlimit="10"/>
<path d="M49.3604 138.827L53.7091 137.531" stroke="black" stroke-width="0.925271" stroke-miterlimit="10"/>
<path d="M50.2246 141.664L54.3575 142.312" stroke="black" stroke-width="0.925271" stroke-miterlimit="10"/>
<path d="M32.8594 144.995C37.1156 147.401 38.1643 142.589 38.1643 142.589C38.1643 142.589 39.0587 146.506 42.6056 144.995" stroke="black" stroke-width="0.925271" stroke-miterlimit="10"/>
<path d="M55.4054 91.5763C55.0661 92.1623 53.123 94.7839 53.123 96.7269C53.123 98.67 53.7707 100.551 55.4054 100.15C57.04 99.7495 58.7672 100.181 61.8206 95.4007C64.874 90.6201 69.9322 88.5537 69.9322 88.5537L55.4054 91.5763Z" fill="#F4B537" stroke="black" stroke-width="0.925271" stroke-miterlimit="10"/>
</svg>
