<svg width="416" height="123" viewBox="0 0 416 123" fill="none" xmlns="http://www.w3.org/2000/svg">
<path d="M139.959 59.3623C143.509 59.3623 145.319 61.1724 145.319 64.8158V93.3134C145.319 95.0771 144.786 96.4231 143.718 97.3281C142.651 98.2332 141.397 98.6741 139.935 98.6741C138.473 98.6741 137.22 98.2332 136.129 97.3281C135.039 96.4231 134.505 95.1235 134.505 93.3134V70.1765H126.104V93.3134C126.104 95.0771 125.571 96.4231 124.48 97.3281C123.389 98.2332 122.113 98.6741 120.674 98.6741C119.212 98.6741 117.959 98.2332 116.891 97.3281C115.824 96.4231 115.29 95.1235 115.29 93.3134V64.8158C115.29 61.1956 117.077 59.3623 120.651 59.3623H139.959Z" fill="#033249"/>
<path d="M160.636 93.151C160.636 96.8408 158.849 98.7205 155.252 98.7205C151.655 98.7205 149.821 96.9104 149.821 93.267V64.8158C149.821 61.1956 151.562 59.3623 155.066 59.3623H166.066C168.41 59.3623 170.429 59.664 172.146 60.2673C173.863 60.8475 175.279 61.7061 176.393 62.7968C177.507 63.8875 178.319 65.2335 178.876 66.7883C179.41 68.3432 179.688 70.0837 179.688 72.033C179.688 73.7967 179.433 75.4676 178.922 76.9992C178.412 78.5308 177.716 79.8536 176.787 80.9907C175.859 82.1047 174.745 82.9633 173.399 83.6363C172.053 84.2861 170.545 84.611 168.851 84.611H166.971C165.207 84.611 163.954 84.1932 163.235 83.3578C162.538 82.5224 162.167 81.4085 162.167 79.9929C162.167 78.5773 162.562 77.533 163.351 76.8832C164.14 76.2334 165.114 75.8853 166.298 75.8853H167.203C168.131 75.8853 168.851 75.6532 169.361 75.1659C169.872 74.7018 170.15 73.936 170.15 72.9613C170.15 71.8474 169.849 71.0583 169.199 70.5246C168.572 70.0373 167.667 69.7588 166.507 69.7588H160.636V93.151Z" fill="#033249"/>
<path d="M192.916 76.976L203.034 61.915C203.66 60.9867 204.403 60.3137 205.215 59.8728C206.05 59.4319 206.932 59.223 207.861 59.223C208.51 59.223 209.16 59.3391 209.74 59.5711C210.32 59.8032 210.877 60.1513 211.342 60.6386C211.806 61.1028 212.223 61.6829 212.479 62.3327C212.757 62.9825 212.896 63.7483 212.896 64.5373V93.6151C212.896 95.286 212.409 96.5623 211.388 97.4442C210.39 98.326 209.207 98.7437 207.837 98.7437C206.399 98.7437 205.145 98.326 204.147 97.4442C203.15 96.5623 202.616 95.3092 202.616 93.6151V80.8747L192.544 95.9357C191.918 96.9104 191.152 97.6066 190.293 98.0475C189.411 98.4885 188.553 98.6973 187.648 98.6973C186.998 98.6973 186.348 98.5813 185.745 98.3492C185.141 98.1171 184.584 97.7691 184.143 97.2817C183.679 96.8176 183.285 96.2374 183.006 95.5876C182.705 94.9379 182.565 94.172 182.565 93.2902V64.2821C182.565 62.6112 183.076 61.3348 184.097 60.4762C185.118 59.5943 186.302 59.1766 187.671 59.1766C189.11 59.1766 190.363 59.5943 191.361 60.4762C192.359 61.358 192.892 62.6112 192.892 64.2821V76.976H192.916Z" fill="#033249"/>
<path d="M228.167 74.4233H232.553C233.063 72.2187 233.922 70.1301 235.105 68.2504C236.289 66.3706 237.728 64.7462 239.445 63.377C241.139 62.0078 243.042 60.9171 245.2 60.1513C247.312 59.3623 249.586 58.9678 252 58.9678C254.738 58.9678 257.337 59.4783 259.728 60.5226C262.164 61.5669 264.253 63.0057 266.04 64.8158C267.827 66.6259 269.266 68.7609 270.31 71.1512C271.377 73.5646 271.888 76.1406 271.888 78.9254C271.888 81.7101 271.377 84.3093 270.31 86.6995C269.242 89.113 267.827 91.2248 266.04 93.0349C264.253 94.845 262.118 96.2838 259.728 97.3281C257.291 98.3724 254.738 98.883 252 98.883C249.633 98.883 247.382 98.4884 245.247 97.6994C243.135 96.9104 241.186 95.8661 239.492 94.4969C237.797 93.1509 236.359 91.5265 235.152 89.67C233.968 87.8134 233.133 85.7481 232.599 83.5202H228.167V93.3134C228.167 95.0771 227.633 96.4231 226.566 97.3513C225.475 98.2796 224.222 98.7205 222.783 98.7205C221.298 98.7205 220.021 98.2796 218.977 97.3513C217.909 96.4463 217.399 95.1003 217.399 93.3134V64.5373C217.399 62.8432 217.909 61.5205 218.977 60.5922C220.044 59.6639 221.321 59.1998 222.783 59.1998C224.222 59.1998 225.498 59.6639 226.566 60.5922C227.656 61.5205 228.167 62.8432 228.167 64.5373V74.4233ZM242.996 79.0646C242.996 80.3177 243.228 81.5013 243.669 82.5688C244.133 83.6595 244.783 84.611 245.572 85.4232C246.407 86.2354 247.335 86.862 248.426 87.3261C249.517 87.7902 250.7 87.9991 251.953 87.9991C253.207 87.9991 254.413 87.767 255.504 87.3261C256.618 86.862 257.569 86.2122 258.405 85.4232C259.24 84.611 259.867 83.6595 260.354 82.5688C260.818 81.4781 261.074 80.2945 261.074 79.0646C261.074 77.8114 260.842 76.6279 260.354 75.5372C259.89 74.4233 259.217 73.4718 258.405 72.6596C257.569 71.8474 256.641 71.1976 255.504 70.7334C254.39 70.2693 253.207 70.0141 251.953 70.0141C250.7 70.0141 249.517 70.2461 248.426 70.7334C247.335 71.1976 246.384 71.8706 245.572 72.6596C244.736 73.4718 244.11 74.4233 243.669 75.5372C243.228 76.6279 242.996 77.8114 242.996 79.0646Z" fill="#033249"/>
<path d="M294.421 93.3134C294.421 95.0771 293.888 96.4231 292.82 97.3513C291.729 98.2796 290.453 98.7205 288.968 98.7205C287.529 98.7205 286.276 98.2796 285.208 97.3513C284.141 96.4463 283.63 95.1003 283.63 93.3134V70.2461H279.848C278.153 70.2461 276.831 69.7124 275.856 68.6449C274.905 67.5774 274.44 66.301 274.44 64.8158C274.44 63.3306 274.905 62.0774 275.856 60.9867C276.807 59.9192 278.13 59.3855 279.848 59.3855H298.065C299.759 59.3855 301.105 59.9192 302.079 60.9867C303.054 62.0542 303.518 63.3306 303.518 64.8158C303.518 66.301 303.054 67.5774 302.079 68.6449C301.105 69.7124 299.782 70.2461 298.065 70.2461H294.398V93.3134H294.421Z" fill="#F4B537"/>
<path d="M312.174 98.4884C308.6 98.4884 306.79 96.6783 306.79 93.0349V64.8622C306.79 61.242 308.577 59.4087 312.174 59.4087H330.53C332.224 59.4087 333.547 59.9424 334.522 61.0099C335.473 62.0774 335.937 63.3538 335.937 64.839C335.937 66.3242 335.473 67.6006 334.522 68.6681C333.57 69.7356 332.248 70.2693 330.53 70.2693H317.581V74.0056H328.349C329.904 74.0056 331.11 74.4929 331.969 75.4676C332.851 76.4655 333.269 77.6026 333.269 78.9254C333.269 80.2481 332.851 81.4317 331.969 82.3831C331.087 83.381 329.904 83.8451 328.349 83.8451H317.581V87.6278H330.53C332.224 87.6278 333.547 88.1383 334.522 89.2058C335.473 90.2733 335.937 91.5497 335.937 93.0117C335.937 94.4969 335.473 95.7733 334.522 96.864C333.57 97.9547 332.248 98.4652 330.53 98.4652H312.174V98.4884Z" fill="#F4B537"/>
<path d="M362.88 90.9463H351.323L349.606 95.2395C349.096 96.4231 348.399 97.3049 347.564 97.8851C346.705 98.442 345.823 98.7669 344.895 98.7669C344.176 98.7669 343.433 98.6509 342.76 98.4188C342.087 98.1868 341.461 97.8387 340.904 97.3745C340.347 96.9336 339.906 96.3767 339.558 95.7733C339.233 95.1467 339.07 94.4273 339.07 93.6615C339.07 92.6868 339.186 91.9674 339.465 91.5033L352.693 62.4719C353.133 61.4973 353.714 60.7314 354.41 60.1281C355.106 59.5479 356.197 59.223 357.682 59.223C359.098 59.223 360.165 59.5247 360.884 60.1281C361.604 60.7082 362.184 61.5205 362.579 62.5183L374.646 91.4801C374.901 91.9906 375.017 92.7332 375.017 93.6383C375.017 94.3577 374.855 95.0771 374.53 95.6805C374.205 96.307 373.741 96.864 373.23 97.2817C372.697 97.7226 372.07 98.0939 371.374 98.3492C370.678 98.6045 369.958 98.7437 369.262 98.7437C366.872 98.7437 365.294 97.5602 364.481 95.2395L362.88 90.9463ZM354.712 82.4295H359.956L357.566 75.3748L354.712 82.4295Z" fill="#F4B537"/>
<path d="M397.18 84.1004C395.741 84.1004 394.419 83.3346 393.235 81.803L389.22 76.5583V93.3134C389.22 95.0539 388.687 96.3767 387.619 97.3281C386.528 98.2564 385.298 98.7205 383.883 98.7205C382.398 98.7205 381.121 98.2796 380.03 97.3513C378.94 96.4463 378.429 95.1003 378.429 93.3134V64.9318C378.429 64.0268 378.592 63.2378 378.893 62.4951C379.195 61.7757 379.613 61.1724 380.146 60.685C380.657 60.2209 381.284 59.8264 381.957 59.5711C382.63 59.3159 383.349 59.1766 384.092 59.1766C385.066 59.1766 386.018 59.4087 386.992 59.8496C387.967 60.3137 388.779 60.9867 389.499 61.8686L397.157 71.7081L404.885 61.8686C405.581 60.9635 406.416 60.3137 407.368 59.8496C408.319 59.3855 409.271 59.1766 410.222 59.1766C410.942 59.1766 411.684 59.3159 412.357 59.5711C413.03 59.8264 413.657 60.1977 414.19 60.685C414.724 61.1492 415.165 61.7757 415.467 62.4951C415.769 63.2146 415.931 64.0268 415.931 64.9318V93.3366C415.931 95.1003 415.397 96.4463 414.33 97.3745C413.239 98.3028 411.963 98.7437 410.477 98.7437C409.039 98.7437 407.785 98.3028 406.718 97.3745C405.65 96.4695 405.14 95.1235 405.14 93.3366V76.6047L401.195 81.8494C400.568 82.708 399.918 83.2882 399.245 83.6131C398.619 83.938 397.899 84.1004 397.18 84.1004Z" fill="#F4B537"/>
<path d="M168.99 75.8853H158.988V84.4949H168.99V75.8853Z" fill="#033249"/>
<path d="M58.8053 85.4695C61.2917 85.4695 63.3073 83.6409 63.3073 81.3852C63.3073 79.1295 61.2917 77.3008 58.8053 77.3008C56.3189 77.3008 54.3032 79.1295 54.3032 81.3852C54.3032 83.6409 56.3189 85.4695 58.8053 85.4695Z" fill="white" stroke="black" stroke-width="0.696196" stroke-miterlimit="10"/>
<path d="M96.9104 45.8793V79.7144C91.364 74.9803 87.2797 70.3854 85.0983 66.8348C76.6743 75.4444 67.879 76.7904 61.7757 76.303H61.7525C61.6829 76.303 61.5901 76.2798 61.5204 76.2798C61.474 76.2798 61.4508 76.2798 61.4044 76.2798C61.2884 76.2798 61.1723 76.2566 61.0795 76.2566C61.0795 76.2566 61.0795 76.2566 61.0563 76.2566H61.0331C60.8242 76.2334 60.5922 76.2102 60.3833 76.187C60.3137 76.187 60.2441 76.1638 60.1745 76.1638C60.1048 76.1638 60.0352 76.1406 59.9424 76.1406C59.8032 76.1174 59.6639 76.0942 59.5247 76.071C59.4551 76.071 59.3854 76.0478 59.3158 76.0478C59.2462 76.0478 59.1766 76.0246 59.107 76.0246C59.0605 76.0246 58.9909 76.0014 58.9445 76.0014C58.9213 76.0014 58.9213 76.0014 58.8981 76.0014C58.8517 76.0014 58.8285 75.9781 58.7821 75.9781C58.7124 75.9549 58.6196 75.9549 58.55 75.9317C58.4572 75.9085 58.3876 75.9085 58.3179 75.8853C58.2483 75.8621 58.2019 75.8621 58.1323 75.8389C57.9466 75.7925 57.761 75.7693 57.5985 75.7229C57.4825 75.6997 57.3665 75.6765 57.2504 75.63C57.204 75.63 57.1576 75.6068 57.1344 75.6068C57.1112 75.6068 57.1112 75.6068 57.088 75.6068C57.0648 75.6068 57.0416 75.5836 56.9952 75.5836H56.972C56.9488 75.5836 56.9255 75.5836 56.9255 75.5604C56.8791 75.5372 56.8095 75.5372 56.7631 75.514C56.7399 75.514 56.6935 75.4908 56.6703 75.4908C56.6471 75.4908 56.6239 75.4908 56.6239 75.4676C56.5774 75.4444 56.531 75.4444 56.4846 75.4212C56.4382 75.398 56.3918 75.398 56.3454 75.3748H56.3222C56.2758 75.3516 56.2294 75.3516 56.1829 75.3284C56.1597 75.3284 56.1597 75.3284 56.1365 75.3284C56.1133 75.3284 56.0669 75.3052 56.0437 75.3052C56.0205 75.3052 55.9973 75.2819 55.9741 75.2819C55.9509 75.2819 55.9277 75.2587 55.9045 75.2587C55.8813 75.2587 55.8813 75.2587 55.858 75.2355C55.8116 75.2123 55.742 75.2123 55.6956 75.1891C55.6724 75.1891 55.6724 75.1891 55.6492 75.1659C55.6028 75.1427 55.5564 75.1427 55.5332 75.1195C55.4867 75.0963 55.4403 75.0963 55.3707 75.0731C55.3011 75.0499 55.2083 75.0267 55.1386 75.0035C55.1154 75.0035 55.0922 74.9803 55.069 74.9803C54.9994 74.9571 54.9066 74.9339 54.837 74.8874C54.7441 74.8642 54.6745 74.8178 54.6049 74.7946C54.4657 74.7482 54.3264 74.6786 54.2336 74.6322C54.2104 74.6322 54.1872 74.609 54.164 74.609C54.1408 74.5858 54.1176 74.5858 54.0711 74.5625C54.0479 74.5625 54.0247 74.5393 54.0015 74.5393C53.9551 74.5161 53.9087 74.4929 53.8855 74.4929C53.723 74.7018 53.5606 74.9106 53.4214 75.0963C53.3053 75.2355 53.2125 75.3516 53.0965 75.4908C53.0269 75.5836 52.9572 75.6532 52.8876 75.7229C52.8644 75.7461 52.8644 75.7693 52.8412 75.7693C52.818 75.8157 52.7716 75.8621 52.7252 75.8853C52.702 75.9085 52.6555 75.9549 52.6323 75.9781C52.6091 76.0014 52.5859 76.0246 52.5627 76.071C52.5395 76.0942 52.4931 76.1406 52.4699 76.1638C52.4699 76.1638 52.4699 76.1638 52.4699 76.187C52.4467 76.2102 52.4235 76.2566 52.3771 76.2798C52.3539 76.303 52.3307 76.3262 52.3074 76.3494C52.3074 76.3494 52.3074 76.3494 52.2842 76.3727C52.2378 76.4191 52.1914 76.4655 52.145 76.5119L52.1218 76.5351C52.0754 76.5815 52.029 76.6279 51.9826 76.6743C51.9826 76.6743 51.9826 76.6743 51.9594 76.6975C51.7273 76.9296 51.5184 77.1617 51.3096 77.3705C51.24 77.4402 51.1935 77.4866 51.1239 77.5562C50.9847 77.6954 50.8454 77.8347 50.7062 77.9507C50.6598 77.9739 50.6366 78.0203 50.5902 78.0435C50.5438 78.0899 50.4973 78.1363 50.4509 78.1828C50.4277 78.206 50.3813 78.2524 50.3581 78.2756C50.3349 78.2988 50.2885 78.3452 50.2653 78.3684C50.2421 78.3916 50.1957 78.438 50.1725 78.4612C50.1725 78.4612 50.1725 78.4612 50.1492 78.4612C50.126 78.4844 50.1028 78.5077 50.0796 78.5309L50.0564 78.5541C50.0332 78.5773 49.9868 78.6237 49.9636 78.6469C49.9404 78.6469 49.9404 78.6701 49.9172 78.6933C49.894 78.7165 49.894 78.7165 49.8708 78.7397L49.8476 78.7629C49.8244 78.7861 49.8244 78.7861 49.8011 78.8093C49.7547 78.8325 49.7315 78.879 49.6851 78.9022C49.6619 78.9254 49.6387 78.9486 49.6155 78.9718C48.7104 79.784 47.9446 80.341 46.5058 81.4317C44.2316 83.149 42.259 84.4485 40.8898 85.284H40.8666C41.0291 85.6785 41.1915 86.073 41.354 86.4675C41.4468 86.6763 41.5164 86.862 41.6092 87.0709C41.7021 87.2797 41.7717 87.4654 41.8645 87.6742C41.9109 87.8135 41.9806 87.9527 42.027 88.0919C42.1894 88.5097 42.3519 88.9274 42.5143 89.3451C42.6303 89.6236 42.7232 89.9021 42.8392 90.1805C42.8856 90.3198 42.9552 90.459 43.0016 90.5982C43.1177 90.8767 43.2105 91.1552 43.3265 91.4569C43.5818 92.1763 43.8603 92.8957 44.1156 93.5919C44.278 94.0792 44.4636 94.5666 44.6261 95.0539C44.6957 95.2396 44.7421 95.402 44.8117 95.5876C44.9742 96.075 45.1366 96.5391 45.2991 97.0265C45.4847 97.5834 45.6704 98.1404 45.856 98.6973C45.856 98.6973 50.5205 95.959 53.4446 96.1446C53.491 96.1446 53.5374 96.1446 53.5838 96.1446C53.607 96.1446 53.6534 96.1446 53.6766 96.1446C53.723 96.1446 53.7463 96.1446 53.7927 96.1678C53.8391 96.1678 53.8855 96.191 53.9319 96.191C53.9551 96.191 53.9551 96.191 53.9783 96.191C54.0015 96.191 54.0247 96.191 54.0247 96.2142C54.0711 96.2142 54.0944 96.2374 54.1408 96.2374C54.164 96.2374 54.1872 96.2374 54.2104 96.2606C54.2336 96.2606 54.2568 96.2838 54.3032 96.2838C54.3264 96.2838 54.3496 96.307 54.3728 96.307C54.396 96.307 54.4424 96.3303 54.4657 96.3535C54.4889 96.3767 54.5353 96.3767 54.5585 96.3999C54.6281 96.4231 54.6977 96.4695 54.7441 96.4927C54.7673 96.5159 54.8138 96.5391 54.837 96.5623C54.8602 96.5855 54.8834 96.5855 54.9066 96.6087C54.9298 96.6319 54.953 96.6319 54.9762 96.6551C54.9994 96.6784 55.0226 96.6784 55.0458 96.7016C55.069 96.7248 55.0922 96.748 55.1154 96.748C55.1386 96.7712 55.1618 96.7944 55.1851 96.8176C55.2083 96.8408 55.2315 96.864 55.2547 96.9104C55.2779 96.9336 55.3011 96.9568 55.3243 97.0032C55.3475 97.0265 55.3707 97.0497 55.3707 97.0729C55.3707 97.0729 55.3707 97.0729 55.3939 97.0961C55.4171 97.1193 55.4403 97.1657 55.4403 97.1889C55.4635 97.2121 55.4635 97.2585 55.4867 97.2817C55.5099 97.3281 55.5332 97.3745 55.5564 97.421C55.5796 97.4442 55.5796 97.4906 55.6028 97.5138C55.626 97.5602 55.626 97.6066 55.6492 97.6298C55.6724 97.6762 55.6724 97.7226 55.6956 97.7691C55.6956 97.7923 55.6956 97.8155 55.7188 97.8387C55.7188 97.8619 55.7188 97.8851 55.742 97.9083C55.742 97.9547 55.7652 97.9779 55.7652 98.0243C55.7652 98.0475 55.7652 98.0475 55.7652 98.0707C55.7652 98.094 55.7652 98.0939 55.7652 98.1172C55.7652 98.1404 55.7652 98.1868 55.7652 98.21C55.7652 98.2332 55.7652 98.2564 55.7652 98.3028C55.7652 98.326 55.7652 98.326 55.7652 98.3492V98.3724C55.7652 98.4188 55.7652 98.4653 55.7652 98.5117C55.7652 98.5349 55.7652 98.5349 55.7652 98.5581C55.7652 98.6045 55.7652 98.6509 55.7652 98.6973C55.7652 98.8366 55.7652 98.999 55.742 99.1614C55.742 99.2079 55.742 99.2311 55.742 99.2775C55.742 99.3007 55.742 99.3239 55.742 99.3239C55.742 99.3471 55.742 99.3703 55.742 99.3935C55.742 99.4631 55.7188 99.5328 55.7188 99.6024C55.7188 99.6256 55.7188 99.672 55.6956 99.6952C55.6956 99.7184 55.6956 99.7416 55.6956 99.7648C55.6956 99.8112 55.6724 99.8576 55.6724 99.9041C55.6724 99.9273 55.6724 99.9273 55.6724 99.9505C55.6724 99.9969 55.6492 100.067 55.6492 100.113C55.626 100.206 55.6028 100.322 55.5796 100.415C55.5796 100.461 55.5564 100.507 55.5332 100.577C55.5099 100.716 55.4635 100.856 55.4171 100.995C55.4171 101.018 55.3939 101.064 55.3939 101.088C55.3707 101.204 55.3243 101.296 55.3011 101.412C55.2779 101.459 55.2779 101.529 55.2547 101.575C55.2315 101.668 55.1851 101.784 55.1618 101.877C55.1154 101.993 55.069 102.132 55.0226 102.271C54.9994 102.364 54.953 102.434 54.9298 102.526C54.8834 102.642 54.837 102.758 54.8138 102.874C54.7905 102.921 54.7673 102.991 54.7441 103.037C54.6977 103.153 54.6513 103.269 54.6049 103.385C54.5353 103.547 54.4889 103.687 54.4192 103.849C54.396 103.919 54.3496 103.988 54.3264 104.058C54.28 104.174 54.2104 104.29 54.164 104.429C53.9783 104.847 53.7695 105.288 53.5374 105.752C53.4446 105.961 53.3285 106.147 53.2357 106.355C53.1197 106.611 52.9804 106.866 52.8412 107.121C52.818 107.168 52.7948 107.214 52.7716 107.261C52.6323 107.516 52.4931 107.794 52.3307 108.05C52.261 108.189 52.1914 108.328 52.0986 108.467C52.0522 108.56 52.0058 108.653 51.9361 108.746C51.8897 108.839 51.8201 108.931 51.7737 109.024C51.7273 109.117 51.6577 109.21 51.6113 109.303C51.5648 109.396 51.4952 109.488 51.4488 109.604C51.356 109.744 51.2864 109.906 51.1935 110.045C51.1703 110.092 51.1239 110.138 51.1007 110.185C51.0543 110.277 50.9847 110.393 50.9151 110.486C50.8454 110.579 50.799 110.695 50.7294 110.788C50.6598 110.881 50.6134 110.997 50.5438 111.09C50.4973 111.182 50.4277 111.275 50.3813 111.368C50.3581 111.391 50.3581 111.414 50.3349 111.438C50.2885 111.531 50.2189 111.623 50.1725 111.716C50.1028 111.809 50.0564 111.925 49.9868 112.018C49.9868 112.018 49.9868 112.041 49.9636 112.041L49.894 112.111C49.894 112.111 49.894 112.111 49.8708 112.134L49.8244 112.18C49.8011 112.204 49.7779 112.227 49.7547 112.25C49.6619 112.343 49.5227 112.482 49.3834 112.644C49.3602 112.668 49.337 112.691 49.3138 112.737C49.2906 112.76 49.2674 112.807 49.221 112.83C48.9889 113.085 48.7336 113.387 48.4784 113.735C48.4552 113.782 48.4088 113.828 48.3855 113.874C48.2695 114.014 48.1767 114.153 48.0607 114.315C48.0142 114.362 47.991 114.408 47.9446 114.455C47.8982 114.501 47.875 114.547 47.8518 114.617C47.8286 114.663 47.7822 114.733 47.759 114.779C47.7358 114.826 47.6894 114.895 47.6661 114.942C47.6429 114.965 47.6429 114.988 47.6197 115.012C47.5965 115.035 47.5965 115.058 47.5733 115.104C47.5269 115.174 47.4805 115.267 47.4341 115.336C47.318 115.545 47.202 115.754 47.1092 115.963C47.086 115.986 47.086 116.033 47.0628 116.056C47.0628 116.056 47.0628 116.079 47.0396 116.079C47.0164 116.125 46.9932 116.172 46.9699 116.218C46.9467 116.265 46.9235 116.334 46.9003 116.381C46.8771 116.427 46.8771 116.45 46.8539 116.497C46.8307 116.566 46.8075 116.636 46.7843 116.706C46.7611 116.752 46.7611 116.798 46.7379 116.845C46.7147 116.891 46.7147 116.938 46.6915 117.007C46.5986 117.309 46.5522 117.611 46.5058 117.912H8.6792C8.28469 117.912 6.63703 117.889 4.87334 116.961C4.87334 116.961 4.87334 116.961 4.85013 116.961C4.20035 116.613 3.52736 116.172 2.90078 115.545C1.43877 114.06 0.487305 112.018 0.487305 109.767V45.8793C0.487305 41.3772 4.15393 37.7106 8.656 37.7106H88.8809C89.4379 37.7106 89.9948 37.757 90.5286 37.873C93.7311 38.5228 96.2374 41.0523 96.8872 44.2316C96.8408 44.7654 96.9104 45.3223 96.9104 45.8793Z" fill="white" stroke="black" stroke-width="0.696196" stroke-miterlimit="10"/>
<path d="M53.9781 104.429C54.0246 104.29 54.0942 104.174 54.1406 104.058C54.1638 103.988 54.2102 103.919 54.2334 103.849C54.2798 103.733 54.3262 103.64 54.3494 103.547C54.071 104.22 53.7229 104.963 53.3516 105.752C53.5836 105.288 53.7925 104.847 53.9781 104.429Z" fill="white" stroke="black" stroke-width="0.696196" stroke-miterlimit="10"/>
<path d="M54.8373 102.271C54.8141 102.364 54.7677 102.434 54.7445 102.526C54.698 102.642 54.6516 102.735 54.6284 102.851C54.7677 102.503 54.8837 102.155 54.9997 101.83C54.9997 101.853 54.9765 101.877 54.9765 101.877C54.9301 101.993 54.8837 102.132 54.8373 102.271Z" fill="white" stroke="black" stroke-width="0.696196" stroke-miterlimit="10"/>
<path d="M53.3518 105.729C53.2357 105.961 53.1197 106.193 52.9805 106.448C53.0037 106.402 53.0269 106.379 53.0501 106.332C53.1429 106.123 53.2589 105.938 53.3518 105.729Z" fill="white" stroke="black" stroke-width="0.696196" stroke-miterlimit="10"/>
<path d="M52.1455 108.003C52.308 107.748 52.4472 107.469 52.5864 107.214C52.4472 107.469 52.308 107.748 52.1455 108.003Z" fill="white" stroke="black" stroke-width="0.696196" stroke-miterlimit="10"/>
<path d="M46.9703 120.395C46.9471 120.372 46.9239 120.326 46.9007 120.303C46.8543 120.21 46.8079 120.163 46.7615 120.07C46.7383 120.047 46.7383 120.001 46.7151 119.954C46.6918 119.931 46.6918 119.885 46.6686 119.862C46.6454 119.769 46.599 119.699 46.5758 119.606V119.583C46.5526 119.514 46.5294 119.444 46.5062 119.374C46.483 119.351 46.483 119.281 46.483 119.258C46.4598 119.235 46.4598 119.165 46.4598 119.142C46.4598 119.119 46.4366 119.073 46.4366 119.049C46.4134 119.003 46.4134 118.957 46.4134 118.91C46.3902 118.817 46.3902 118.748 46.3902 118.678C46.367 118.516 46.367 118.376 46.367 118.26V118.075C46.367 118.005 46.367 117.935 46.3902 117.889C46.4134 117.587 46.483 117.286 46.5758 116.984C46.599 116.938 46.599 116.891 46.6222 116.822C46.6454 116.775 46.6454 116.729 46.6686 116.682C46.7151 116.52 46.7847 116.381 46.8311 116.218C46.8079 116.265 46.7847 116.334 46.7615 116.381C46.7383 116.427 46.7151 116.473 46.7151 116.52C46.6918 116.566 46.6686 116.636 46.6454 116.682C46.6222 116.729 46.6222 116.775 46.599 116.822C46.5758 116.868 46.5758 116.914 46.5526 116.984C46.4598 117.286 46.4134 117.587 46.367 117.889C46.367 117.959 46.3438 118.028 46.3438 118.075V118.26C46.3438 118.376 46.3438 118.516 46.367 118.678C46.367 118.771 46.3902 118.817 46.3902 118.91C46.3902 118.957 46.4134 119.003 46.4134 119.049C46.4134 119.073 46.4366 119.119 46.4366 119.142C46.4366 119.165 46.4598 119.235 46.4598 119.258C46.4598 119.281 46.483 119.351 46.483 119.374C46.5062 119.444 46.5062 119.514 46.5526 119.583V119.606L46.6454 119.862C46.6686 119.885 46.6686 119.931 46.6918 119.954C46.7151 119.978 46.7151 120.047 46.7383 120.07C46.7615 120.163 46.8311 120.21 46.8775 120.303C46.9007 120.326 46.9007 120.372 46.9703 120.395C47.0864 120.604 47.272 120.813 47.4577 120.999C47.5505 121.092 47.7593 121.277 48.0378 121.486C48.0842 121.556 48.1307 121.579 48.1771 121.579C47.6433 121.208 47.2488 120.813 46.9703 120.395Z" fill="white"/>
<path d="M46.9703 120.395C46.9471 120.372 46.9239 120.326 46.9007 120.303C46.8543 120.21 46.8079 120.163 46.7615 120.07C46.7383 120.047 46.7383 120.001 46.7151 119.954C46.6918 119.931 46.6918 119.885 46.6686 119.862C46.6454 119.769 46.599 119.699 46.5758 119.606V119.583C46.5526 119.514 46.5294 119.444 46.5062 119.374C46.483 119.351 46.483 119.281 46.483 119.258C46.4598 119.235 46.4598 119.165 46.4598 119.142C46.4598 119.119 46.4366 119.073 46.4366 119.049C46.4134 119.003 46.4134 118.957 46.4134 118.91C46.3902 118.817 46.3902 118.748 46.3902 118.678C46.367 118.516 46.367 118.376 46.367 118.26V118.075C46.367 118.005 46.367 117.935 46.3902 117.889C46.4134 117.587 46.483 117.286 46.5758 116.984C46.599 116.938 46.599 116.891 46.6222 116.822C46.6454 116.775 46.6454 116.729 46.6686 116.682C46.7151 116.52 46.7847 116.381 46.8311 116.218C46.8079 116.265 46.7847 116.334 46.7615 116.381C46.7383 116.427 46.7151 116.473 46.7151 116.52C46.6918 116.566 46.6686 116.636 46.6454 116.682C46.6222 116.729 46.6222 116.775 46.599 116.822C46.5758 116.868 46.5758 116.914 46.5526 116.984C46.4598 117.286 46.4134 117.587 46.367 117.889C46.367 117.959 46.3438 118.028 46.3438 118.075V118.26C46.3438 118.376 46.3438 118.516 46.367 118.678C46.367 118.771 46.3902 118.817 46.3902 118.91C46.3902 118.957 46.4134 119.003 46.4134 119.049C46.4134 119.073 46.4366 119.119 46.4366 119.142C46.4366 119.165 46.4598 119.235 46.4598 119.258C46.4598 119.281 46.483 119.351 46.483 119.374C46.5062 119.444 46.5062 119.514 46.5526 119.583V119.606L46.6454 119.862C46.6686 119.885 46.6686 119.931 46.6918 119.954C46.7151 119.978 46.7151 120.047 46.7383 120.07C46.7615 120.163 46.8311 120.21 46.8775 120.303C46.9007 120.326 46.9007 120.372 46.9703 120.395ZM46.9703 120.395C47.0864 120.604 47.272 120.813 47.4577 120.999C47.5505 121.092 47.7593 121.277 48.0378 121.486C48.0842 121.556 48.1307 121.579 48.1771 121.579C47.6433 121.208 47.2488 120.813 46.9703 120.395Z" stroke="black" stroke-width="0.696196" stroke-miterlimit="10"/>
<path d="M49.5689 78.9253C48.6639 79.7375 47.898 80.2945 46.4592 81.3852C44.185 83.1025 42.2124 84.402 40.8433 85.2375H40.8665C42.2357 84.3788 44.2082 83.1025 46.4824 81.3852C47.8748 80.3177 48.6407 79.7608 49.5689 78.9253Z" fill="white" stroke="black" stroke-width="0.696196" stroke-miterlimit="10"/>
<path d="M55.2315 100.995C55.2315 101.018 55.2083 101.064 55.2083 101.088C55.1851 101.204 55.1387 101.296 55.1155 101.412C55.1155 101.436 55.0923 101.459 55.0923 101.505C55.2083 101.157 55.3011 100.832 55.3708 100.531C55.3708 100.554 55.3708 100.577 55.3476 100.577C55.3244 100.716 55.2779 100.855 55.2315 100.995Z" fill="white" stroke="black" stroke-width="0.696196" stroke-miterlimit="10"/>
<path d="M79.5986 71.4528C79.4825 71.5456 79.3665 71.6152 79.2273 71.6849C79.1112 71.7545 78.9952 71.8473 78.8559 71.9169C78.7399 71.9865 78.6471 72.0562 78.5311 72.1258C77.9741 72.4739 77.4404 72.7756 76.9066 73.0773C76.8138 73.1237 76.7209 73.1701 76.6513 73.2165C75.6999 73.7038 74.7716 74.1448 73.8433 74.5161C73.6577 74.5857 73.4488 74.6553 73.2632 74.7481C75.4446 73.9359 77.6956 72.7988 79.9699 71.1975C79.9235 71.2439 79.8538 71.2671 79.8074 71.3136C79.7378 71.36 79.6682 71.4064 79.5986 71.4528Z" fill="white" stroke="black" stroke-width="0.696196" stroke-miterlimit="10"/>
<path d="M64.9786 76.3958C64.4913 76.419 64.0039 76.419 63.5398 76.419H63.1453H63.1221C63.8879 76.4422 64.6769 76.419 65.4891 76.3726C65.3731 76.3726 65.2803 76.3958 65.141 76.3958H64.9786Z" fill="white" stroke="black" stroke-width="0.696196" stroke-miterlimit="10"/>
<path d="M72.4043 75.0498C72.6596 74.957 72.938 74.8642 73.1933 74.7713C73.0077 74.841 72.8452 74.8874 72.6596 74.957C72.5667 75.0034 72.4739 75.0266 72.4043 75.0498Z" fill="white" stroke="black" stroke-width="0.696196" stroke-miterlimit="10"/>
<path d="M82.1281 69.5499C82.0353 69.6195 81.9424 69.7123 81.8496 69.782C81.2694 70.2461 80.7125 70.687 80.1323 71.0815C80.8981 70.5246 81.664 69.9444 82.453 69.2714C82.4298 69.2714 82.4298 69.2946 82.4066 69.2946C82.3137 69.3874 82.2209 69.4803 82.1281 69.5499Z" fill="white" stroke="black" stroke-width="0.696196" stroke-miterlimit="10"/>
<path d="M85.0747 66.8347C87.2561 70.4085 91.3637 75.0034 96.8868 79.7375V79.7143C91.3637 74.9802 87.2793 70.4085 85.0747 66.8347Z" fill="white" stroke="black" stroke-width="0.696196" stroke-miterlimit="10"/>
<path d="M83.1958 68.6448C83.2887 68.5752 83.3583 68.5056 83.4279 68.436C83.8688 68.0415 84.2865 67.6237 84.7275 67.206C84.8435 67.0668 84.9595 66.9508 85.0756 66.8347C84.2865 67.647 83.4975 68.3896 82.7085 69.0626C82.8941 68.9233 83.0334 68.7841 83.1958 68.6448Z" fill="white" stroke="black" stroke-width="0.696196" stroke-miterlimit="10"/>
<path d="M62.1699 76.3726C62.0307 76.3726 61.8682 76.3494 61.729 76.3494C62.0771 76.3726 62.4484 76.3958 62.8429 76.419C62.7733 76.419 62.7269 76.419 62.6573 76.3958C62.4948 76.3958 62.3324 76.3726 62.1699 76.3726Z" fill="white" stroke="black" stroke-width="0.696196" stroke-miterlimit="10"/>
<path d="M65.6278 76.3726C65.7438 76.3726 65.8598 76.3494 65.9758 76.3494C66.3239 76.3262 66.672 76.303 67.0434 76.2566C67.113 76.2566 67.2058 76.2334 67.2754 76.2334C67.4379 76.2102 67.6003 76.187 67.7628 76.1637C67.9484 76.1405 68.1573 76.0941 68.3429 76.0709C68.6678 76.0013 68.9695 75.9549 69.2944 75.8853C69.5032 75.8389 69.7121 75.7924 69.921 75.746C69.9906 75.7228 70.0602 75.7228 70.1298 75.6996C68.5286 76.0709 66.9737 76.303 65.5117 76.3726C65.5349 76.3726 65.5813 76.3726 65.6278 76.3726Z" fill="white" stroke="black" stroke-width="0.696196" stroke-miterlimit="10"/>
<path d="M61.4741 76.303C61.5437 76.303 61.6366 76.3262 61.7062 76.3262C61.6366 76.303 61.5669 76.303 61.4741 76.303Z" fill="white" stroke="black" stroke-width="0.696196" stroke-miterlimit="10"/>
<path d="M60.9863 76.2566C61.0105 76.2566 61.0105 76.2566 60.9863 76.2566C61.0105 76.2566 61.0105 76.2566 60.9863 76.2566C61.0105 76.2566 61.0105 76.2566 60.9863 76.2566Z" fill="white"/>
<path d="M60.9863 76.2566C61.0105 76.2566 61.0105 76.2566 60.9863 76.2566C61.0105 76.2566 61.0105 76.2566 60.9863 76.2566ZM60.9863 76.2566C61.0105 76.2566 61.0105 76.2566 60.9863 76.2566Z" stroke="black" stroke-width="0.696196" stroke-miterlimit="10"/>
<path d="M60.1279 76.1405C60.1975 76.1405 60.2672 76.1637 60.3368 76.1637C60.2672 76.1637 60.1975 76.1405 60.1279 76.1405Z" fill="white" stroke="black" stroke-width="0.696196" stroke-miterlimit="10"/>
<path d="M59.084 75.9781C59.1536 76.0013 59.2232 76.0013 59.2928 76.0245C59.2232 76.0013 59.1536 75.9781 59.084 75.9781Z" fill="white" stroke="black" stroke-width="0.696196" stroke-miterlimit="10"/>
<path d="M58.7588 75.9085C58.8057 75.9085 58.8291 75.9319 58.876 75.9319C58.8525 75.9319 58.8057 75.9319 58.7588 75.9085Z" fill="white" stroke="black" stroke-width="0.696196" stroke-miterlimit="10"/>
<path d="M58.5498 75.8621C58.6194 75.8853 58.7123 75.8853 58.7819 75.9085C58.7123 75.9085 58.6658 75.8853 58.5962 75.8621C58.573 75.8853 58.5498 75.8621 58.5498 75.8621Z" fill="white" stroke="black" stroke-width="0.696196" stroke-miterlimit="10"/>
<path d="M58.2949 75.8156C58.3645 75.8388 58.4574 75.8388 58.527 75.8621C58.5038 75.8621 58.5038 75.8621 58.4806 75.8621C58.4342 75.8388 58.3645 75.8388 58.2949 75.8156Z" fill="white" stroke="black" stroke-width="0.696196" stroke-miterlimit="10"/>
<path d="M56.9951 75.514C57.0184 75.514 57.0417 75.5373 57.0882 75.5373C57.0417 75.514 57.0184 75.514 56.9951 75.514Z" fill="white" stroke="black" stroke-width="0.696196" stroke-miterlimit="10"/>
<path d="M56.6475 75.4211C56.6707 75.4211 56.7173 75.4444 56.7405 75.4444C56.7173 75.4444 56.6707 75.4211 56.6475 75.4211Z" fill="white" stroke="black" stroke-width="0.696196" stroke-miterlimit="10"/>
<path d="M56.4619 75.3747C56.5085 75.398 56.555 75.398 56.6015 75.4213C56.555 75.398 56.5085 75.3747 56.4619 75.3747Z" fill="white" stroke="black" stroke-width="0.696196" stroke-miterlimit="10"/>
<path d="M56.2759 75.3051C56.2759 75.3292 56.3 75.3292 56.2759 75.3051C56.2759 75.3292 56.2759 75.3292 56.2759 75.3051Z" fill="white" stroke="black" stroke-width="0.696196" stroke-miterlimit="10"/>
<path d="M56.1133 75.2587C56.1133 75.2587 56.1369 75.2587 56.1606 75.2587C56.1369 75.2823 56.1133 75.2587 56.1133 75.2587Z" fill="white" stroke="black" stroke-width="0.696196" stroke-miterlimit="10"/>
<path d="M55.9512 75.2123C55.9744 75.2123 55.9977 75.2355 56.021 75.2355C55.9744 75.2355 55.9512 75.2123 55.9512 75.2123Z" fill="white" stroke="black" stroke-width="0.696196" stroke-miterlimit="10"/>
<path d="M55.8115 75.1659C55.8352 75.1659 55.8352 75.1659 55.8588 75.1895C55.8588 75.1895 55.8352 75.1895 55.8115 75.1659Z" fill="white" stroke="black" stroke-width="0.696196" stroke-miterlimit="10"/>
<path d="M55.4863 75.0731C55.5332 75.0965 55.5801 75.0965 55.6035 75.1199C55.5566 75.0965 55.5098 75.0731 55.4863 75.0731Z" fill="white" stroke="black" stroke-width="0.696196" stroke-miterlimit="10"/>
<path d="M55.5796 99.2786C55.5796 99.2317 55.5796 99.2083 55.5796 99.1614C55.603 99.2083 55.5796 99.2317 55.5796 99.2786Z" fill="white" stroke="black" stroke-width="0.696196" stroke-miterlimit="10"/>
<path d="M55.5796 98.1171V98.1404C55.5796 98.1637 55.5796 98.1869 55.5796 98.2102C55.5796 98.1869 55.5796 98.1637 55.5796 98.1171Z" fill="white" stroke="black" stroke-width="0.696196" stroke-miterlimit="10"/>
<path d="M55.5566 98.0475C55.5566 98.0475 55.5566 98.0711 55.5566 98.0948C55.5803 98.0711 55.5566 98.0475 55.5566 98.0475Z" fill="white" stroke="black" stroke-width="0.696196" stroke-miterlimit="10"/>
<path d="M55.5103 99.7882C55.5103 99.7649 55.5103 99.7416 55.5103 99.7184C55.5335 99.7416 55.5335 99.7649 55.5103 99.7882Z" fill="white" stroke="black" stroke-width="0.696196" stroke-miterlimit="10"/>
<path d="M55.4863 99.9509C55.4863 99.9043 55.5096 99.8345 55.5096 99.788C55.5096 99.8345 55.4863 99.8811 55.4863 99.9043C55.4863 99.9276 55.4863 99.9276 55.4863 99.9509Z" fill="white" stroke="black" stroke-width="0.696196" stroke-miterlimit="10"/>
<path d="M55.3242 75.0034C55.3708 75.0267 55.4173 75.0267 55.4871 75.0499C55.4406 75.0267 55.4173 75.0267 55.3708 75.0034C55.3475 75.0267 55.3242 75.0267 55.3242 75.0034Z" fill="white" stroke="black" stroke-width="0.696196" stroke-miterlimit="10"/>
<path d="M52.7017 75.84C52.7485 75.7931 52.772 75.7697 52.8189 75.7228L52.7954 75.7463C52.7485 75.7931 52.7251 75.8166 52.7017 75.84Z" fill="white" stroke="black" stroke-width="0.696196" stroke-miterlimit="10"/>
<path d="M52.6558 107.098C52.7022 107.005 52.7486 106.936 52.795 106.843C52.7486 106.912 52.7022 107.005 52.6558 107.098Z" fill="white" stroke="black" stroke-width="0.696196" stroke-miterlimit="10"/>
<path d="M52.4004 76.1637C52.3771 76.187 52.3538 76.2103 52.3306 76.2335C52.3771 76.2103 52.4004 76.187 52.4004 76.1637C52.4237 76.1637 52.4237 76.1637 52.4004 76.1637Z" fill="white"/>
<path d="M52.4004 76.1637C52.3771 76.187 52.3538 76.2103 52.3306 76.2335C52.3771 76.2103 52.4004 76.187 52.4004 76.1637ZM52.4004 76.1637C52.4237 76.1637 52.4237 76.1637 52.4004 76.1637Z" stroke="black" stroke-width="0.696196" stroke-miterlimit="10"/>
<path d="M52.2612 76.3262C52.2147 76.3727 52.1681 76.4193 52.1216 76.4891L52.1449 76.4658C52.1681 76.4425 52.2147 76.396 52.2612 76.3262Z" fill="white" stroke="black" stroke-width="0.696196" stroke-miterlimit="10"/>
<path d="M50.103 78.4624L50.1274 78.438C50.1274 78.438 50.1274 78.438 50.103 78.4624C50.1274 78.438 50.103 78.4624 50.103 78.4624Z" fill="white"/>
<path d="M50.103 78.4624L50.1274 78.438C50.1274 78.438 50.1274 78.438 50.103 78.4624ZM50.103 78.4624C50.1274 78.438 50.103 78.4624 50.103 78.4624Z" stroke="black" stroke-width="0.696196" stroke-miterlimit="10"/>
<path d="M50.0103 78.5549C50.0339 78.5313 50.0339 78.5313 50.0576 78.5076C50.0339 78.5313 50.0339 78.5313 50.0103 78.5549C50.0103 78.5549 50.0103 78.5313 50.0103 78.5549Z" fill="white"/>
<path d="M50.0103 78.5549C50.0339 78.5313 50.0339 78.5313 50.0576 78.5076C50.0339 78.5313 50.0339 78.5313 50.0103 78.5549ZM50.0103 78.5549C50.0103 78.5313 50.0103 78.5549 50.0103 78.5549Z" stroke="black" stroke-width="0.696196" stroke-miterlimit="10"/>
<path d="M49.9175 78.6238C49.9408 78.6006 49.9873 78.5773 50.0106 78.554C49.964 78.5773 49.9408 78.6006 49.9175 78.6238Z" fill="white" stroke="black" stroke-width="0.696196" stroke-miterlimit="10"/>
<path d="M49.8013 78.7166C49.8245 78.6933 49.8478 78.67 49.8711 78.67C49.8478 78.67 49.8478 78.6933 49.8013 78.7166C49.8245 78.7166 49.8013 78.7166 49.8013 78.7166Z" fill="white"/>
<path d="M49.8013 78.7166C49.8245 78.6933 49.8478 78.67 49.8711 78.67C49.8478 78.67 49.8478 78.6933 49.8013 78.7166ZM49.8013 78.7166C49.8245 78.7166 49.8013 78.7166 49.8013 78.7166Z" stroke="black" stroke-width="0.696196" stroke-miterlimit="10"/>
<path d="M49.8242 112.018C49.8242 112.018 49.8242 112.043 49.8242 112.018V112.018Z" fill="white" stroke="black" stroke-width="0.696196" stroke-miterlimit="10"/>
<path d="M49.6157 112.227C49.639 112.204 49.6623 112.18 49.6855 112.157L49.6623 112.18C49.639 112.227 49.6157 112.227 49.6157 112.227Z" fill="white" stroke="black" stroke-width="0.696196" stroke-miterlimit="10"/>
<path d="M85.1677 66.8579C79.3429 72.822 73.3324 75.3051 68.1574 76.0941C66.9042 76.2798 65.6975 76.3726 64.5603 76.3958C64.0266 76.3958 63.5161 76.3958 63.0055 76.3726C62.8895 76.3726 62.7502 76.3726 62.6342 76.3494C62.5878 76.3494 62.5646 76.3494 62.5182 76.3494C62.4718 76.3494 62.4486 76.3494 62.4021 76.3494C62.3557 76.3494 62.3093 76.3494 62.2861 76.3494C62.1469 76.3494 61.9844 76.3262 61.8452 76.3262H61.822C61.7756 76.3262 61.7524 76.3262 61.7059 76.3262C61.6595 76.3262 61.6363 76.3262 61.5899 76.3262C61.5435 76.3262 61.5203 76.3262 61.4739 76.3262C61.3578 76.3262 61.2418 76.303 61.149 76.303C61.149 76.303 61.149 76.303 61.1258 76.303H61.1026C60.8937 76.2798 60.6617 76.2565 60.4528 76.2333C60.4064 76.2333 60.3832 76.2333 60.3368 76.2101C60.2903 76.2101 60.2671 76.2101 60.2207 76.1869C60.1511 76.1869 60.0815 76.1637 59.9887 76.1637C59.8494 76.1405 59.7102 76.1173 59.5709 76.0941C59.5013 76.0941 59.4317 76.0709 59.3621 76.0709C59.2925 76.0709 59.2228 76.0477 59.1532 76.0477C59.1068 76.0477 59.0372 76.0245 58.9908 76.0245C58.9676 76.0245 58.9676 76.0245 58.9444 76.0245C58.898 76.0245 58.8748 76.0013 58.8283 76.0013C58.7587 75.9781 58.6659 75.9781 58.5963 75.9549C58.5034 75.9317 58.4338 75.9317 58.3642 75.9085C58.2946 75.8852 58.2482 75.8852 58.1786 75.862C57.9929 75.8156 57.8072 75.7924 57.6448 75.746C57.5288 75.7228 57.4127 75.6996 57.2967 75.6532C57.2503 75.6532 57.2039 75.63 57.1807 75.63C57.1575 75.63 57.1575 75.63 57.1343 75.63C57.1111 75.63 57.0878 75.6068 57.0414 75.6068H57.0182C56.9718 75.6068 56.9486 75.5836 56.9022 75.5836C56.8558 75.5836 56.8326 75.5604 56.7862 75.5604C56.7397 75.5604 56.7165 75.5371 56.6933 75.5371C56.6701 75.5371 56.6469 75.5371 56.6469 75.5139C56.6005 75.4907 56.5541 75.4907 56.5077 75.4675C56.4613 75.4443 56.4149 75.4443 56.3684 75.4211H56.3452C56.2988 75.3979 56.2524 75.3979 56.206 75.3747C56.1828 75.3747 56.1828 75.3747 56.1596 75.3747C56.1364 75.3747 56.09 75.3515 56.0668 75.3515C56.0436 75.3515 56.0203 75.3283 55.9971 75.3283C55.9739 75.3283 55.9507 75.3051 55.9275 75.3051C55.9043 75.3051 55.9043 75.3051 55.8811 75.2819C55.8347 75.2587 55.7651 75.2587 55.7187 75.2355C55.6955 75.2355 55.6955 75.2355 55.6722 75.2123C55.6258 75.189 55.5794 75.189 55.5562 75.1658C55.5098 75.1426 55.4866 75.1426 55.4402 75.1194C55.417 75.1194 55.417 75.1194 55.3938 75.1194C55.3242 75.0962 55.2313 75.073 55.1617 75.0498C55.1385 75.0498 55.1153 75.0266 55.0921 75.0266C55.0225 75.0034 54.9296 74.9802 54.86 74.9338C54.7672 74.9106 54.6976 74.8642 54.628 74.8409C54.4887 74.7945 54.3495 74.7249 54.2567 74.6785C54.2334 74.6785 54.2102 74.6553 54.187 74.6553C54.1638 74.6321 54.1406 74.6321 54.0942 74.6089C54.071 74.6089 54.0478 74.5857 54.0246 74.5857C53.9782 74.5625 53.9318 74.5393 53.9086 74.5393C53.7461 74.7481 53.5837 74.957 53.4444 75.1426C53.3284 75.2819 53.2356 75.3979 53.1195 75.5371C53.0963 75.5604 53.0731 75.5836 53.0499 75.63C53.0035 75.6764 52.9571 75.746 52.9107 75.7924C52.8875 75.8156 52.8875 75.8388 52.8643 75.8388L52.8411 75.862C52.8178 75.8852 52.7946 75.9084 52.7714 75.9549C52.7482 75.9781 52.7018 76.0245 52.6786 76.0477C52.6554 76.0709 52.6322 76.0941 52.609 76.1405C52.5858 76.1637 52.5394 76.2101 52.5162 76.2333L52.493 76.2565C52.4698 76.2798 52.4465 76.303 52.4233 76.3262C52.4001 76.3494 52.3769 76.3958 52.3305 76.419C52.3073 76.4422 52.2841 76.4654 52.2609 76.4886C52.2377 76.5118 52.2145 76.535 52.1913 76.5582L52.1681 76.5814C52.1217 76.6279 52.0752 76.6743 52.0288 76.7207C52.0288 76.7207 52.0288 76.7207 52.0056 76.7439C51.7736 76.976 51.5647 77.208 51.3558 77.4169C51.2862 77.4865 51.2398 77.5329 51.1702 77.6025C51.0309 77.7418 50.8917 77.881 50.7525 77.997C50.7061 78.0435 50.6828 78.0667 50.6364 78.0899C50.59 78.1363 50.5436 78.1827 50.4972 78.2291C50.474 78.2523 50.4508 78.2755 50.4044 78.2987C50.4044 78.2987 50.3812 78.2987 50.3812 78.3219C50.358 78.3451 50.3115 78.3915 50.2883 78.4148C50.2651 78.438 50.2187 78.4844 50.1955 78.5076C50.1955 78.5076 50.1955 78.5076 50.1723 78.5076C50.1723 78.5076 50.1723 78.5076 50.1491 78.5308C50.1259 78.554 50.1027 78.5772 50.0795 78.5772L50.0563 78.6004C50.0563 78.6004 50.0563 78.6004 50.0331 78.6236C50.0099 78.6468 49.9867 78.67 49.9402 78.6932C49.917 78.7164 49.917 78.7164 49.8938 78.7396C49.8706 78.7628 49.8474 78.7861 49.8242 78.7861C49.8242 78.7861 49.801 78.7861 49.801 78.8093C49.7778 78.8325 49.7778 78.8325 49.7546 78.8557C49.7082 78.8789 49.685 78.9253 49.6386 78.9485C49.6153 78.9717 49.5921 78.9949 49.5689 79.0181C48.6639 79.8303 47.8981 80.3873 46.4593 81.478C44.185 83.1953 42.2125 84.4717 40.8433 85.3303C40.8433 85.3303 40.8433 85.3303 40.8433 85.3535C40.8433 85.3535 40.8433 85.3535 40.8201 85.3303C40.8201 85.3303 40.8201 85.3303 40.7969 85.3535C40.9593 85.748 41.1218 86.1425 41.2842 86.537C41.377 86.7459 41.4467 86.9315 41.5395 87.1404C41.6323 87.3493 41.7019 87.5349 41.7948 87.7438C41.8412 87.883 41.9108 88.0222 41.9572 88.1615C42.1196 88.5792 42.2821 88.9969 42.4445 89.4146C42.5606 89.6931 42.6534 89.9716 42.7694 90.2501C42.8158 90.3893 42.8855 90.5286 42.9319 90.6678C43.0479 90.9463 43.1407 91.2247 43.2568 91.5264C43.512 92.2458 43.7905 92.9652 44.0458 93.6614C44.2082 94.1488 44.3939 94.6361 44.5563 95.1234C44.6259 95.3091 44.6724 95.4715 44.742 95.6572C44.9044 96.1445 45.0669 96.6087 45.2293 97.096C45.415 97.653 45.6006 98.2099 45.7863 98.7669C45.7863 98.7669 50.4508 96.0285 53.3748 96.2142C53.4212 96.2142 53.4676 96.2142 53.514 96.2142C53.5373 96.2142 53.5837 96.2142 53.6069 96.2142C53.6533 96.2142 53.6765 96.2142 53.7229 96.2374C53.7693 96.2374 53.8157 96.2606 53.8621 96.2606C53.8854 96.2606 53.8854 96.2606 53.9086 96.2606C53.9318 96.2606 53.955 96.2606 53.955 96.2838C54.0014 96.2838 54.0246 96.307 54.071 96.307C54.0942 96.307 54.1174 96.307 54.1406 96.3302C54.1638 96.3302 54.187 96.3534 54.2334 96.3534C54.2567 96.3534 54.2799 96.3766 54.3031 96.3766C54.3263 96.3766 54.3727 96.3998 54.3959 96.423C54.4191 96.4462 54.4655 96.4462 54.4887 96.4694C54.5583 96.4926 54.628 96.539 54.6744 96.5622C54.6976 96.5855 54.744 96.6087 54.7672 96.6319C54.7904 96.6551 54.8136 96.6551 54.8368 96.6783C54.86 96.7015 54.8832 96.7015 54.9064 96.7247C54.9296 96.7479 54.9528 96.7479 54.9761 96.7711C54.9993 96.7943 55.0225 96.8175 55.0457 96.8175C55.0689 96.8407 55.0921 96.8639 55.1153 96.8871C55.1385 96.9103 55.1617 96.9335 55.1849 96.98C55.2081 97.0032 55.2313 97.0264 55.2545 97.0728C55.2777 97.096 55.3009 97.1192 55.3009 97.1424C55.3009 97.1424 55.3009 97.1424 55.3242 97.1656C55.3474 97.1888 55.3706 97.2352 55.3706 97.2584C55.3938 97.2817 55.3938 97.3281 55.417 97.3513C55.4402 97.3977 55.4634 97.4441 55.4866 97.4905C55.5098 97.5137 55.5098 97.5601 55.533 97.5833C55.5562 97.6297 55.5562 97.653 55.5794 97.6994C55.6026 97.7458 55.6026 97.7922 55.6258 97.8386C55.6258 97.8618 55.6258 97.885 55.649 97.9082C55.649 97.9314 55.649 97.9546 55.6722 97.9778C55.6722 98.0243 55.6955 98.0475 55.6955 98.0939C55.6955 98.1171 55.6955 98.1171 55.6955 98.1403C55.6955 98.1635 55.6955 98.1635 55.6955 98.1867V98.2099C55.6955 98.2331 55.6955 98.2563 55.6955 98.2795C55.6955 98.3027 55.6955 98.3259 55.6955 98.3724C55.6955 98.3956 55.6955 98.3956 55.6955 98.4188V98.442C55.6955 98.4884 55.6955 98.5348 55.6955 98.5812C55.6955 98.6044 55.6955 98.6044 55.6955 98.6276C55.6955 98.674 55.6955 98.7205 55.6955 98.7669C55.6955 98.9061 55.6955 99.0686 55.6722 99.231C55.6722 99.2774 55.6722 99.3006 55.6722 99.347C55.6722 99.3702 55.6722 99.3702 55.6722 99.3934C55.6722 99.4166 55.6722 99.4399 55.6722 99.4631C55.6722 99.5327 55.649 99.6023 55.649 99.6719C55.649 99.6951 55.649 99.7415 55.6258 99.7647C55.6258 99.788 55.6258 99.8112 55.6258 99.8344C55.6258 99.8808 55.6026 99.9272 55.6026 99.9504C55.6026 99.9736 55.6026 99.9736 55.6026 99.9968C55.6026 100.043 55.5794 100.113 55.5794 100.159C55.5794 100.206 55.5562 100.275 55.5562 100.322C55.5098 100.554 55.4402 100.809 55.3706 101.088C55.3242 101.227 55.2777 101.389 55.2313 101.552C55.2081 101.621 55.1849 101.691 55.1617 101.784C55.1617 101.784 55.1617 101.784 55.1617 101.807C55.1153 101.923 55.0921 102.039 55.0457 102.155C54.8136 102.805 54.5351 103.524 54.187 104.29C54.187 104.29 54.187 104.29 54.187 104.313C54.1174 104.476 54.0478 104.638 53.955 104.801C53.9318 104.824 53.9318 104.87 53.9086 104.893C53.8157 105.079 53.7229 105.265 53.6301 105.474C53.5837 105.59 53.514 105.706 53.4676 105.822C53.4212 105.914 53.3748 106.031 53.3284 106.123C53.282 106.216 53.2356 106.332 53.1659 106.425C53.1427 106.471 53.1195 106.518 53.0963 106.541C53.0499 106.634 53.0035 106.703 52.9571 106.796C52.9339 106.843 52.9107 106.889 52.8875 106.936C52.8411 107.028 52.7946 107.098 52.7482 107.191C52.725 107.237 52.7018 107.284 52.6786 107.307C52.5394 107.562 52.4001 107.841 52.2377 108.096C52.1681 108.235 52.0984 108.374 52.0056 108.514C51.9592 108.606 51.9128 108.699 51.8432 108.792C51.7968 108.885 51.7271 108.978 51.6807 109.071C51.6343 109.163 51.5647 109.256 51.5183 109.349C51.4719 109.442 51.4023 109.535 51.3558 109.651C51.263 109.79 51.1934 109.952 51.1006 110.092C51.0774 110.138 51.0542 110.184 51.0077 110.231C50.9613 110.324 50.8917 110.44 50.8221 110.533C50.7525 110.625 50.7061 110.741 50.6364 110.834C50.5668 110.927 50.5204 111.043 50.4508 111.136C50.4044 111.229 50.3348 111.322 50.2883 111.414C50.2651 111.438 50.2651 111.461 50.2419 111.484C50.1955 111.577 50.1259 111.67 50.0795 111.763C50.0099 111.855 49.9634 111.971 49.8938 112.064C49.8706 112.087 49.8474 112.134 49.801 112.157C49.801 112.157 49.801 112.157 49.7778 112.18L49.7314 112.227L49.7082 112.25L49.685 112.273C49.5921 112.366 49.4529 112.505 49.3137 112.668C49.2905 112.691 49.2673 112.714 49.244 112.76C49.2208 112.784 49.1976 112.83 49.1512 112.853C48.9192 113.108 48.6639 113.41 48.4086 113.758C48.3854 113.805 48.339 113.851 48.3158 113.898C48.1998 114.037 48.1069 114.176 47.9909 114.338C47.9445 114.385 47.9213 114.431 47.8749 114.478C47.8284 114.524 47.8052 114.571 47.782 114.64C47.7588 114.687 47.7124 114.756 47.6892 114.803C47.666 114.849 47.6196 114.919 47.5964 114.965C47.5732 114.988 47.5732 115.011 47.55 115.035C47.5268 115.058 47.5268 115.081 47.5036 115.127C47.4571 115.197 47.4107 115.29 47.3643 115.36C47.2483 115.568 47.1323 115.777 47.0394 115.986C47.0162 116.009 47.0162 116.056 46.993 116.079C46.993 116.079 46.993 116.102 46.9698 116.102C46.9466 116.149 46.9234 116.195 46.9002 116.241C46.8306 116.404 46.7842 116.543 46.7377 116.706C46.7145 116.729 46.7145 116.798 46.6913 116.845C46.6681 116.914 46.6681 116.961 46.6449 117.007C46.5521 117.309 46.5057 117.611 46.4593 117.912C46.4361 117.982 46.4361 118.051 46.4361 118.098V118.284C46.4361 118.423 46.4361 118.539 46.4593 118.701C46.4825 118.771 46.4825 118.84 46.4825 118.933C46.5057 118.957 46.5057 119.026 46.5057 119.073C46.5057 119.096 46.5289 119.142 46.5289 119.165C46.5521 119.189 46.5521 119.258 46.5521 119.281C46.5753 119.305 46.5753 119.374 46.5753 119.397C46.5985 119.467 46.5985 119.537 46.6449 119.606V119.63C46.6681 119.722 46.7145 119.792 46.7377 119.885C46.7609 119.908 46.761 119.954 46.7842 119.978C46.8074 120.024 46.8074 120.07 46.8306 120.094C46.8538 120.186 46.9234 120.233 46.9698 120.326C46.993 120.349 47.0162 120.395 47.0394 120.419C47.3179 120.836 47.7124 121.231 48.2462 121.602C48.2694 121.625 48.339 121.648 48.3622 121.695L48.3854 121.718C48.4318 121.741 48.455 121.765 48.4782 121.765C48.9192 121.973 49.5921 122.229 50.4508 122.252C50.6364 122.252 51.2166 122.275 52.725 121.857C53.0499 121.765 53.9318 121.509 55.2777 120.975C56.7397 120.372 57.8073 119.838 58.1553 119.653C59.014 119.189 59.9887 118.632 61.0097 117.935C70.2691 117.959 79.5518 117.959 88.8112 117.982C93.3132 117.982 96.9798 114.315 96.9798 109.813V79.7375C91.4567 75.0034 87.3724 70.4085 85.1677 66.8579ZM58.8748 85.4695C56.3917 85.4695 54.3727 83.6362 54.3727 81.3852C54.3727 79.1342 56.3917 77.3008 58.8748 77.3008C61.3578 77.3008 63.3768 79.1342 63.3768 81.3852C63.3768 83.6362 61.3578 85.4695 58.8748 85.4695Z" fill="white" stroke="black" stroke-width="0.696196" stroke-miterlimit="10"/>
<path d="M60.894 117.912C68.1809 111.902 75.4445 105.868 82.7314 99.8344" stroke="black" stroke-width="0.696196" stroke-miterlimit="10"/>
<path d="M92.362 46.181C89.6932 46.9004 86.9316 47.5501 84.0308 48.3624C80.1089 49.1746 76.187 49.9868 72.2651 49.8244C71.6153 49.8244 70.8031 49.4995 70.455 48.8497C70.2926 48.1999 70.6174 47.7126 70.9423 47.2253C73.7271 44.1156 76.8368 42.0038 80.4338 39.8688C80.9211 39.5439 81.246 39.219 81.7334 38.8941C82.0118 38.7549 82.2903 38.6156 82.592 38.4764C82.592 38.4532 82.6152 38.43 82.6848 38.4068C70.2693 40.0312 58.0395 42.9785 46.297 47.3645C40.565 49.4995 35.1811 51.9362 30.447 55.8581C27.4997 58.4804 23.7403 61.915 25.0398 66.3242C25.3647 67.4613 26.3394 68.4592 27.6622 68.7841C30.563 69.5035 32.8372 69.898 38.4532 68.9466C38.4532 68.9466 50.4974 66.9044 57.6682 64.7694C58.4572 64.5373 59.2927 64.282 59.2927 64.282C60.1977 64.0036 61.358 63.6555 62.7272 63.2145C62.8201 63.1913 62.9129 63.1449 63.0057 63.1217C63.3074 63.0289 63.6091 62.9361 63.934 62.82C63.7715 62.8665 63.6091 62.9361 63.4466 62.9825C63.1914 63.0753 62.9361 63.1449 62.704 63.2378C62.4488 63.3306 62.1935 63.4002 61.9382 63.493C60.4762 63.9572 59.0606 64.3981 57.645 64.7926C57.645 65.0015 57.6218 65.396 57.5522 65.8601C57.3665 67.6702 56.8328 69.2947 56.1366 70.7799C56.5079 70.8031 56.8792 70.8495 57.2273 70.8727C63.2842 71.244 72.3579 70.2229 83.381 62.8665C83.1025 61.3348 83.1954 59.896 83.1954 59.896C83.3346 57.6218 84.1004 55.4868 85.3536 53.4214C87.2565 50.567 89.3219 48.0143 92.1995 46.3202C91.6658 46.5523 91.6193 46.3898 92.362 46.181ZM34.1832 63.3306C31.8394 64.1196 29.5419 63.6091 29.0546 62.1935C28.5904 60.7779 30.0989 58.991 32.4659 58.2019C34.8098 57.4129 37.1072 57.9235 37.5946 59.3391C38.0819 60.7547 36.5503 62.5416 34.1832 63.3306ZM54.1408 49.5459C52.8413 49.9172 51.6345 49.6852 51.4721 49.0818C51.3096 48.4784 52.2147 47.6894 53.5374 47.3413C54.837 46.97 56.0438 47.2021 56.2062 47.8054C56.3918 48.3856 55.4636 49.1746 54.1408 49.5459ZM60.5226 56.7399C59.223 57.1112 58.0163 56.8792 57.8539 56.2758C57.6914 55.6724 58.6197 54.8834 59.9192 54.5353C61.2188 54.164 62.4255 54.3961 62.588 54.9994C62.7504 55.6028 61.8454 56.3918 60.5226 56.7399Z" stroke="black" stroke-width="0.696196" stroke-miterlimit="10"/>
<path d="M85.1217 66.9044C85.0057 67.0204 84.8897 67.1364 84.7736 67.2757C84.3327 67.6934 83.915 68.1111 83.4741 68.5056C83.4045 68.5753 83.3348 68.6449 83.242 68.7145C83.0796 68.8537 82.9171 69.0162 82.7315 69.1554C82.6386 69.2482 82.5458 69.3179 82.453 69.3875C82.3602 69.4571 82.2673 69.5499 82.1745 69.6195C82.0817 69.6892 81.9889 69.782 81.896 69.8516C81.3159 70.3157 80.7357 70.7567 80.1555 71.1744C80.0627 71.244 79.9467 71.3136 79.8539 71.3832C79.7842 71.4297 79.7146 71.4761 79.645 71.5225C79.529 71.6153 79.4129 71.6849 79.2737 71.7545C79.1577 71.8242 79.0416 71.917 78.9024 71.9866C78.7864 72.0562 78.6935 72.1259 78.5775 72.1955C78.0205 72.5436 77.4868 72.8453 76.953 73.1469C76.8602 73.1934 76.7674 73.2398 76.6978 73.2862C75.7463 73.7735 74.818 74.2144 73.8898 74.5857C73.7041 74.6554 73.4953 74.725 73.3096 74.8178C73.1008 74.8874 72.9151 74.957 72.7062 75.0267C72.5902 75.0731 72.4742 75.0963 72.3814 75.1427C72.1725 75.2123 71.9868 75.2819 71.778 75.3284C71.6155 75.3748 71.4763 75.4212 71.3139 75.4676C71.2674 75.4908 71.221 75.4908 71.1746 75.514C70.989 75.5604 70.8033 75.6068 70.6177 75.6532C70.4088 75.6997 70.1767 75.7693 69.9679 75.8157C69.759 75.8621 69.5502 75.9085 69.3413 75.9549C69.0164 76.0245 68.7147 76.071 68.3898 76.1406C68.2042 76.1638 67.9953 76.2102 67.8097 76.2334C67.6472 76.2566 67.4848 76.2798 67.3223 76.303C67.2527 76.303 67.1599 76.3262 67.0903 76.3262C66.719 76.3726 66.3709 76.3958 66.0228 76.4191C65.9067 76.4191 65.7907 76.4423 65.6747 76.4423C65.5122 76.4423 65.373 76.4655 65.2105 76.4655C65.1409 76.4655 65.0945 76.4655 65.0249 76.4655C64.5376 76.4887 64.0502 76.4887 63.5861 76.4887C63.4469 76.4887 63.3308 76.4887 63.1916 76.4887C63.0291 76.4887 62.8667 76.4887 62.7042 76.4655C62.5418 76.4655 62.3794 76.4423 62.2169 76.4423C62.0777 76.4423 61.9152 76.4191 61.776 76.4191C61.7528 76.4191 61.7528 76.4191 61.7296 76.4191C61.4975 76.3958 61.2886 76.3726 61.0566 76.3494H61.0334H61.0102C60.8013 76.3262 60.5692 76.303 60.3604 76.2798C60.2908 76.2798 60.2211 76.2566 60.1515 76.2566C60.0819 76.2566 60.0123 76.2334 59.9195 76.2334C59.7802 76.2102 59.641 76.187 59.5017 76.1638C59.4321 76.1638 59.3625 76.1406 59.2929 76.1406C59.2233 76.1406 59.1769 76.1174 59.1072 76.1174C59.1072 76.1174 59.1072 76.1174 59.084 76.1174C59.0376 76.1174 58.968 76.0942 58.9216 76.0942C58.8984 76.0942 58.8984 76.0942 58.8752 76.0942C58.8288 76.0942 58.8055 76.071 58.7591 76.071C58.6895 76.071 58.6431 76.0478 58.5735 76.0245C58.5503 76.0245 58.5039 76.0245 58.4807 76.0013C58.3646 75.9781 58.2254 75.9549 58.1094 75.9317C57.9237 75.8853 57.7381 75.8621 57.5756 75.8157C57.4596 75.7925 57.3435 75.7693 57.2275 75.7229C57.1811 75.7229 57.1347 75.6997 57.1115 75.6997C57.0883 75.6997 57.0883 75.6997 57.0651 75.6997C57.0419 75.6997 57.0186 75.6764 56.9722 75.6764H56.949C56.8794 75.6532 56.8098 75.63 56.7402 75.6068C56.717 75.6068 56.6706 75.5836 56.6473 75.5836C56.6241 75.5836 56.6009 75.5836 56.6009 75.5604C56.5545 75.5604 56.5081 75.5372 56.4617 75.514C56.4153 75.4908 56.3689 75.4908 56.3225 75.4676H56.2992C56.2528 75.4444 56.2064 75.4444 56.16 75.4212C56.16 75.4212 56.1368 75.4212 56.1136 75.4212C56.0672 75.4212 56.044 75.398 55.9976 75.398C55.9744 75.398 55.9511 75.3748 55.9279 75.3748C55.9047 75.3748 55.8815 75.3516 55.8583 75.3516C55.8351 75.3516 55.8351 75.3516 55.8119 75.3284C55.7655 75.3051 55.6959 75.3051 55.6495 75.2819C55.6263 75.2819 55.6263 75.2819 55.6031 75.2587C55.5566 75.2355 55.5102 75.2355 55.487 75.2123C55.4406 75.1891 55.3942 75.1891 55.371 75.1659C55.3478 75.1659 55.3478 75.1659 55.3246 75.1659C55.255 75.1427 55.1621 75.1195 55.0925 75.0963C55.0693 75.0963 55.0461 75.0731 55.0229 75.0731C54.9533 75.0499 54.8604 75.0267 54.7908 74.9803C54.698 74.957 54.6284 74.9106 54.5588 74.8874C54.4195 74.841 54.2803 74.7714 54.1875 74.725C54.1642 74.725 54.141 74.7018 54.1178 74.7018C54.0946 74.6786 54.0714 74.6786 54.025 74.6554C54.0018 74.6554 53.9786 74.6322 53.9554 74.6322C53.909 74.6089 53.8626 74.5857 53.8394 74.5857C53.9786 74.3769 54.141 74.1912 54.2803 73.9824C54.3267 73.9127 54.3731 73.8431 54.4195 73.7735C54.4659 73.7039 54.5356 73.6111 54.582 73.5414C55.1157 72.7292 55.6495 71.8474 56.0904 70.8727C56.4385 70.8959 56.833 70.9423 57.1811 70.9655C63.238 71.3368 72.3117 70.3157 83.3116 62.9593V63.0057C83.3348 63.0753 83.3348 63.1449 83.358 63.2145V63.2378C83.6365 64.166 84.2399 65.4424 85.1217 66.9044Z" fill="#F4B537" stroke="black" stroke-width="0.696196" stroke-miterlimit="10"/>
<path d="M82.5918 38.4766C82.6383 38.4533 82.7082 38.4301 82.7547 38.4068C82.7314 38.4068 82.7082 38.4068 82.6616 38.4301" stroke="black" stroke-width="0.696196" stroke-miterlimit="10"/>
<path d="M92.4547 46.1345C92.3619 46.1809 92.2691 46.2506 92.1763 46.297" stroke="black" stroke-width="0.696196" stroke-miterlimit="10"/>
<path d="M40.8213 85.3536C40.7969 85.3536 40.7969 85.378 40.7969 85.378" stroke="black" stroke-width="0.696196" stroke-miterlimit="10"/>
<path d="M55.6494 98.7669C55.6494 98.9062 55.6494 99.0686 55.6262 99.2311C55.6262 99.2775 55.6262 99.3007 55.6262 99.3471C55.6262 99.3703 55.6262 99.3703 55.6262 99.3935C55.6262 99.4167 55.6262 99.4399 55.6262 99.4631C55.6262 99.5327 55.603 99.6024 55.603 99.672C55.603 99.6952 55.603 99.7416 55.5798 99.7648C55.5798 99.788 55.5798 99.8112 55.5798 99.8344C55.5798 99.8808 55.5566 99.9505 55.5566 99.9969C55.5566 100.043 55.5334 100.113 55.5334 100.159C55.4405 100.577 55.3245 101.041 55.1853 101.528C54.814 102.689 54.257 104.081 53.4448 105.752C53.3287 105.984 53.2127 106.239 53.0735 106.471C53.0038 106.588 52.9342 106.727 52.8878 106.843C52.8414 106.936 52.795 107.005 52.7486 107.098C52.7254 107.144 52.7022 107.191 52.679 107.214C52.5397 107.469 52.4005 107.748 52.238 108.003C52.1684 108.142 52.0988 108.282 52.006 108.421C51.9596 108.514 51.9131 108.606 51.8435 108.699C51.7971 108.792 51.7275 108.885 51.6811 108.978C51.6347 109.071 51.565 109.163 51.5186 109.256C51.4722 109.349 51.4026 109.442 51.3562 109.558C51.2634 109.697 51.1937 109.86 51.1009 109.999C51.0777 110.045 51.0545 110.092 51.0081 110.138C50.9617 110.231 50.8921 110.347 50.8224 110.44C50.7528 110.533 50.7064 110.649 50.6368 110.741C50.5672 110.834 50.5207 110.95 50.4511 111.043C50.3583 111.206 50.3119 111.275 50.2887 111.322C50.2655 111.368 50.2191 111.438 50.1727 111.531C50.0566 111.716 50.0566 111.739 50.0334 111.763C49.9638 111.832 49.871 111.995 49.8013 111.971C49.7549 111.948 49.8013 111.786 49.7317 111.531C49.7085 111.461 49.6853 111.391 49.6853 111.368C49.6389 111.229 49.5925 111.066 49.5461 110.881V110.858V110.811C49.2212 109.674 48.6642 107.771 47.9448 105.427C47.3415 103.431 46.5988 101.111 45.7866 98.6509C45.7866 98.6509 54.8604 93.3366 55.6262 98.0011C55.6262 98.0475 55.6262 98.0707 55.6494 98.1171C55.6494 98.1403 55.6494 98.1636 55.6494 98.1868C55.6494 98.21 55.6494 98.2332 55.6494 98.2796C55.6494 98.3028 55.6494 98.3028 55.6494 98.326V98.3492C55.6494 98.3956 55.6494 98.442 55.6494 98.4884C55.6494 98.5116 55.6494 98.5117 55.6494 98.5349C55.6494 98.6741 55.6494 98.7205 55.6494 98.7669Z" fill="#033249" stroke="black" stroke-width="0.696196" stroke-miterlimit="10"/>
<path d="M49.8011 111.948L45.7632 98.7437C47.9214 105.288 49.4994 110.904 49.8011 111.948Z" stroke="black" stroke-width="0.696196" stroke-miterlimit="10"/>
<path d="M83.5438 62.7272C83.4972 62.7505 83.4274 62.8203 83.3809 62.8436" stroke="black" stroke-width="0.696196" stroke-miterlimit="10"/>
<path d="M56.1364 70.7799C56.0435 70.7799 55.9971 70.7567 55.9043 70.7567" stroke="black" stroke-width="0.696196" stroke-miterlimit="10"/>
<path d="M85.1689 66.8579C85.1452 66.8816 85.1452 66.8816 85.1216 66.9053" stroke="black" stroke-width="0.696196" stroke-miterlimit="10"/>
<path d="M53.8626 74.5163C53.7928 74.493 53.7695 74.4697 53.7695 74.4697" stroke="black" stroke-width="0.696196" stroke-miterlimit="10"/>
<path d="M58.8517 85.5392C61.3381 85.5392 63.3537 83.7106 63.3537 81.4549C63.3537 79.1991 61.3381 77.3705 58.8517 77.3705C56.3653 77.3705 54.3496 79.1991 54.3496 81.4549C54.3496 83.7106 56.3653 85.5392 58.8517 85.5392Z" fill="#F4B537" stroke="black" stroke-width="0.696196" stroke-miterlimit="10"/>
<path d="M28.5212 106.796L26.8735 110.556" stroke="black" stroke-width="0.696196" stroke-miterlimit="10"/>
<path d="M30.3079 110.393L28.521 106.796" stroke="black" stroke-width="0.696196" stroke-miterlimit="10"/>
<path d="M15.1072 104.847H10.373" stroke="black" stroke-width="0.696196" stroke-miterlimit="10"/>
<path d="M14.9452 106.796L10.8608 107.771" stroke="black" stroke-width="0.696196" stroke-miterlimit="10"/>
<path d="M37.0146 103.687L40.2868 102.712" stroke="black" stroke-width="0.696196" stroke-miterlimit="10"/>
<path d="M37.6641 105.822L40.7737 106.309" stroke="black" stroke-width="0.696196" stroke-miterlimit="10"/>
<path d="M54.1407 49.5459C52.8411 49.9172 51.6344 49.6851 51.472 49.0818C51.3095 48.4784 52.2146 47.6894 53.5373 47.3413C54.8369 46.97 56.0436 47.2021 56.2061 47.8054C56.3917 48.3856 55.4635 49.1746 54.1407 49.5459Z" fill="black" stroke="black" stroke-width="0.696196" stroke-miterlimit="10"/>
<path d="M60.5226 56.7399C59.2231 57.1112 58.0163 56.8792 57.8539 56.2758C57.6915 55.6724 58.6197 54.8834 59.9193 54.5353C61.2189 54.164 62.4256 54.3961 62.588 54.9994C62.7505 55.6028 61.8454 56.3918 60.5226 56.7399Z" fill="black" stroke="black" stroke-width="0.696196" stroke-miterlimit="10"/>
<path d="M34.1832 63.3306C31.8393 64.1196 29.5419 63.609 29.0545 62.1935C28.5904 60.7779 30.0988 58.991 32.4659 58.2019C34.8097 57.4129 37.1072 57.9235 37.5945 59.339C38.0819 60.7546 36.5502 62.5415 34.1832 63.3306Z" fill="black" stroke="black" stroke-width="0.696196" stroke-miterlimit="10"/>
<path d="M46.7149 116.613C46.7149 116.613 46.7149 116.59 46.7381 116.59C46.7149 116.659 46.6917 116.729 46.6685 116.798C46.6917 116.706 46.7149 116.659 46.7149 116.613Z" stroke="black" stroke-width="0.696196" stroke-miterlimit="10"/>
<path d="M96.9339 45.392V79.784C91.3875 75.0499 87.3032 70.455 85.1218 66.9044C84.2167 65.4424 83.6598 64.166 83.4277 63.1217V63.0985C83.4045 63.0289 83.4045 62.9825 83.3813 62.9129V62.8665C83.3813 62.8665 83.3813 62.8665 83.3813 62.8433V62.8201C83.242 61.9614 83.1956 61.1492 83.1724 60.5922C83.1724 60.4298 83.1724 60.3137 83.1724 60.1977C83.1724 60.0121 83.1724 59.896 83.1724 59.896C83.3117 57.6218 84.0775 55.4868 85.3306 53.4214C87.2336 50.567 89.2989 48.0143 92.1766 46.3202C92.2694 46.2738 92.3622 46.2274 92.455 46.1578C92.4318 46.1578 92.4318 46.1578 92.4086 46.1578H92.3854C89.7167 46.8772 86.9551 47.527 84.0543 48.3392C80.1324 49.1514 76.2105 49.9636 72.2886 49.8012C71.6388 49.8012 70.8266 49.4763 70.4785 48.8265C70.316 48.1767 70.6409 47.6894 70.9658 47.2021C73.7506 44.0924 76.8603 41.9806 80.4573 39.8456C80.9446 39.5207 81.2695 39.1958 81.7568 38.8709C82.0353 38.7317 82.3138 38.5924 82.6155 38.4532C82.6155 38.4764 82.6387 38.4532 82.7779 38.3836C82.7547 38.3836 82.7547 38.3836 82.7315 38.3836C82.7083 38.3836 82.7083 38.3836 82.6851 38.4068C82.6619 38.4068 82.6619 38.4068 82.6387 38.4068C70.2232 40.0312 58.0166 42.9785 46.2973 47.3645C40.5653 49.4995 35.1814 51.9362 30.4472 55.8581C27.9873 58.0395 24.9705 60.7779 24.7848 64.1892C24.7848 64.3749 24.7848 64.5373 24.7848 64.723C24.808 65.2335 24.8777 65.7673 25.0401 66.3242C25.365 67.4613 26.3397 68.4592 27.6624 68.7841C30.5633 69.5035 32.8375 69.898 38.4535 68.9466C38.4535 68.9466 38.4535 68.9466 38.4767 68.9466H38.4999C38.5927 68.9234 38.7784 68.9002 39.0336 68.8537C39.0568 68.8537 39.1265 68.8305 39.1497 68.8305C39.1729 68.8305 39.2193 68.8073 39.2425 68.8073C39.3121 68.7841 39.3817 68.7841 39.4746 68.7841C39.4978 68.7841 39.4978 68.7841 39.521 68.7609C39.5674 68.7377 39.6138 68.7377 39.6602 68.7377H39.6834C39.753 68.7145 39.8227 68.7145 39.8923 68.7145C40.0315 68.6913 40.194 68.6681 40.3564 68.6217C40.4028 68.6217 40.4492 68.5985 40.4956 68.5985C40.7509 68.5521 41.0294 68.5056 41.3079 68.4592C41.9809 68.3432 42.7467 68.204 43.5589 68.0415C43.6053 68.0183 43.6517 68.0183 43.6981 68.0183C44.4408 67.8791 45.253 67.7166 46.0884 67.5542C46.1812 67.531 46.2973 67.531 46.3901 67.4846C46.4133 67.4846 46.4133 67.4846 46.4597 67.4614C47.9681 67.1597 49.5694 66.8348 51.1474 66.4403C51.1938 66.4403 51.2403 66.4171 51.2867 66.3939C51.3795 66.3707 51.4491 66.3474 51.5419 66.3242C51.8668 66.2314 52.1917 66.185 52.5398 66.0922C52.7951 66.0458 53.004 65.9761 53.2592 65.9297C53.3521 65.9065 53.4449 65.8833 53.5377 65.8601C53.6769 65.8369 53.793 65.7905 53.9322 65.7673C53.9554 65.7441 54.025 65.7441 54.0482 65.7441C54.2107 65.6977 54.3963 65.6512 54.5588 65.6048C54.698 65.5816 54.8605 65.512 54.9997 65.4888C55.1157 65.4656 55.2318 65.4192 55.3478 65.396C55.4638 65.3728 55.5799 65.3264 55.6727 65.3031C56.3457 65.1175 56.9723 64.9318 57.5756 64.7694C57.5756 64.9783 57.5524 65.3728 57.4828 65.8369C57.3668 66.858 57.1579 67.8095 56.8794 68.7145C56.833 68.9002 56.7634 69.0858 56.6938 69.2715C56.5081 69.7588 56.3225 70.2461 56.1136 70.7103C56.1136 70.7103 56.1136 70.7335 56.0904 70.7335C56.0904 70.7335 56.0904 70.7335 56.0904 70.7567C55.6495 71.7081 55.139 72.59 54.6052 73.4022C54.5588 73.495 54.4892 73.5647 54.4428 73.6343C54.3963 73.7039 54.3499 73.7735 54.3035 73.8431C54.1643 74.052 54.0018 74.2609 53.8626 74.4465C53.8626 74.4465 53.8626 74.4465 53.8394 74.4697C53.6305 74.7482 53.4217 75.0267 53.2128 75.2819C53.0736 75.4444 52.9343 75.6301 52.7951 75.7925C52.7719 75.8157 52.7487 75.8389 52.7255 75.8853C52.7023 75.9085 52.6559 75.9549 52.6327 75.9781C52.6094 76.0014 52.5862 76.0246 52.563 76.071C52.5398 76.0942 52.4934 76.1406 52.4702 76.1638L52.447 76.187C52.4238 76.2102 52.4006 76.2334 52.3774 76.2566C52.3542 76.2798 52.331 76.3262 52.2846 76.3494C52.2381 76.3959 52.1917 76.4423 52.1453 76.4887C52.0989 76.5351 52.0525 76.5815 52.0061 76.6279C52.0061 76.6279 51.9829 76.6279 51.9829 76.6511C51.7508 76.8832 51.5419 77.1153 51.3331 77.3241C51.2635 77.3937 51.2171 77.4402 51.1474 77.5098C51.0082 77.649 50.869 77.7883 50.7297 77.9043C50.6833 77.9507 50.6601 77.9739 50.6137 77.9971C50.5673 78.0435 50.5209 78.0899 50.4744 78.1364C50.4512 78.1596 50.428 78.1828 50.3816 78.206C50.3816 78.206 50.3584 78.206 50.3584 78.2292C50.3352 78.2524 50.2888 78.2988 50.2656 78.322C50.2424 78.3452 50.196 78.3916 50.1728 78.4148L50.1496 78.438C50.1263 78.4612 50.1031 78.4845 50.0799 78.4845C50.0567 78.5077 50.0567 78.5077 50.0335 78.5309C50.0103 78.5541 49.9639 78.5773 49.9407 78.6005C49.9175 78.6237 49.9175 78.6237 49.8943 78.6469C49.8711 78.6701 49.8479 78.6933 49.8247 78.6933C49.8247 78.6933 49.8015 78.6933 49.8015 78.7165C49.7783 78.7397 49.7782 78.7397 49.755 78.7629C49.7086 78.7861 49.6854 78.8325 49.639 78.8558C49.6158 78.879 49.5926 78.9022 49.5694 78.9254C48.6643 79.7376 47.8985 80.2946 46.4597 81.3853C44.1855 83.1025 42.2129 84.3789 40.8437 85.2375C40.8437 85.2375 40.8437 85.2375 40.8205 85.2375C40.8205 85.2143 40.7973 85.2143 40.7973 85.2143C40.7509 85.1215 34.7172 73.2398 30.9114 73.0773C30.8417 73.0773 30.7953 73.0773 30.7257 73.0773C30.7025 73.0773 30.6793 73.0773 30.6561 73.0773C30.5633 73.0773 30.4936 73.1005 30.4008 73.1237C29.0084 73.495 28.2194 75.6533 26.9895 79.0878C26.1076 81.5477 26.1308 82.7312 24.8545 83.7755C23.6013 84.7966 21.9768 84.9127 20.9558 84.9823C20.9326 84.9823 20.8861 84.9823 20.8629 84.9823C20.8165 84.9823 20.7933 84.9823 20.7469 84.9823C20.6773 84.9823 20.5845 84.9823 20.5148 85.0055C20.2828 85.0287 20.0275 85.0287 19.7722 85.0287C19.7026 85.0287 19.633 85.0287 19.5634 85.0287C19.517 85.0287 19.4705 85.0287 19.4473 85.0287C19.4009 85.0287 19.3545 85.0287 19.3313 85.0287C19.2849 85.0287 19.2385 85.0287 19.2153 85.0055C19.1224 85.0055 19.0528 84.9823 18.96 84.9823C18.4727 84.9127 17.9389 84.7734 17.4284 84.5181C16.2448 83.9612 15.5022 83.0561 15.0381 82.3599C14.8757 82.1279 14.7596 81.8958 14.6436 81.7334C13.6921 80.1553 10.0719 74.7018 8.14576 74.5393C8.09935 74.5393 8.05294 74.5393 8.02973 74.5393H8.00653C7.98332 74.5393 7.98332 74.5393 7.96011 74.5393C3.66691 75.0731 5.0593 114.222 4.82723 115.893C4.82723 115.94 4.75761 116.311 4.78082 116.798C4.78082 116.845 4.78082 116.891 4.78082 116.938V116.961C4.78082 117.054 4.80403 117.1 4.80403 117.193C4.73441 117.17 4.66479 117.147 4.61837 117.123C3.9918 116.798 2.62261 115.986 1.60153 114.339C0.534028 112.668 0.417995 111.066 0.371582 110.37V45.392C0.371582 45.1831 0.394789 44.9278 0.394789 44.719C0.394789 44.5101 0.417995 44.2548 0.417995 44.0692C0.441202 43.4194 0.580441 42.3519 1.11419 41.1684C1.69435 39.9152 2.48337 39.0798 2.97071 38.6157L42.4682 2.62235C45.7635 -0.394501 51.1938 -0.394501 54.4892 2.62235L94.0331 38.6389C94.474 39.0566 95.031 39.6599 95.5415 40.4954C96.0288 41.3076 96.3073 42.0502 96.4698 42.6304C96.5858 43.0249 96.7018 43.4658 96.7946 43.9764C96.8875 44.4869 96.9339 44.9742 96.9339 45.392Z" fill="#033249" stroke="black" stroke-width="0.696196" stroke-miterlimit="10"/>
<path d="M49.7316 111.716C49.7316 111.716 49.7084 111.67 49.7084 111.6C49.7084 111.554 49.6852 111.531 49.6852 111.507C49.6156 111.322 49.5692 111.159 49.4995 110.974L49.4763 110.927V110.904V110.858L45.7401 98.6973C44.2781 94.2881 42.5608 89.4379 40.7971 85.3071C40.7971 85.3071 40.7971 85.3071 40.8203 85.2839C40.8203 85.2839 40.8203 85.2839 40.8435 85.2839C40.7971 85.1911 34.9259 73.6575 31.12 73.1469C31.0504 73.1469 31.004 73.1237 30.9343 73.1237C30.8647 73.1237 30.8183 73.1237 30.7487 73.1237C30.7255 73.1237 30.7023 73.1237 30.6791 73.1237C30.6094 73.1237 30.5166 73.1469 30.447 73.1701C29.0546 73.5414 28.2656 75.6996 27.0356 79.1342C26.1538 81.5941 26.177 82.7776 24.9006 83.8219C23.6475 84.843 22.023 84.959 21.0019 85.0287C20.9555 85.0287 20.9323 85.0287 20.8859 85.0287C20.8395 85.0287 20.8163 85.0287 20.7699 85.0287C20.7003 85.0287 20.6074 85.0287 20.5378 85.0519C20.3057 85.0751 20.0505 85.0751 19.7952 85.0751C19.7256 85.0751 19.656 85.0751 19.5863 85.0751C19.5399 85.0751 19.4935 85.0751 19.4703 85.0751C19.4239 85.0751 19.3775 85.0751 19.3543 85.0751C19.3079 85.0751 19.2615 85.0751 19.2382 85.0519C19.1454 85.0519 19.0758 85.0287 18.983 85.0287C18.8669 85.0055 18.7277 84.9823 18.6117 84.959C18.2404 84.8662 17.8459 84.7502 17.4746 84.5645C16.2678 84.0076 15.5484 83.0793 15.0611 82.3831C14.8986 82.1511 14.7826 81.9422 14.6898 81.7798C13.7151 80.2017 10.0949 74.725 8.16874 74.5857C8.12233 74.5857 8.07591 74.5857 8.05271 74.5857H8.0295H8.00629C3.71309 75.1195 5.10548 114.269 4.87341 115.94C4.87341 115.986 4.8038 116.357 4.827 116.845C4.827 116.891 4.827 116.938 4.827 116.984V117.007C4.827 117.1 4.85021 117.146 4.85021 117.239C5.05907 117.332 5.33754 117.402 5.63923 117.495C6.19619 117.68 6.47466 117.75 6.77635 117.819C7.03162 117.866 7.37972 117.912 8.07591 117.982C8.42401 118.005 8.70249 118.052 8.88814 118.075H34.8098C34.833 118.098 34.9026 118.121 34.9491 118.168C36.2022 118.98 39.8224 121.3 44.9743 122.02C46.1346 122.182 47.6894 122.322 49.546 122.205C49.2443 122.136 48.9426 122.043 48.6641 121.881C48.6177 121.857 48.5481 121.811 48.5017 121.788C48.4785 121.765 48.4552 121.765 48.432 121.741C48.4088 121.718 48.3392 121.695 48.316 121.649C47.7823 121.3 47.3878 120.883 47.1093 120.465C47.0861 120.442 47.0629 120.395 47.0397 120.372C46.9932 120.279 46.9468 120.233 46.9004 120.14C46.8772 120.117 46.8772 120.071 46.854 120.024C46.8308 120.001 46.8308 119.954 46.8076 119.931C46.7844 119.838 46.738 119.769 46.7148 119.676V119.653C46.6916 119.583 46.6684 119.514 46.6451 119.444C46.6219 119.421 46.6219 119.351 46.6219 119.328C46.5987 119.305 46.5987 119.235 46.5987 119.212C46.5987 119.189 46.5755 119.142 46.5755 119.119C46.5523 119.073 46.5523 119.026 46.5523 118.98C46.5291 118.887 46.5291 118.817 46.5291 118.748C46.5059 118.585 46.5059 118.446 46.5059 118.33V118.144C46.5059 118.075 46.5059 118.005 46.5291 117.959C46.5523 117.657 46.6219 117.355 46.7148 117.054C46.738 117.007 46.738 116.961 46.7612 116.891C46.7844 116.845 46.7844 116.798 46.8076 116.752C46.854 116.59 46.9236 116.45 46.97 116.288C46.9932 116.241 47.0164 116.195 47.0397 116.149C47.0397 116.149 47.0397 116.125 47.0629 116.125C47.0861 116.102 47.0861 116.056 47.1093 116.033C47.411 115.383 47.8055 114.756 48.2 114.199C48.2696 114.106 48.3392 114.014 48.3856 113.944C48.4553 113.851 48.5249 113.782 48.5713 113.689C48.6409 113.596 48.7105 113.503 48.7801 113.41C48.7801 113.41 48.7801 113.41 48.8034 113.387C48.8498 113.317 48.9194 113.248 48.9658 113.178C49.0122 113.109 49.0818 113.062 49.1282 112.993C49.1514 112.946 49.1979 112.923 49.2211 112.876C49.2675 112.83 49.2907 112.784 49.3371 112.76C49.3835 112.714 49.4299 112.668 49.4531 112.644C49.4531 112.644 49.4531 112.644 49.4763 112.621C49.4995 112.598 49.5924 112.505 49.7316 112.366C49.778 112.273 49.8476 112.18 49.8941 112.064C49.7548 111.855 49.7316 111.763 49.7316 111.716ZM30.9111 94.4737C32.6284 94.4737 34.0208 95.8661 34.0208 97.5834C34.0208 99.3007 32.6284 100.693 30.9111 100.693C29.1938 100.693 27.8015 99.3007 27.8015 97.5834C27.8015 95.8661 29.1938 94.4737 30.9111 94.4737ZM25.0399 103.803C26.85 102.991 29.4491 103.478 30.1221 104.104C30.7951 104.731 28.4744 106.75 28.4744 106.75C28.4744 106.75 23.2298 104.615 25.0399 103.803ZM19.3079 95.2859C21.0251 95.2859 22.4175 96.6783 22.4175 98.3956C22.4175 100.113 21.0251 101.505 19.3079 101.505C17.5906 101.505 16.1982 100.113 16.1982 98.3956C16.1982 96.6783 17.5906 95.2859 19.3079 95.2859ZM51.3793 122.136C51.0312 122.182 50.6367 122.252 50.1261 122.229C49.8476 122.229 49.6156 122.206 49.4299 122.182C49.8244 122.229 50.3582 122.252 50.9384 122.182C51.3329 122.136 51.6577 122.066 51.9594 121.997C52.1915 121.95 52.4004 121.904 52.6324 121.857C52.1451 121.997 51.7042 122.066 51.3793 122.136Z" fill="#F4B537" stroke="black" stroke-width="0.696196" stroke-miterlimit="10"/>
<path d="M28.521 106.796C28.521 106.796 23.2995 104.661 25.0864 103.849C26.8965 103.037 29.4957 103.524 30.1686 104.151C30.8416 104.777 28.521 106.796 28.521 106.796Z" fill="black" stroke="black" stroke-width="0.696196" stroke-miterlimit="10"/>
<path d="M30.9573 94.5434C29.24 94.5434 27.8477 95.9358 27.8477 97.653C27.8477 99.3703 29.24 100.763 30.9573 100.763C32.6746 100.763 34.067 99.3703 34.067 97.653C34.067 95.9358 32.6746 94.5434 30.9573 94.5434ZM31.5375 98.7902C30.5164 98.7902 29.6578 97.9315 29.6578 96.9104C29.6578 95.8894 30.5164 95.0307 31.5375 95.0307C32.5586 95.0307 33.4172 95.8894 33.4172 96.9104C33.4172 97.9315 32.5586 98.7902 31.5375 98.7902Z" stroke="black" stroke-width="0.696196" stroke-miterlimit="10"/>
<path d="M31.5379 98.7901C32.5761 98.7901 33.4177 97.9486 33.4177 96.9104C33.4177 95.8723 32.5761 95.0307 31.5379 95.0307C30.4998 95.0307 29.6582 95.8723 29.6582 96.9104C29.6582 97.9486 30.4998 98.7901 31.5379 98.7901Z" fill="black" stroke="black" stroke-width="0.696196" stroke-miterlimit="10"/>
<path d="M19.3538 95.3556C17.6365 95.3556 16.2441 96.748 16.2441 98.4652C16.2441 100.183 17.6365 101.575 19.3538 101.575C21.0711 101.575 22.4635 100.183 22.4635 98.4652C22.4635 96.748 21.0711 95.3556 19.3538 95.3556ZM20.0036 99.4399C19.0057 99.4399 18.1935 98.6277 18.1935 97.6298C18.1935 96.6319 19.0057 95.8197 20.0036 95.8197C21.0015 95.8197 21.8137 96.6319 21.8137 97.6298C21.8137 98.6509 21.0015 99.4399 20.0036 99.4399Z" stroke="black" stroke-width="0.696196" stroke-miterlimit="10"/>
<path d="M20.004 99.4631C21.0036 99.4631 21.8141 98.6527 21.8141 97.653C21.8141 96.6533 21.0036 95.8429 20.004 95.8429C19.0043 95.8429 18.1938 96.6533 18.1938 97.653C18.1938 98.6527 19.0043 99.4631 20.004 99.4631Z" fill="black" stroke="black" stroke-width="0.696196" stroke-miterlimit="10"/>
<path d="M14.9919 105.218H10.2578" stroke="black" stroke-width="0.696196" stroke-miterlimit="10"/>
<path d="M14.829 107.191L10.7446 108.166" stroke="black" stroke-width="0.696196" stroke-miterlimit="10"/>
<path d="M36.7593 104.104L40.0314 103.13" stroke="black" stroke-width="0.696196" stroke-miterlimit="10"/>
<path d="M37.4092 106.239L40.5189 106.727" stroke="black" stroke-width="0.696196" stroke-miterlimit="10"/>
<path d="M24.3438 108.746C27.5462 110.556 28.3353 106.936 28.3353 106.936C28.3353 106.936 29.0083 109.883 31.677 108.746" stroke="black" stroke-width="0.696196" stroke-miterlimit="10"/>
<path d="M41.3076 68.552C41.0523 68.9929 39.5903 70.9655 39.5903 72.4275C39.5903 73.8895 40.0777 75.3051 41.3076 75.0034C42.5376 74.7017 43.8371 75.0266 46.1346 71.4296C48.432 67.8326 52.2379 66.2778 52.2379 66.2778L41.3076 68.552Z" fill="#F4B537" stroke="black" stroke-width="0.696196" stroke-miterlimit="10"/>
</svg>
