<svg width="144" height="181" viewBox="0 0 144 181" fill="none" xmlns="http://www.w3.org/2000/svg">
<path d="M86.8898 125.984C90.5444 125.984 93.5071 123.299 93.5071 119.986C93.5071 116.674 90.5444 113.989 86.8898 113.989C83.2351 113.989 80.2725 116.674 80.2725 119.986C80.2725 123.299 83.2351 125.984 86.8898 125.984Z" fill="white" stroke="black" stroke-width="0.696196" stroke-miterlimit="10"/>
<path d="M142.898 67.8458V117.533C134.745 110.581 128.742 103.833 125.536 98.6191C113.154 111.262 100.226 113.239 91.2553 112.523H91.2212C91.1188 112.523 90.9824 112.489 90.8801 112.489C90.8119 112.489 90.7777 112.489 90.7095 112.489C90.539 112.489 90.3684 112.455 90.232 112.455C90.232 112.455 90.232 112.455 90.1979 112.455H90.1638C89.8568 112.421 89.5157 112.387 89.2087 112.353C89.1064 112.353 89.004 112.319 88.9017 112.319C88.7994 112.319 88.697 112.285 88.5606 112.285C88.3559 112.251 88.1513 112.217 87.9466 112.182C87.8443 112.182 87.742 112.148 87.6396 112.148C87.5373 112.148 87.435 112.114 87.3326 112.114C87.2644 112.114 87.1621 112.08 87.0939 112.08C87.0598 112.08 87.0598 112.08 87.0257 112.08C86.9574 112.08 86.9233 112.046 86.8551 112.046C86.7528 112.012 86.6163 112.012 86.514 111.978C86.3776 111.944 86.2752 111.944 86.1729 111.91C86.0706 111.876 86.0023 111.876 85.9 111.842C85.6271 111.774 85.3543 111.739 85.1155 111.671C84.9449 111.637 84.7744 111.603 84.6038 111.535C84.5356 111.535 84.4674 111.501 84.4333 111.501C84.3992 111.501 84.3992 111.501 84.3651 111.501C84.331 111.501 84.2969 111.467 84.2286 111.467H84.1945C84.1604 111.467 84.1263 111.467 84.1263 111.433C84.0581 111.399 83.9558 111.399 83.8875 111.365C83.8534 111.365 83.7852 111.331 83.7511 111.331C83.717 111.331 83.6829 111.331 83.6829 111.296C83.6147 111.262 83.5464 111.262 83.4782 111.228C83.41 111.194 83.3418 111.194 83.2736 111.16H83.2394C83.1712 111.126 83.103 111.126 83.0348 111.092C83.0007 111.092 83.0007 111.092 82.9666 111.092C82.9324 111.092 82.8642 111.058 82.8301 111.058C82.796 111.058 82.7619 111.024 82.7278 111.024C82.6937 111.024 82.6596 110.99 82.6255 110.99C82.5914 110.99 82.5914 110.99 82.5572 110.956C82.489 110.922 82.3867 110.922 82.3185 110.887C82.2844 110.887 82.2844 110.887 82.2503 110.853C82.182 110.819 82.1138 110.819 82.0797 110.785C82.0115 110.751 81.9433 110.751 81.8409 110.717C81.7386 110.683 81.6022 110.649 81.4998 110.615C81.4657 110.615 81.4316 110.581 81.3975 110.581C81.2952 110.547 81.1587 110.513 81.0564 110.444C80.92 110.41 80.8176 110.342 80.7153 110.308C80.5107 110.24 80.306 110.138 80.1695 110.07C80.1354 110.07 80.1013 110.036 80.0672 110.036C80.0331 110.001 79.999 110.001 79.9308 109.967C79.8967 109.967 79.8626 109.933 79.8284 109.933C79.7602 109.899 79.692 109.865 79.6579 109.865C79.4191 110.172 79.1804 110.479 78.9757 110.751C78.8051 110.956 78.6687 111.126 78.4982 111.331C78.3958 111.467 78.2935 111.569 78.1912 111.671C78.1571 111.705 78.1571 111.739 78.1229 111.739C78.0888 111.808 78.0206 111.876 77.9524 111.91C77.9183 111.944 77.8501 112.012 77.816 112.046C77.7819 112.08 77.7477 112.114 77.7136 112.182C77.6795 112.217 77.6113 112.285 77.5772 112.319C77.5772 112.319 77.5772 112.319 77.5772 112.353C77.5431 112.387 77.509 112.455 77.4408 112.489C77.4066 112.523 77.3725 112.557 77.3384 112.591C77.3384 112.591 77.3384 112.591 77.3043 112.626C77.2361 112.694 77.1679 112.762 77.0996 112.83L77.0655 112.864C76.9973 112.932 76.9291 113 76.8609 113.069C76.8609 113.069 76.8609 113.069 76.8268 113.103C76.4857 113.443 76.1787 113.784 75.8717 114.091C75.7694 114.193 75.7011 114.261 75.5988 114.364C75.3942 114.568 75.1895 114.772 74.9848 114.943C74.9166 114.977 74.8825 115.045 74.8143 115.079C74.7461 115.147 74.6778 115.216 74.6096 115.284C74.5755 115.318 74.5073 115.386 74.4732 115.42C74.4391 115.454 74.3709 115.522 74.3367 115.556C74.3026 115.59 74.2344 115.659 74.2003 115.693C74.2003 115.693 74.2003 115.693 74.1662 115.693C74.1321 115.727 74.098 115.761 74.0639 115.795L74.0298 115.829C73.9956 115.863 73.9274 115.931 73.8933 115.965C73.8592 115.965 73.8592 115.999 73.8251 116.033C73.791 116.067 73.791 116.067 73.7569 116.102L73.7228 116.136C73.6887 116.17 73.6887 116.17 73.6545 116.204C73.5863 116.238 73.5522 116.306 73.484 116.34C73.4499 116.374 73.4158 116.408 73.3817 116.442C72.0514 117.635 70.9258 118.453 68.8109 120.055C65.4682 122.577 62.5688 124.485 60.5563 125.712H60.5222C60.761 126.291 60.9998 126.871 61.2385 127.45C61.375 127.757 61.4773 128.029 61.6137 128.336C61.7502 128.643 61.8525 128.915 61.9889 129.222C62.0572 129.426 62.1595 129.631 62.2277 129.835C62.4665 130.449 62.7052 131.062 62.944 131.676C63.1146 132.085 63.251 132.494 63.4216 132.903C63.4898 133.107 63.5921 133.311 63.6603 133.516C63.8309 133.925 63.9673 134.334 64.1379 134.777C64.5131 135.833 64.9224 136.89 65.2976 137.912C65.5364 138.628 65.8093 139.343 66.048 140.059C66.1504 140.332 66.2186 140.57 66.3209 140.843C66.5597 141.559 66.7984 142.24 67.0372 142.956C67.3101 143.774 67.583 144.592 67.8559 145.409C67.8559 145.409 74.712 141.388 79.0098 141.661C79.078 141.661 79.1462 141.661 79.2145 141.661C79.2486 141.661 79.3168 141.661 79.3509 141.661C79.4191 141.661 79.4532 141.661 79.5215 141.695C79.5897 141.695 79.6579 141.729 79.7261 141.729C79.7602 141.729 79.7602 141.729 79.7943 141.729C79.8285 141.729 79.8626 141.729 79.8626 141.763C79.9308 141.763 79.9649 141.797 80.0331 141.797C80.0672 141.797 80.1013 141.797 80.1354 141.831C80.1695 141.831 80.2037 141.865 80.2719 141.865C80.306 141.865 80.3401 141.899 80.3742 141.899C80.4083 141.899 80.4765 141.933 80.5106 141.968C80.5448 142.002 80.613 142.002 80.6471 142.036C80.7494 142.07 80.8517 142.138 80.92 142.172C80.9541 142.206 81.0223 142.24 81.0564 142.274C81.0905 142.308 81.1246 142.308 81.1587 142.342C81.1928 142.376 81.227 142.376 81.2611 142.411C81.2952 142.445 81.3293 142.445 81.3634 142.479C81.3975 142.513 81.4316 142.547 81.4657 142.547C81.4998 142.581 81.5339 142.615 81.5681 142.649C81.6022 142.683 81.6363 142.717 81.6704 142.785C81.7045 142.819 81.7386 142.854 81.7727 142.922C81.8068 142.956 81.8409 142.99 81.8409 143.024C81.8409 143.024 81.8409 143.024 81.875 143.058C81.9092 143.092 81.9433 143.16 81.9433 143.194C81.9774 143.228 81.9774 143.297 82.0115 143.331C82.0456 143.399 82.0797 143.467 82.1138 143.535C82.1479 143.569 82.1479 143.637 82.182 143.671C82.2161 143.74 82.2161 143.808 82.2503 143.842C82.2844 143.91 82.2844 143.978 82.3185 144.046C82.3185 144.08 82.3185 144.114 82.3526 144.149C82.3526 144.183 82.3526 144.217 82.3867 144.251C82.3867 144.319 82.4208 144.353 82.4208 144.421C82.4208 144.455 82.4208 144.455 82.4208 144.489C82.4208 144.523 82.4208 144.523 82.4208 144.558C82.4208 144.592 82.4208 144.66 82.4208 144.694C82.4208 144.728 82.4208 144.762 82.4208 144.83C82.4208 144.864 82.4208 144.864 82.4208 144.898V144.932C82.4208 145.001 82.4208 145.069 82.4208 145.137C82.4208 145.171 82.4208 145.171 82.4208 145.205C82.4208 145.273 82.4208 145.341 82.4208 145.409C82.4208 145.614 82.4208 145.853 82.3867 146.091C82.3867 146.159 82.3867 146.193 82.3867 146.261C82.3867 146.296 82.3867 146.33 82.3867 146.33C82.3867 146.364 82.3867 146.398 82.3867 146.432C82.3867 146.534 82.3526 146.636 82.3526 146.739C82.3526 146.773 82.3526 146.841 82.3185 146.875C82.3185 146.909 82.3185 146.943 82.3185 146.977C82.3185 147.045 82.2844 147.113 82.2844 147.182C82.2844 147.216 82.2844 147.216 82.2844 147.25C82.2844 147.318 82.2503 147.42 82.2503 147.488C82.2161 147.625 82.182 147.795 82.1479 147.931C82.1479 147.999 82.1138 148.068 82.0797 148.17C82.0456 148.374 81.9774 148.579 81.9092 148.783C81.9092 148.817 81.875 148.886 81.875 148.92C81.8409 149.09 81.7727 149.226 81.7386 149.397C81.7045 149.465 81.7045 149.567 81.6704 149.635C81.6363 149.772 81.5681 149.942 81.5339 150.078C81.4657 150.249 81.3975 150.453 81.3293 150.658C81.2952 150.794 81.227 150.896 81.1928 151.033C81.1246 151.203 81.0564 151.373 81.0223 151.544C80.9882 151.612 80.9541 151.714 80.92 151.782C80.8517 151.953 80.7835 152.123 80.7153 152.293C80.613 152.532 80.5448 152.736 80.4424 152.975C80.4083 153.077 80.3401 153.179 80.306 153.282C80.2378 153.452 80.1354 153.623 80.0672 153.827C79.7943 154.44 79.4874 155.088 79.1462 155.769C79.0098 156.076 78.8393 156.349 78.7028 156.656C78.5323 157.03 78.3276 157.405 78.1229 157.78C78.0888 157.848 78.0547 157.916 78.0206 157.985C77.816 158.359 77.6113 158.768 77.3725 159.143C77.2702 159.348 77.1679 159.552 77.0314 159.757C76.9632 159.893 76.895 160.029 76.7927 160.166C76.7244 160.302 76.6221 160.438 76.5539 160.575C76.4857 160.711 76.3833 160.847 76.3151 160.984C76.2469 161.12 76.1446 161.256 76.0764 161.427C75.9399 161.631 75.8376 161.87 75.7011 162.074C75.667 162.142 75.5988 162.21 75.5647 162.279C75.4965 162.415 75.3941 162.585 75.2918 162.722C75.1895 162.858 75.1213 163.028 75.0189 163.165C74.9166 163.301 74.8484 163.471 74.7461 163.608C74.6778 163.744 74.5755 163.88 74.5073 164.017C74.4732 164.051 74.4732 164.085 74.4391 164.119C74.3709 164.255 74.2685 164.391 74.2003 164.528C74.098 164.664 74.0298 164.834 73.9274 164.971C73.9274 164.971 73.9274 165.005 73.8933 165.005L73.791 165.107C73.791 165.107 73.791 165.107 73.7569 165.141L73.6887 165.209C73.6545 165.243 73.6204 165.278 73.5863 165.312C73.4499 165.448 73.2452 165.652 73.0406 165.891C73.0065 165.925 72.9724 165.959 72.9382 166.027C72.9041 166.061 72.87 166.129 72.8018 166.164C72.4607 166.538 72.0855 166.981 71.7103 167.493C71.6762 167.561 71.6079 167.629 71.5738 167.697C71.4033 167.902 71.2669 168.106 71.0963 168.345C71.0281 168.413 70.994 168.481 70.9258 168.549C70.8575 168.617 70.8234 168.685 70.7893 168.788C70.7552 168.856 70.687 168.958 70.6529 169.026C70.6188 169.094 70.5505 169.197 70.5164 169.265C70.4823 169.299 70.4823 169.333 70.4482 169.367C70.4141 169.401 70.4141 169.435 70.38 169.503C70.3118 169.606 70.2435 169.742 70.1753 169.844C70.0048 170.151 69.8342 170.458 69.6978 170.764C69.6637 170.798 69.6637 170.866 69.6296 170.901C69.6296 170.901 69.6296 170.935 69.5955 170.935C69.5613 171.003 69.5272 171.071 69.4931 171.139C69.459 171.207 69.4249 171.309 69.3908 171.378C69.3567 171.446 69.3567 171.48 69.3226 171.548C69.2885 171.65 69.2544 171.753 69.2203 171.855C69.1861 171.923 69.1861 171.991 69.152 172.059C69.1179 172.127 69.1179 172.196 69.0838 172.298C68.9474 172.741 68.8792 173.184 68.8109 173.627H13.2117C12.6318 173.627 10.21 173.593 7.61768 172.23C7.61768 172.23 7.61768 172.23 7.58357 172.23C6.62849 171.718 5.6393 171.071 4.71833 170.151C2.56941 167.97 1.1709 164.971 1.1709 161.665V67.8458C1.1709 61.2345 6.56027 55.85 13.1776 55.85H131.096C131.914 55.85 132.733 55.9181 133.518 56.0885C138.225 57.0427 141.909 60.7573 142.864 65.4262C142.795 66.21 142.898 67.0279 142.898 67.8458Z" fill="white" stroke="black" stroke-width="0.696196" stroke-miterlimit="10"/>
<path d="M79.794 153.827C79.8622 153.623 79.9646 153.452 80.0328 153.282C80.0669 153.179 80.1351 153.077 80.1692 152.975C80.2374 152.805 80.3057 152.668 80.3398 152.532C79.9305 153.52 79.4188 154.611 78.873 155.769C79.2141 155.088 79.5211 154.44 79.794 153.827Z" fill="white" stroke="black" stroke-width="0.696196" stroke-miterlimit="10"/>
<path d="M81.057 150.658C81.0229 150.794 80.9547 150.896 80.9205 151.032C80.8523 151.203 80.7841 151.339 80.75 151.509C80.9547 150.998 81.1252 150.487 81.2958 150.01C81.2958 150.044 81.2616 150.078 81.2616 150.078C81.1934 150.249 81.1252 150.453 81.057 150.658Z" fill="white" stroke="black" stroke-width="0.696196" stroke-miterlimit="10"/>
<path d="M78.8739 155.735C78.7033 156.076 78.5328 156.417 78.3281 156.792C78.3622 156.724 78.3963 156.69 78.4305 156.621C78.5669 156.315 78.7374 156.042 78.8739 155.735Z" fill="white" stroke="black" stroke-width="0.696196" stroke-miterlimit="10"/>
<path d="M77.0996 159.075C77.3384 158.7 77.543 158.291 77.7477 157.916C77.543 158.291 77.3384 158.7 77.0996 159.075Z" fill="white" stroke="black" stroke-width="0.696196" stroke-miterlimit="10"/>
<path d="M69.4932 177.273C69.4591 177.239 69.425 177.171 69.3909 177.137C69.3227 177.001 69.2545 176.932 69.1862 176.796C69.1521 176.762 69.1521 176.694 69.118 176.626C69.0839 176.592 69.0839 176.524 69.0498 176.489C69.0157 176.353 68.9475 176.251 68.9134 176.115V176.08C68.8793 175.978 68.8451 175.876 68.811 175.774C68.7769 175.74 68.7769 175.637 68.7769 175.603C68.7428 175.569 68.7428 175.467 68.7428 175.433C68.7428 175.399 68.7087 175.331 68.7087 175.297C68.6746 175.229 68.6746 175.16 68.6746 175.092C68.6405 174.956 68.6405 174.854 68.6405 174.751C68.6064 174.513 68.6064 174.308 68.6064 174.138V173.865C68.6064 173.763 68.6064 173.661 68.6405 173.593C68.6746 173.15 68.7769 172.707 68.9134 172.264C68.9475 172.195 68.9475 172.127 68.9816 172.025C69.0157 171.957 69.0157 171.889 69.0498 171.821C69.118 171.582 69.2204 171.378 69.2886 171.139C69.2545 171.207 69.2204 171.309 69.1862 171.378C69.1521 171.446 69.118 171.514 69.118 171.582C69.0839 171.65 69.0498 171.752 69.0157 171.821C68.9816 171.889 68.9816 171.957 68.9475 172.025C68.9134 172.093 68.9134 172.161 68.8793 172.264C68.7428 172.707 68.6746 173.15 68.6064 173.593C68.6064 173.695 68.5723 173.797 68.5723 173.865V174.138C68.5723 174.308 68.5723 174.513 68.6064 174.751C68.6064 174.888 68.6405 174.956 68.6405 175.092C68.6405 175.16 68.6746 175.229 68.6746 175.297C68.6746 175.331 68.7087 175.399 68.7087 175.433C68.7087 175.467 68.7428 175.569 68.7428 175.603C68.7428 175.637 68.7769 175.74 68.7769 175.774C68.811 175.876 68.811 175.978 68.8793 176.08V176.115L69.0157 176.489C69.0498 176.524 69.0498 176.592 69.0839 176.626C69.118 176.66 69.118 176.762 69.1521 176.796C69.1862 176.932 69.2886 177.001 69.3568 177.137C69.3909 177.171 69.3909 177.239 69.4932 177.273C69.6638 177.58 69.9367 177.887 70.2095 178.159C70.346 178.296 70.653 178.568 71.0623 178.875C71.1305 178.977 71.1987 179.011 71.267 179.011C70.4824 178.466 69.9026 177.887 69.4932 177.273Z" fill="white"/>
<path d="M69.4932 177.273C69.4591 177.239 69.425 177.171 69.3909 177.137C69.3227 177.001 69.2545 176.932 69.1862 176.796C69.1521 176.762 69.1521 176.694 69.118 176.626C69.0839 176.592 69.0839 176.524 69.0498 176.489C69.0157 176.353 68.9475 176.251 68.9134 176.115V176.08C68.8793 175.978 68.8451 175.876 68.811 175.774C68.7769 175.74 68.7769 175.637 68.7769 175.603C68.7428 175.569 68.7428 175.467 68.7428 175.433C68.7428 175.399 68.7087 175.331 68.7087 175.297C68.6746 175.229 68.6746 175.16 68.6746 175.092C68.6405 174.956 68.6405 174.854 68.6405 174.751C68.6064 174.513 68.6064 174.308 68.6064 174.138V173.865C68.6064 173.763 68.6064 173.661 68.6405 173.593C68.6746 173.15 68.7769 172.707 68.9134 172.264C68.9475 172.195 68.9475 172.127 68.9816 172.025C69.0157 171.957 69.0157 171.889 69.0498 171.821C69.118 171.582 69.2204 171.378 69.2886 171.139C69.2545 171.207 69.2204 171.309 69.1862 171.378C69.1521 171.446 69.118 171.514 69.118 171.582C69.0839 171.65 69.0498 171.752 69.0157 171.821C68.9816 171.889 68.9816 171.957 68.9475 172.025C68.9134 172.093 68.9134 172.161 68.8793 172.264C68.7428 172.707 68.6746 173.15 68.6064 173.593C68.6064 173.695 68.5723 173.797 68.5723 173.865V174.138C68.5723 174.308 68.5723 174.513 68.6064 174.751C68.6064 174.888 68.6405 174.956 68.6405 175.092C68.6405 175.16 68.6746 175.229 68.6746 175.297C68.6746 175.331 68.7087 175.399 68.7087 175.433C68.7087 175.467 68.7428 175.569 68.7428 175.603C68.7428 175.637 68.7769 175.74 68.7769 175.774C68.811 175.876 68.811 175.978 68.8793 176.08V176.115L69.0157 176.489C69.0498 176.524 69.0498 176.592 69.0839 176.626C69.118 176.66 69.118 176.762 69.1521 176.796C69.1862 176.932 69.2886 177.001 69.3568 177.137C69.3909 177.171 69.3909 177.239 69.4932 177.273ZM69.4932 177.273C69.6638 177.58 69.9367 177.887 70.2095 178.159C70.346 178.296 70.653 178.568 71.0623 178.875C71.1305 178.977 71.1987 179.011 71.267 179.011C70.4824 178.466 69.9026 177.887 69.4932 177.273Z" stroke="black" stroke-width="0.696196" stroke-miterlimit="10"/>
<path d="M73.3136 116.374C71.9833 117.567 70.8577 118.385 68.7429 119.987C65.4001 122.508 62.5008 124.417 60.4883 125.644H60.5224C62.5349 124.383 65.4342 122.508 68.777 119.987C70.8236 118.419 71.9492 117.601 73.3136 116.374Z" fill="white" stroke="black" stroke-width="0.696196" stroke-miterlimit="10"/>
<path d="M81.6363 148.783C81.6363 148.817 81.6022 148.885 81.6022 148.92C81.5681 149.09 81.4999 149.226 81.4658 149.397C81.4658 149.431 81.4316 149.465 81.4316 149.533C81.6022 149.022 81.7386 148.545 81.841 148.102C81.841 148.136 81.841 148.17 81.8069 148.17C81.7727 148.374 81.7045 148.579 81.6363 148.783Z" fill="white" stroke="black" stroke-width="0.696196" stroke-miterlimit="10"/>
<path d="M117.452 105.401C117.281 105.537 117.111 105.639 116.906 105.741C116.735 105.844 116.565 105.98 116.36 106.082C116.19 106.184 116.053 106.287 115.883 106.389C115.064 106.9 114.279 107.343 113.495 107.786C113.358 107.854 113.222 107.922 113.12 107.991C111.721 108.706 110.357 109.354 108.992 109.899C108.72 110.001 108.413 110.104 108.14 110.24C111.346 109.047 114.655 107.377 117.997 105.026C117.929 105.094 117.827 105.128 117.759 105.196C117.656 105.264 117.554 105.332 117.452 105.401Z" fill="white" stroke="black" stroke-width="0.696196" stroke-miterlimit="10"/>
<path d="M95.9622 112.66C95.2459 112.694 94.5296 112.694 93.8474 112.694H93.2675H93.2334C94.359 112.728 95.5188 112.694 96.7126 112.625C96.5421 112.625 96.4056 112.66 96.201 112.66H95.9622Z" fill="white" stroke="black" stroke-width="0.696196" stroke-miterlimit="10"/>
<path d="M106.878 110.683C107.253 110.547 107.662 110.41 108.038 110.274C107.765 110.376 107.526 110.444 107.253 110.547C107.117 110.615 106.98 110.649 106.878 110.683Z" fill="white" stroke="black" stroke-width="0.696196" stroke-miterlimit="10"/>
<path d="M121.171 102.606C121.034 102.708 120.898 102.845 120.761 102.947C119.909 103.629 119.09 104.276 118.237 104.855C119.363 104.038 120.489 103.186 121.648 102.197C121.614 102.197 121.614 102.231 121.58 102.231C121.444 102.368 121.307 102.504 121.171 102.606Z" fill="white" stroke="black" stroke-width="0.696196" stroke-miterlimit="10"/>
<path d="M125.502 98.619C128.708 103.867 134.746 110.615 142.864 117.567V117.533C134.746 110.581 128.742 103.867 125.502 98.619Z" fill="white" stroke="black" stroke-width="0.696196" stroke-miterlimit="10"/>
<path d="M122.74 101.277C122.876 101.175 122.979 101.073 123.081 100.97C123.729 100.391 124.343 99.7777 124.991 99.1643C125.162 98.9598 125.332 98.7894 125.503 98.619C124.343 99.8118 123.183 100.902 122.023 101.891C122.296 101.686 122.501 101.482 122.74 101.277Z" fill="white" stroke="black" stroke-width="0.696196" stroke-miterlimit="10"/>
<path d="M91.8346 112.626C91.63 112.626 91.3912 112.591 91.1865 112.591C91.6982 112.626 92.2439 112.66 92.8238 112.694C92.7215 112.694 92.6533 112.694 92.5509 112.66C92.3122 112.66 92.0734 112.626 91.8346 112.626Z" fill="white" stroke="black" stroke-width="0.696196" stroke-miterlimit="10"/>
<path d="M96.9176 112.625C97.0882 112.625 97.2587 112.591 97.4293 112.591C97.9409 112.557 98.4526 112.523 98.9983 112.455C99.1007 112.455 99.2371 112.421 99.3394 112.421C99.5782 112.387 99.817 112.353 100.056 112.319C100.329 112.285 100.636 112.217 100.908 112.182C101.386 112.08 101.829 112.012 102.307 111.91C102.614 111.842 102.921 111.774 103.228 111.705C103.33 111.671 103.433 111.671 103.535 111.637C101.181 112.182 98.896 112.523 96.7471 112.625C96.7812 112.625 96.8494 112.625 96.9176 112.625Z" fill="white" stroke="black" stroke-width="0.696196" stroke-miterlimit="10"/>
<path d="M90.8125 112.523C90.9148 112.523 91.0513 112.557 91.1536 112.557C91.0513 112.523 90.9489 112.523 90.8125 112.523Z" fill="white" stroke="black" stroke-width="0.696196" stroke-miterlimit="10"/>
<path d="M90.0947 112.455C90.1304 112.455 90.1304 112.455 90.0947 112.455C90.1304 112.455 90.1304 112.455 90.0947 112.455C90.1304 112.455 90.1304 112.455 90.0947 112.455Z" fill="white"/>
<path d="M90.0947 112.455C90.1304 112.455 90.1304 112.455 90.0947 112.455C90.1304 112.455 90.1304 112.455 90.0947 112.455ZM90.0947 112.455C90.1304 112.455 90.1304 112.455 90.0947 112.455Z" stroke="black" stroke-width="0.696196" stroke-miterlimit="10"/>
<path d="M88.833 112.285C88.9353 112.285 89.0377 112.319 89.14 112.319C89.0377 112.319 88.9353 112.285 88.833 112.285Z" fill="white" stroke="black" stroke-width="0.696196" stroke-miterlimit="10"/>
<path d="M87.2988 112.046C87.4012 112.08 87.5035 112.08 87.6058 112.114C87.5035 112.08 87.4012 112.046 87.2988 112.046Z" fill="white" stroke="black" stroke-width="0.696196" stroke-miterlimit="10"/>
<path d="M86.8213 111.944C86.8902 111.944 86.9246 111.978 86.9936 111.978C86.9591 111.978 86.8902 111.978 86.8213 111.944Z" fill="white" stroke="black" stroke-width="0.696196" stroke-miterlimit="10"/>
<path d="M86.5137 111.876C86.616 111.91 86.7524 111.91 86.8548 111.944C86.7524 111.944 86.6842 111.91 86.5819 111.876C86.5478 111.91 86.5137 111.876 86.5137 111.876Z" fill="white" stroke="black" stroke-width="0.696196" stroke-miterlimit="10"/>
<path d="M86.1387 111.807C86.241 111.842 86.3774 111.842 86.4798 111.876C86.4457 111.876 86.4457 111.876 86.4116 111.876C86.3433 111.842 86.241 111.842 86.1387 111.807Z" fill="white" stroke="black" stroke-width="0.696196" stroke-miterlimit="10"/>
<path d="M84.2285 111.365C84.2625 111.365 84.2964 111.398 84.3644 111.398C84.2964 111.365 84.2625 111.365 84.2285 111.365Z" fill="white" stroke="black" stroke-width="0.696196" stroke-miterlimit="10"/>
<path d="M83.7168 111.228C83.7508 111.228 83.8187 111.262 83.8527 111.262C83.8187 111.262 83.7508 111.228 83.7168 111.228Z" fill="white" stroke="black" stroke-width="0.696196" stroke-miterlimit="10"/>
<path d="M83.4443 111.16C83.5127 111.194 83.5812 111.194 83.6496 111.228C83.5812 111.194 83.5127 111.16 83.4443 111.16Z" fill="white" stroke="black" stroke-width="0.696196" stroke-miterlimit="10"/>
<path d="M83.1709 111.058C83.1709 111.093 83.2065 111.093 83.1709 111.058C83.1709 111.093 83.1709 111.093 83.1709 111.058Z" fill="white" stroke="black" stroke-width="0.696196" stroke-miterlimit="10"/>
<path d="M82.9326 110.99C82.9326 110.99 82.9677 110.99 83.0028 110.99C82.9677 111.025 82.9326 110.99 82.9326 110.99Z" fill="white" stroke="black" stroke-width="0.696196" stroke-miterlimit="10"/>
<path d="M82.6934 110.922C82.7273 110.922 82.7613 110.955 82.7953 110.955C82.7273 110.955 82.6934 110.922 82.6934 110.922Z" fill="white" stroke="black" stroke-width="0.696196" stroke-miterlimit="10"/>
<path d="M82.4893 110.853C82.5244 110.853 82.5244 110.853 82.5595 110.888C82.5595 110.888 82.5244 110.888 82.4893 110.853Z" fill="white" stroke="black" stroke-width="0.696196" stroke-miterlimit="10"/>
<path d="M82.0107 110.717C82.0796 110.751 82.1486 110.751 82.183 110.786C82.1141 110.751 82.0452 110.717 82.0107 110.717Z" fill="white" stroke="black" stroke-width="0.696196" stroke-miterlimit="10"/>
<path d="M82.1475 146.262C82.1475 146.194 82.1475 146.159 82.1475 146.091C82.1817 146.159 82.1475 146.194 82.1475 146.262Z" fill="white" stroke="black" stroke-width="0.696196" stroke-miterlimit="10"/>
<path d="M82.1475 144.557V144.591C82.1475 144.625 82.1475 144.659 82.1475 144.693C82.1475 144.659 82.1475 144.625 82.1475 144.557Z" fill="white" stroke="black" stroke-width="0.696196" stroke-miterlimit="10"/>
<path d="M82.1143 144.455C82.1143 144.455 82.1143 144.49 82.1143 144.525C82.1494 144.49 82.1143 144.455 82.1143 144.455Z" fill="white" stroke="black" stroke-width="0.696196" stroke-miterlimit="10"/>
<path d="M82.0459 147.011C82.0459 146.977 82.0459 146.943 82.0459 146.909C82.0799 146.943 82.0799 146.977 82.0459 147.011Z" fill="white" stroke="black" stroke-width="0.696196" stroke-miterlimit="10"/>
<path d="M82.0107 147.25C82.0107 147.182 82.0449 147.079 82.0449 147.011C82.0449 147.079 82.0107 147.148 82.0107 147.182C82.0107 147.216 82.0107 147.216 82.0107 147.25Z" fill="white" stroke="black" stroke-width="0.696196" stroke-miterlimit="10"/>
<path d="M81.7725 110.615C81.8409 110.649 81.9093 110.649 82.0119 110.683C81.9435 110.649 81.9093 110.649 81.8409 110.615C81.8067 110.649 81.7725 110.649 81.7725 110.615Z" fill="white" stroke="black" stroke-width="0.696196" stroke-miterlimit="10"/>
<path d="M77.918 111.843C77.9869 111.775 78.0213 111.74 78.0902 111.671L78.0558 111.706C77.9869 111.775 77.9524 111.809 77.918 111.843Z" fill="white" stroke="black" stroke-width="0.696196" stroke-miterlimit="10"/>
<path d="M77.8506 157.746C77.9188 157.61 77.987 157.507 78.0552 157.371C77.987 157.473 77.9188 157.61 77.8506 157.746Z" fill="white" stroke="black" stroke-width="0.696196" stroke-miterlimit="10"/>
<path d="M77.4749 112.319C77.441 112.353 77.407 112.387 77.373 112.421C77.441 112.387 77.4749 112.353 77.4749 112.319C77.5089 112.319 77.5089 112.319 77.4749 112.319Z" fill="white"/>
<path d="M77.4749 112.319C77.441 112.353 77.407 112.387 77.373 112.421C77.441 112.387 77.4749 112.353 77.4749 112.319ZM77.4749 112.319C77.5089 112.319 77.5089 112.319 77.4749 112.319Z" stroke="black" stroke-width="0.696196" stroke-miterlimit="10"/>
<path d="M77.2707 112.557C77.2023 112.626 77.1338 112.694 77.0654 112.796L77.0996 112.762C77.1338 112.728 77.2023 112.66 77.2707 112.557Z" fill="white" stroke="black" stroke-width="0.696196" stroke-miterlimit="10"/>
<path d="M74.0986 115.694L74.1342 115.658C74.1342 115.658 74.1342 115.658 74.0986 115.694C74.1342 115.658 74.0986 115.694 74.0986 115.694Z" fill="white"/>
<path d="M74.0986 115.694L74.1342 115.658C74.1342 115.658 74.1342 115.658 74.0986 115.694ZM74.0986 115.694C74.1342 115.658 74.0986 115.694 74.0986 115.694Z" stroke="black" stroke-width="0.696196" stroke-miterlimit="10"/>
<path d="M73.9619 115.831C73.997 115.796 73.997 115.796 74.0321 115.761C73.997 115.796 73.997 115.796 73.9619 115.831C73.9619 115.831 73.9619 115.796 73.9619 115.831Z" fill="white"/>
<path d="M73.9619 115.831C73.997 115.796 73.997 115.796 74.0321 115.761C73.997 115.796 73.997 115.796 73.9619 115.831ZM73.9619 115.831C73.9619 115.796 73.9619 115.831 73.9619 115.831Z" stroke="black" stroke-width="0.696196" stroke-miterlimit="10"/>
<path d="M73.8252 115.931C73.8592 115.897 73.9271 115.863 73.9611 115.829C73.8931 115.863 73.8592 115.897 73.8252 115.931Z" fill="white" stroke="black" stroke-width="0.696196" stroke-miterlimit="10"/>
<path d="M73.6543 116.067C73.6883 116.033 73.7222 115.999 73.7562 115.999C73.7222 115.999 73.7222 116.033 73.6543 116.067C73.6883 116.067 73.6543 116.067 73.6543 116.067Z" fill="white"/>
<path d="M73.6543 116.067C73.6883 116.033 73.7222 115.999 73.7562 115.999C73.7222 115.999 73.7222 116.033 73.6543 116.067ZM73.6543 116.067C73.6883 116.067 73.6543 116.067 73.6543 116.067Z" stroke="black" stroke-width="0.696196" stroke-miterlimit="10"/>
<path d="M73.6885 164.971C73.6885 164.971 73.6885 165.007 73.6885 164.971V164.971Z" fill="white" stroke="black" stroke-width="0.696196" stroke-miterlimit="10"/>
<path d="M73.3818 165.277C73.4158 165.243 73.4498 165.209 73.4837 165.175L73.4498 165.209C73.4158 165.277 73.3818 165.277 73.3818 165.277Z" fill="white" stroke="black" stroke-width="0.696196" stroke-miterlimit="10"/>
<path d="M125.638 98.6531C117.077 107.411 108.242 111.058 100.636 112.216C98.7936 112.489 97.0199 112.625 95.3485 112.66C94.564 112.66 93.8136 112.66 93.0631 112.625C92.8926 112.625 92.6879 112.625 92.5174 112.591C92.4492 112.591 92.4151 112.591 92.3468 112.591C92.2786 112.591 92.2445 112.591 92.1763 112.591C92.1081 112.591 92.0398 112.591 92.0057 112.591C91.8011 112.591 91.5623 112.557 91.3576 112.557H91.3235C91.2553 112.557 91.2212 112.557 91.153 112.557C91.0848 112.557 91.0507 112.557 90.9824 112.557C90.9142 112.557 90.8801 112.557 90.8119 112.557C90.6413 112.557 90.4708 112.523 90.3344 112.523C90.3344 112.523 90.3343 112.523 90.3002 112.523H90.2661C89.9591 112.489 89.618 112.455 89.3111 112.421C89.2428 112.421 89.2087 112.421 89.1405 112.387C89.0723 112.387 89.0382 112.387 88.97 112.353C88.8676 112.353 88.7653 112.319 88.6289 112.319C88.4242 112.285 88.2195 112.251 88.0149 112.216C87.9125 112.216 87.8102 112.182 87.7079 112.182C87.6056 112.182 87.5032 112.148 87.4009 112.148C87.3327 112.148 87.2303 112.114 87.1621 112.114C87.128 112.114 87.128 112.114 87.0939 112.114C87.0257 112.114 86.9916 112.08 86.9234 112.08C86.821 112.046 86.6846 112.046 86.5823 112.012C86.4458 111.978 86.3435 111.978 86.2412 111.944C86.1388 111.91 86.0706 111.91 85.9683 111.876C85.6954 111.808 85.4225 111.773 85.1837 111.705C85.0132 111.671 84.8426 111.637 84.6721 111.569C84.6039 111.569 84.5357 111.535 84.5015 111.535C84.4674 111.535 84.4674 111.535 84.4333 111.535C84.3992 111.535 84.3651 111.501 84.2969 111.501H84.2628C84.1946 111.501 84.1604 111.467 84.0922 111.467C84.024 111.467 83.9899 111.433 83.9217 111.433C83.8535 111.433 83.8193 111.399 83.7852 111.399C83.7511 111.399 83.717 111.399 83.717 111.365C83.6488 111.33 83.5806 111.33 83.5124 111.296C83.4441 111.262 83.3759 111.262 83.3077 111.228H83.2736C83.2054 111.194 83.1371 111.194 83.0689 111.16C83.0348 111.16 83.0348 111.16 83.0007 111.16C82.9666 111.16 82.8984 111.126 82.8643 111.126C82.8302 111.126 82.7961 111.092 82.7619 111.092C82.7278 111.092 82.6937 111.058 82.6596 111.058C82.6255 111.058 82.6255 111.058 82.5914 111.024C82.5232 110.99 82.4208 110.99 82.3526 110.956C82.3185 110.956 82.3185 110.956 82.2844 110.922C82.2162 110.887 82.148 110.887 82.1138 110.853C82.0456 110.819 82.0115 110.819 81.9433 110.785C81.9092 110.785 81.9092 110.785 81.8751 110.785C81.7728 110.751 81.6363 110.717 81.534 110.683C81.4999 110.683 81.4658 110.649 81.4317 110.649C81.3293 110.615 81.1929 110.581 81.0905 110.513C80.9541 110.478 80.8518 110.41 80.7495 110.376C80.5448 110.308 80.3401 110.206 80.2037 110.138C80.1696 110.138 80.1355 110.104 80.1014 110.104C80.0673 110.07 80.0331 110.07 79.9649 110.035C79.9308 110.035 79.8967 110.001 79.8626 110.001C79.7944 109.967 79.7262 109.933 79.692 109.933C79.4533 110.24 79.2145 110.547 79.0098 110.819C78.8393 111.024 78.7029 111.194 78.5323 111.399C78.4982 111.433 78.4641 111.467 78.43 111.535C78.3618 111.603 78.2935 111.705 78.2253 111.773C78.1912 111.808 78.1912 111.842 78.1571 111.842L78.123 111.876C78.0889 111.91 78.0548 111.944 78.0207 112.012C77.9865 112.046 77.9183 112.114 77.8842 112.148C77.8501 112.182 77.816 112.217 77.7819 112.285C77.7478 112.319 77.6796 112.387 77.6454 112.421L77.6113 112.455C77.5772 112.489 77.5431 112.523 77.509 112.557C77.4749 112.591 77.4408 112.66 77.3726 112.694C77.3385 112.728 77.3043 112.762 77.2702 112.796C77.2361 112.83 77.202 112.864 77.1679 112.898L77.1338 112.932C77.0656 113 76.9974 113.068 76.9291 113.137C76.9291 113.137 76.9291 113.137 76.895 113.171C76.5539 113.512 76.2469 113.852 75.94 114.159C75.8376 114.261 75.7694 114.329 75.6671 114.432C75.4624 114.636 75.2577 114.841 75.0531 115.011C74.9849 115.079 74.9508 115.113 74.8825 115.147C74.8143 115.215 74.7461 115.284 74.6779 115.352C74.6438 115.386 74.6097 115.42 74.5414 115.454C74.5414 115.454 74.5073 115.454 74.5073 115.488C74.4732 115.522 74.405 115.59 74.3709 115.624C74.3368 115.658 74.2686 115.727 74.2345 115.761C74.2345 115.761 74.2345 115.761 74.2003 115.761C74.2003 115.761 74.2003 115.761 74.1662 115.795C74.1321 115.829 74.098 115.863 74.0639 115.863L74.0298 115.897C74.0298 115.897 74.0298 115.897 73.9957 115.931C73.9616 115.965 73.9275 115.999 73.8592 116.033C73.8251 116.067 73.8251 116.067 73.791 116.101C73.7569 116.136 73.7228 116.17 73.6887 116.17C73.6887 116.17 73.6546 116.17 73.6546 116.204C73.6205 116.238 73.6205 116.238 73.5864 116.272C73.5181 116.306 73.484 116.374 73.4158 116.408C73.3817 116.442 73.3476 116.476 73.3135 116.51C71.9832 117.703 70.8576 118.521 68.7427 120.123C65.4 122.645 62.5006 124.519 60.4881 125.78C60.4881 125.78 60.4881 125.78 60.4881 125.814C60.4881 125.814 60.4881 125.814 60.454 125.78C60.454 125.78 60.454 125.78 60.4199 125.814C60.6587 126.393 60.8975 126.973 61.1362 127.552C61.2727 127.859 61.375 128.131 61.5114 128.438C61.6479 128.745 61.7502 129.017 61.8867 129.324C61.9549 129.529 62.0572 129.733 62.1254 129.938C62.3642 130.551 62.603 131.164 62.8417 131.778C63.0123 132.187 63.1487 132.596 63.3193 133.005C63.3875 133.209 63.4898 133.414 63.558 133.618C63.7286 134.027 63.865 134.436 64.0356 134.879C64.4108 135.935 64.8201 136.992 65.1953 138.014C65.4341 138.73 65.707 139.446 65.9457 140.161C66.0481 140.434 66.1163 140.672 66.2186 140.945C66.4574 141.661 66.6962 142.342 66.9349 143.058C67.2078 143.876 67.4807 144.694 67.7536 145.512C67.7536 145.512 74.6097 141.49 78.9075 141.763C78.9757 141.763 79.044 141.763 79.1122 141.763C79.1463 141.763 79.2145 141.763 79.2486 141.763C79.3168 141.763 79.3509 141.763 79.4192 141.797C79.4874 141.797 79.5556 141.831 79.6238 141.831C79.6579 141.831 79.6579 141.831 79.692 141.831C79.7262 141.831 79.7603 141.831 79.7603 141.865C79.8285 141.865 79.8626 141.899 79.9308 141.899C79.9649 141.899 79.999 141.899 80.0331 141.933C80.0673 141.933 80.1014 141.967 80.1696 141.967C80.2037 141.967 80.2378 142.002 80.2719 142.002C80.306 142.002 80.3742 142.036 80.4084 142.07C80.4425 142.104 80.5107 142.104 80.5448 142.138C80.6471 142.172 80.7495 142.24 80.8177 142.274C80.8518 142.308 80.92 142.342 80.9541 142.376C80.9882 142.41 81.0223 142.41 81.0564 142.445C81.0906 142.479 81.1247 142.479 81.1588 142.513C81.1929 142.547 81.227 142.547 81.2611 142.581C81.2952 142.615 81.3293 142.649 81.3634 142.649C81.3975 142.683 81.4317 142.717 81.4658 142.751C81.4999 142.785 81.534 142.819 81.5681 142.888C81.6022 142.922 81.6363 142.956 81.6704 143.024C81.7045 143.058 81.7386 143.092 81.7386 143.126C81.7386 143.126 81.7386 143.126 81.7727 143.16C81.8069 143.194 81.841 143.262 81.841 143.297C81.8751 143.331 81.8751 143.399 81.9092 143.433C81.9433 143.501 81.9774 143.569 82.0115 143.637C82.0456 143.671 82.0456 143.74 82.0797 143.774C82.1139 143.842 82.1139 143.876 82.148 143.944C82.1821 144.012 82.1821 144.08 82.2162 144.148C82.2162 144.183 82.2162 144.217 82.2503 144.251C82.2503 144.285 82.2503 144.319 82.2844 144.353C82.2844 144.421 82.3185 144.455 82.3185 144.523C82.3185 144.557 82.3185 144.557 82.3185 144.592C82.3185 144.626 82.3185 144.626 82.3185 144.66V144.694C82.3185 144.728 82.3185 144.762 82.3185 144.796C82.3185 144.83 82.3185 144.864 82.3185 144.932C82.3185 144.966 82.3185 144.966 82.3185 145V145.035C82.3185 145.103 82.3185 145.171 82.3185 145.239C82.3185 145.273 82.3185 145.273 82.3185 145.307C82.3185 145.375 82.3185 145.443 82.3185 145.512C82.3185 145.716 82.3185 145.955 82.2844 146.193C82.2844 146.261 82.2844 146.295 82.2844 146.364C82.2844 146.398 82.2844 146.398 82.2844 146.432C82.2844 146.466 82.2844 146.5 82.2844 146.534C82.2844 146.636 82.2503 146.738 82.2503 146.841C82.2503 146.875 82.2503 146.943 82.2162 146.977C82.2162 147.011 82.2162 147.045 82.2162 147.079C82.2162 147.147 82.1821 147.216 82.1821 147.25C82.1821 147.284 82.1821 147.284 82.1821 147.318C82.1821 147.386 82.148 147.488 82.148 147.556C82.148 147.625 82.1138 147.727 82.1138 147.795C82.0456 148.136 81.9433 148.511 81.841 148.92C81.7728 149.124 81.7045 149.363 81.6363 149.601C81.6022 149.703 81.5681 149.806 81.534 149.942C81.534 149.942 81.534 149.942 81.534 149.976C81.4658 150.146 81.4317 150.317 81.3634 150.487C81.0223 151.441 80.613 152.498 80.1014 153.622C80.1014 153.622 80.1014 153.622 80.1014 153.657C79.999 153.895 79.8967 154.134 79.7603 154.372C79.7262 154.406 79.7262 154.474 79.692 154.508C79.5556 154.781 79.4192 155.054 79.2827 155.36C79.2145 155.531 79.1122 155.701 79.044 155.872C78.9757 156.008 78.9075 156.178 78.8393 156.315C78.7711 156.451 78.7029 156.621 78.6005 156.758C78.5664 156.826 78.5323 156.894 78.4982 156.928C78.43 157.064 78.3618 157.167 78.2935 157.303C78.2594 157.371 78.2253 157.439 78.1912 157.507C78.123 157.644 78.0548 157.746 77.9865 157.882C77.9524 157.95 77.9183 158.019 77.8842 158.053C77.6796 158.428 77.4749 158.837 77.2361 159.211C77.1338 159.416 77.0315 159.62 76.895 159.825C76.8268 159.961 76.7586 160.097 76.6563 160.234C76.588 160.37 76.4857 160.506 76.4175 160.643C76.3493 160.779 76.2469 160.915 76.1787 161.052C76.1105 161.188 76.0082 161.324 75.94 161.495C75.8035 161.699 75.7012 161.938 75.5647 162.142C75.5306 162.21 75.4965 162.278 75.4283 162.347C75.3601 162.483 75.2578 162.653 75.1554 162.79C75.0531 162.926 74.9849 163.096 74.8825 163.233C74.7802 163.369 74.712 163.539 74.6097 163.676C74.5414 163.812 74.4391 163.948 74.3709 164.085C74.3368 164.119 74.3368 164.153 74.3027 164.187C74.2345 164.323 74.1321 164.46 74.0639 164.596C73.9616 164.732 73.8934 164.903 73.791 165.039C73.7569 165.073 73.7228 165.141 73.6546 165.175C73.6546 165.175 73.6546 165.175 73.6205 165.209L73.5523 165.277L73.5181 165.312L73.484 165.346C73.3476 165.482 73.1429 165.686 72.9383 165.925C72.9042 165.959 72.8701 165.993 72.8359 166.061C72.8018 166.095 72.7677 166.163 72.6995 166.198C72.3584 166.572 71.9832 167.015 71.608 167.527C71.5739 167.595 71.5057 167.663 71.4715 167.731C71.301 167.936 71.1646 168.14 70.994 168.379C70.9258 168.447 70.8917 168.515 70.8235 168.583C70.7552 168.651 70.7211 168.719 70.687 168.822C70.6529 168.89 70.5847 168.992 70.5506 169.06C70.5165 169.128 70.4482 169.231 70.4141 169.299C70.38 169.333 70.38 169.367 70.3459 169.401C70.3118 169.435 70.3118 169.469 70.2777 169.537C70.2095 169.64 70.1413 169.776 70.073 169.878C69.9025 170.185 69.7319 170.492 69.5955 170.798C69.5614 170.832 69.5614 170.9 69.5273 170.935C69.5273 170.935 69.5273 170.969 69.4932 170.969C69.4591 171.037 69.425 171.105 69.3908 171.173C69.2885 171.412 69.2203 171.616 69.1521 171.855C69.118 171.889 69.118 171.991 69.0838 172.059C69.0497 172.161 69.0497 172.23 69.0156 172.298C68.8792 172.741 68.811 173.184 68.7427 173.627C68.7086 173.729 68.7086 173.831 68.7086 173.899V174.172C68.7086 174.377 68.7086 174.547 68.7427 174.785C68.7769 174.888 68.7769 174.99 68.7769 175.126C68.811 175.16 68.811 175.263 68.811 175.331C68.811 175.365 68.8451 175.433 68.8451 175.467C68.8792 175.501 68.8792 175.603 68.8792 175.637C68.9133 175.672 68.9133 175.774 68.9133 175.808C68.9474 175.91 68.9474 176.012 69.0156 176.115V176.149C69.0497 176.285 69.118 176.387 69.1521 176.523C69.1862 176.558 69.1862 176.626 69.2203 176.66C69.2544 176.728 69.2544 176.796 69.2885 176.83C69.3226 176.967 69.4249 177.035 69.4932 177.171C69.5273 177.205 69.5614 177.273 69.5955 177.307C70.0048 177.921 70.5847 178.5 71.3692 179.045C71.4033 179.079 71.5057 179.114 71.5398 179.182L71.5739 179.216C71.6421 179.25 71.6762 179.284 71.7103 179.284C72.3584 179.591 73.3476 179.965 74.6097 180C74.8825 180 75.7353 180.034 77.9524 179.42C78.43 179.284 79.7262 178.909 81.7045 178.125C83.8535 177.239 85.4225 176.455 85.9342 176.183C87.1962 175.501 88.6288 174.683 90.1297 173.661C103.74 173.695 117.384 173.695 130.993 173.729C137.611 173.729 143 168.345 143 161.733V117.567C134.882 110.615 128.879 103.867 125.638 98.6531ZM86.9916 125.984C83.3418 125.984 80.3742 123.292 80.3742 119.987C80.3742 116.681 83.3418 113.989 86.9916 113.989C90.6413 113.989 93.6089 116.681 93.6089 119.987C93.6089 123.292 90.6413 125.984 86.9916 125.984Z" fill="white" stroke="black" stroke-width="0.696196" stroke-miterlimit="10"/>
<path d="M89.959 173.627C100.67 164.801 111.346 155.94 122.056 147.079" stroke="black" stroke-width="0.696196" stroke-miterlimit="10"/>
<path d="M136.212 68.289C132.289 69.3455 128.23 70.2997 123.966 71.4924C118.202 72.6852 112.437 73.878 106.673 73.6394C105.718 73.6394 104.524 73.1623 104.012 72.2081C103.773 71.2539 104.251 70.5382 104.728 69.8226C108.822 65.256 113.392 62.1548 118.679 59.0195C119.396 58.5424 119.873 58.0653 120.589 57.5882C120.999 57.3837 121.408 57.1793 121.852 56.9748C121.852 56.9407 121.886 56.9066 121.988 56.8726C103.739 59.2581 85.7632 63.5861 68.5035 70.027C60.0784 73.1623 52.1649 76.7406 45.2064 82.4999C40.8745 86.3509 35.3487 91.3945 37.2588 97.8695C37.7364 99.5394 39.169 101.005 41.1133 101.482C45.377 102.538 48.7198 103.118 56.9744 101.72C56.9744 101.72 74.6774 98.7215 85.2174 95.5863C86.3772 95.2455 87.6051 94.8706 87.6051 94.8706C88.9354 94.4617 90.6409 93.9505 92.6534 93.303C92.7898 93.2689 92.9263 93.2007 93.0627 93.1667C93.5061 93.0303 93.9496 92.894 94.4271 92.7236C94.1883 92.7918 93.9496 92.894 93.7108 92.9622C93.3356 93.0985 92.9604 93.2007 92.6193 93.337C92.2441 93.4734 91.8689 93.5756 91.4937 93.7119C89.3447 94.3935 87.264 95.041 85.1833 95.6203C85.1833 95.9271 85.1492 96.5064 85.0469 97.188C84.774 99.8461 83.9895 102.232 82.9662 104.413C83.5119 104.447 84.0577 104.515 84.5693 104.549C93.472 105.094 106.809 103.595 123.011 92.7918C122.602 90.5426 122.738 88.4297 122.738 88.4297C122.943 85.0899 124.069 81.9547 125.911 78.9216C128.708 74.7299 131.743 70.9813 135.973 68.4935C135.189 68.8343 135.12 68.5957 136.212 68.289ZM50.6982 93.4734C47.253 94.632 43.8762 93.8823 43.1599 91.8035C42.4777 89.7247 44.6948 87.1006 48.174 85.9419C51.6191 84.7832 54.996 85.533 55.7123 87.6118C56.4286 89.6906 54.1774 92.3147 50.6982 93.4734ZM80.0327 73.2305C78.1226 73.7757 76.3488 73.4349 76.1101 72.5489C75.8713 71.6628 77.2016 70.5041 79.1459 69.993C81.056 69.4477 82.8297 69.7885 83.0685 70.6745C83.3414 71.5265 81.977 72.6852 80.0327 73.2305ZM89.4129 83.7949C87.5028 84.3402 85.7291 83.9994 85.4903 83.1134C85.2515 82.2273 86.6159 81.0686 88.5261 80.5574C90.4363 80.0122 92.21 80.353 92.4487 81.239C92.6875 82.1251 91.3572 83.2838 89.4129 83.7949Z" stroke="black" stroke-width="0.696196" stroke-miterlimit="10"/>
<path d="M125.569 98.7215C125.399 98.8919 125.228 99.0623 125.057 99.2668C124.409 99.8802 123.795 100.494 123.147 101.073C123.045 101.175 122.943 101.277 122.806 101.38C122.567 101.584 122.329 101.823 122.056 102.027C121.919 102.164 121.783 102.266 121.646 102.368C121.51 102.47 121.374 102.607 121.237 102.709C121.101 102.811 120.964 102.947 120.828 103.05C119.975 103.731 119.122 104.379 118.27 104.992C118.133 105.094 117.963 105.197 117.826 105.299C117.724 105.367 117.621 105.435 117.519 105.503C117.349 105.64 117.178 105.742 116.973 105.844C116.803 105.946 116.632 106.083 116.428 106.185C116.257 106.287 116.121 106.389 115.95 106.492C115.131 107.003 114.347 107.446 113.562 107.889C113.426 107.957 113.29 108.025 113.187 108.093C111.789 108.809 110.424 109.456 109.06 110.002C108.787 110.104 108.48 110.206 108.207 110.342C107.9 110.445 107.627 110.547 107.32 110.649C107.15 110.717 106.979 110.751 106.843 110.82C106.536 110.922 106.263 111.024 105.956 111.092C105.717 111.16 105.512 111.229 105.274 111.297C105.205 111.331 105.137 111.331 105.069 111.365C104.796 111.433 104.523 111.501 104.25 111.569C103.943 111.637 103.602 111.74 103.295 111.808C102.988 111.876 102.681 111.944 102.374 112.012C101.897 112.115 101.453 112.183 100.976 112.285C100.703 112.319 100.396 112.387 100.123 112.421C99.8843 112.455 99.6455 112.489 99.4068 112.524C99.3044 112.524 99.168 112.558 99.0657 112.558C98.5199 112.626 98.0082 112.66 97.4966 112.694C97.326 112.694 97.1555 112.728 96.9849 112.728C96.7462 112.728 96.5415 112.762 96.3027 112.762C96.2004 112.762 96.1322 112.762 96.0299 112.762C95.3136 112.796 94.5972 112.796 93.915 112.796C93.7104 112.796 93.5398 112.796 93.3352 112.796C93.0964 112.796 92.8576 112.796 92.6189 112.762C92.3801 112.762 92.1413 112.728 91.9026 112.728C91.6979 112.728 91.4591 112.694 91.2545 112.694C91.2204 112.694 91.2204 112.694 91.1863 112.694C90.8452 112.66 90.5382 112.626 90.1971 112.592H90.163H90.1288C89.8219 112.558 89.4808 112.524 89.1738 112.489C89.0714 112.489 88.9691 112.455 88.8668 112.455C88.7644 112.455 88.6621 112.421 88.5257 112.421C88.321 112.387 88.1164 112.353 87.9117 112.319C87.8094 112.319 87.707 112.285 87.6047 112.285C87.5024 112.285 87.4342 112.251 87.3318 112.251C87.3318 112.251 87.3318 112.251 87.2977 112.251C87.2295 112.251 87.1272 112.217 87.0589 112.217C87.0248 112.217 87.0248 112.217 86.9907 112.217C86.9225 112.217 86.8884 112.183 86.8202 112.183C86.7178 112.183 86.6496 112.149 86.5473 112.115C86.5132 112.115 86.445 112.115 86.4109 112.08C86.2403 112.046 86.0356 112.012 85.8651 111.978C85.5922 111.91 85.3193 111.876 85.0806 111.808C84.91 111.774 84.7395 111.74 84.5689 111.672C84.5007 111.672 84.4325 111.637 84.3984 111.637C84.3643 111.637 84.3643 111.637 84.3301 111.637C84.296 111.637 84.2619 111.603 84.1937 111.603H84.1596C84.0573 111.569 83.9549 111.535 83.8526 111.501C83.8185 111.501 83.7503 111.467 83.7162 111.467C83.6821 111.467 83.6479 111.467 83.6479 111.433C83.5797 111.433 83.5115 111.399 83.4433 111.365C83.3751 111.331 83.3069 111.331 83.2386 111.297H83.2045C83.1363 111.263 83.0681 111.263 82.9999 111.229C82.9999 111.229 82.9658 111.229 82.9316 111.229C82.8634 111.229 82.8293 111.194 82.7611 111.194C82.727 111.194 82.6929 111.16 82.6588 111.16C82.6247 111.16 82.5905 111.126 82.5564 111.126C82.5223 111.126 82.5223 111.126 82.4882 111.092C82.42 111.058 82.3177 111.058 82.2494 111.024C82.2153 111.024 82.2153 111.024 82.1812 110.99C82.113 110.956 82.0448 110.956 82.0107 110.922C81.9425 110.888 81.8742 110.888 81.8401 110.854C81.806 110.854 81.806 110.854 81.7719 110.854C81.6696 110.82 81.5331 110.785 81.4308 110.751C81.3967 110.751 81.3626 110.717 81.3285 110.717C81.2261 110.683 81.0897 110.649 80.9874 110.581C80.8509 110.547 80.7486 110.479 80.6463 110.445C80.4416 110.377 80.237 110.274 80.1005 110.206C80.0664 110.206 80.0323 110.172 79.9982 110.172C79.9641 110.138 79.93 110.138 79.8617 110.104C79.8276 110.104 79.7935 110.07 79.7594 110.07C79.6912 110.036 79.623 110.002 79.5889 110.002C79.7935 109.695 80.0323 109.422 80.237 109.116C80.3052 109.013 80.3734 108.911 80.4416 108.809C80.5098 108.707 80.6122 108.57 80.6804 108.468C81.4649 107.275 82.2494 105.98 82.8975 104.549C83.4092 104.583 83.989 104.651 84.5007 104.685C93.4034 105.231 106.74 103.731 122.909 92.9281V92.9963C122.943 93.0985 122.943 93.2007 122.977 93.303V93.3371C123.386 94.7002 124.273 96.5745 125.569 98.7215Z" fill="#F4B537" stroke="black" stroke-width="0.696196" stroke-miterlimit="10"/>
<path d="M121.852 56.9751C121.92 56.9409 122.023 56.9067 122.091 56.8726C122.057 56.8726 122.023 56.8726 121.954 56.9067" stroke="black" stroke-width="0.696196" stroke-miterlimit="10"/>
<path d="M60.4536 125.814C60.418 125.814 60.418 125.85 60.418 125.85" stroke="black" stroke-width="0.696196" stroke-miterlimit="10"/>
<path d="M82.2497 145.512C82.2497 145.716 82.2497 145.955 82.2155 146.193C82.2155 146.262 82.2155 146.296 82.2155 146.364C82.2155 146.398 82.2155 146.398 82.2155 146.432C82.2155 146.466 82.2155 146.5 82.2155 146.534C82.2155 146.637 82.1814 146.739 82.1814 146.841C82.1814 146.875 82.1814 146.943 82.1473 146.977C82.1473 147.011 82.1473 147.045 82.1473 147.08C82.1473 147.148 82.1132 147.25 82.1132 147.318C82.1132 147.386 82.0791 147.488 82.0791 147.557C81.9427 148.17 81.7721 148.852 81.5675 149.567C81.0217 151.271 80.2031 153.316 79.0092 155.77C78.8387 156.11 78.6681 156.485 78.4635 156.826C78.3611 156.997 78.2588 157.201 78.1906 157.371C78.1224 157.508 78.0541 157.61 77.9859 157.746C77.9518 157.814 77.9177 157.883 77.8836 157.917C77.6789 158.292 77.4743 158.7 77.2355 159.075C77.1332 159.28 77.0308 159.484 76.8944 159.689C76.8262 159.825 76.758 159.961 76.6556 160.098C76.5874 160.234 76.4851 160.37 76.4169 160.507C76.3486 160.643 76.2463 160.779 76.1781 160.916C76.1099 161.052 76.0075 161.188 75.9393 161.359C75.8029 161.563 75.7005 161.802 75.5641 162.006C75.53 162.074 75.4959 162.142 75.4277 162.211C75.3594 162.347 75.2571 162.517 75.1548 162.654C75.0525 162.79 74.9842 162.96 74.8819 163.097C74.7796 163.233 74.7114 163.403 74.609 163.54C74.4726 163.778 74.4044 163.88 74.3703 163.949C74.3361 164.017 74.2679 164.119 74.1997 164.255C74.0292 164.528 74.0292 164.562 73.9951 164.596C73.8927 164.698 73.7563 164.937 73.654 164.903C73.5857 164.869 73.654 164.63 73.5516 164.255C73.5175 164.153 73.4834 164.051 73.4834 164.017C73.4152 163.812 73.347 163.574 73.2787 163.301V163.267V163.199C72.8012 161.529 71.9826 158.735 70.9252 155.293C70.0383 152.362 68.9468 148.954 67.7529 145.342C67.7529 145.342 81.0899 137.537 82.2155 144.387C82.2155 144.455 82.2156 144.49 82.2497 144.558C82.2497 144.592 82.2497 144.626 82.2497 144.66C82.2497 144.694 82.2497 144.728 82.2497 144.796C82.2497 144.83 82.2497 144.83 82.2497 144.864V144.898C82.2497 144.967 82.2497 145.035 82.2497 145.103C82.2497 145.137 82.2497 145.137 82.2497 145.171C82.2497 145.376 82.2497 145.444 82.2497 145.512Z" fill="#033249" stroke="black" stroke-width="0.696196" stroke-miterlimit="10"/>
<path d="M73.6539 164.869L67.7188 145.478C70.891 155.088 73.2105 163.335 73.6539 164.869Z" stroke="black" stroke-width="0.696196" stroke-miterlimit="10"/>
<path d="M123.249 92.5873C123.181 92.6215 123.078 92.724 123.01 92.7582" stroke="black" stroke-width="0.696196" stroke-miterlimit="10"/>
<path d="M82.9661 104.413C82.8297 104.413 82.7614 104.379 82.625 104.379" stroke="black" stroke-width="0.696196" stroke-miterlimit="10"/>
<path d="M125.64 98.6533C125.604 98.6883 125.604 98.6883 125.569 98.7233" stroke="black" stroke-width="0.696196" stroke-miterlimit="10"/>
<path d="M79.6222 109.899C79.5203 109.865 79.4863 109.831 79.4863 109.831" stroke="black" stroke-width="0.696196" stroke-miterlimit="10"/>
<path d="M86.9572 126.087C90.6118 126.087 93.5745 123.401 93.5745 120.089C93.5745 116.776 90.6118 114.091 86.9572 114.091C83.3025 114.091 80.3398 116.776 80.3398 120.089C80.3398 123.401 83.3025 126.087 86.9572 126.087Z" fill="#F4B537" stroke="black" stroke-width="0.696196" stroke-miterlimit="10"/>
<path d="M42.3759 157.303L39.9541 162.824" stroke="black" stroke-width="0.696196" stroke-miterlimit="10"/>
<path d="M45.0015 162.585L42.375 157.303" stroke="black" stroke-width="0.696196" stroke-miterlimit="10"/>
<path d="M22.6596 154.44H15.7012" stroke="black" stroke-width="0.696196" stroke-miterlimit="10"/>
<path d="M22.4213 157.303L16.418 158.734" stroke="black" stroke-width="0.696196" stroke-miterlimit="10"/>
<path d="M54.8604 152.736L59.6699 151.305" stroke="black" stroke-width="0.696196" stroke-miterlimit="10"/>
<path d="M55.8135 155.872L60.3842 156.587" stroke="black" stroke-width="0.696196" stroke-miterlimit="10"/>
<path d="M80.0333 73.2303C78.1232 73.7756 76.3495 73.4348 76.1107 72.5487C75.8719 71.6627 77.2022 70.504 79.1465 69.9928C81.0566 69.4476 82.8304 69.7883 83.0691 70.6744C83.342 71.5264 81.9776 72.6851 80.0333 73.2303Z" fill="black" stroke="black" stroke-width="0.696196" stroke-miterlimit="10"/>
<path d="M89.4127 83.7949C87.5025 84.3402 85.7288 83.9994 85.49 83.1133C85.2512 82.2273 86.6156 81.0686 88.5258 80.5574C90.436 80.0121 92.2097 80.3529 92.4484 81.239C92.6872 82.125 91.3569 83.2837 89.4127 83.7949Z" fill="black" stroke="black" stroke-width="0.696196" stroke-miterlimit="10"/>
<path d="M50.6986 93.4732C47.2535 94.6319 43.8766 93.8822 43.1603 91.8034C42.4781 89.7246 44.6953 87.1005 48.1745 85.9418C51.6196 84.7831 54.9965 85.5328 55.7128 87.6117C56.4291 89.6905 54.1778 92.3146 50.6986 93.4732Z" fill="black" stroke="black" stroke-width="0.696196" stroke-miterlimit="10"/>
<path d="M69.117 171.719C69.117 171.719 69.117 171.685 69.1512 171.685C69.117 171.787 69.0829 171.889 69.0488 171.991C69.0829 171.855 69.117 171.787 69.117 171.719Z" stroke="black" stroke-width="0.696196" stroke-miterlimit="10"/>
<path d="M142.932 67.1302V117.635C134.779 110.683 128.776 103.936 125.57 98.7214C124.239 96.5744 123.421 94.7001 123.08 93.1666V93.1325C123.045 93.0302 123.045 92.9621 123.011 92.8598V92.7917C123.011 92.7917 123.011 92.7917 123.011 92.7576V92.7235C122.807 91.4626 122.738 90.2698 122.704 89.452C122.704 89.2134 122.704 89.043 122.704 88.8726C122.704 88.6 122.704 88.4296 122.704 88.4296C122.909 85.0898 124.035 81.9546 125.877 78.9215C128.674 74.7298 131.709 70.9811 135.939 68.4934C136.075 68.4252 136.212 68.3571 136.348 68.2548C136.314 68.2548 136.314 68.2548 136.28 68.2548H136.246C132.323 69.3113 128.264 70.2655 124 71.4583C118.236 72.651 112.471 73.8438 106.707 73.6052C105.752 73.6052 104.558 73.1281 104.046 72.1739C103.807 71.2197 104.285 70.504 104.762 69.7884C108.856 65.2218 113.426 62.1206 118.713 58.9854C119.43 58.5082 119.907 58.0311 120.624 57.554C121.033 57.3496 121.442 57.1451 121.886 56.9406C121.886 56.9747 121.92 56.9406 122.124 56.8384C122.09 56.8384 122.09 56.8384 122.056 56.8384C122.022 56.8384 122.022 56.8384 121.988 56.8725C121.954 56.8725 121.954 56.8725 121.92 56.8725C103.671 59.258 85.7291 63.586 68.5036 70.0269C60.0784 73.1622 52.1649 76.7405 45.2065 82.4998C41.5908 85.7033 37.1566 89.7246 36.8837 94.7342C36.8837 95.0068 36.8837 95.2454 36.8837 95.518C36.9178 96.2677 37.0201 97.0516 37.2589 97.8694C37.7364 99.5393 39.169 101.005 41.1133 101.482C45.377 102.538 48.7198 103.118 56.9744 101.72C56.9744 101.72 56.9744 101.72 57.0085 101.72H57.0426C57.1791 101.686 57.452 101.652 57.8272 101.584C57.8613 101.584 57.9636 101.55 57.9977 101.55C58.0318 101.55 58.1001 101.516 58.1342 101.516C58.2365 101.482 58.3388 101.482 58.4753 101.482C58.5094 101.482 58.5094 101.482 58.5435 101.448C58.6117 101.414 58.6799 101.414 58.7481 101.414H58.7823C58.8846 101.38 58.9869 101.38 59.0892 101.38C59.2939 101.346 59.5327 101.311 59.7714 101.243C59.8397 101.243 59.9079 101.209 59.9761 101.209C60.3513 101.141 60.7606 101.073 61.17 101.005C62.1591 100.834 63.2848 100.63 64.4786 100.391C64.5468 100.357 64.6151 100.357 64.6833 100.357C65.7748 100.153 66.9687 99.9142 68.1966 99.6756C68.333 99.6416 68.5036 99.6416 68.64 99.5734C68.6741 99.5734 68.6741 99.5734 68.7424 99.5393C70.9595 99.0963 73.3131 98.6192 75.6326 98.0398C75.7008 98.0398 75.769 98.0058 75.8372 97.9717C75.9737 97.9376 76.076 97.9035 76.2124 97.8694C76.69 97.7331 77.1675 97.665 77.6792 97.5287C78.0544 97.4605 78.3614 97.3583 78.7366 97.2901C78.873 97.256 79.0095 97.2219 79.1459 97.1879C79.3506 97.1538 79.5211 97.0856 79.7258 97.0516C79.7599 97.0175 79.8622 97.0175 79.8963 97.0175C80.1351 96.9493 80.408 96.8812 80.6467 96.813C80.8514 96.7789 81.0902 96.6767 81.2948 96.6426C81.4654 96.6085 81.6359 96.5404 81.8065 96.5063C81.977 96.4722 82.1476 96.4041 82.284 96.37C83.2732 96.0973 84.1942 95.8247 85.081 95.5862C85.081 95.8929 85.0469 96.4722 84.9446 97.1538C84.774 98.6533 84.4671 100.051 84.0577 101.38C83.9895 101.652 83.8872 101.925 83.7849 102.197C83.512 102.913 83.2391 103.629 82.9321 104.31C82.9321 104.31 82.9321 104.344 82.898 104.344C82.898 104.344 82.898 104.344 82.898 104.379C82.2499 105.776 81.4995 107.071 80.715 108.264C80.6467 108.4 80.5444 108.502 80.4762 108.604C80.408 108.707 80.3398 108.809 80.2715 108.911C80.0669 109.218 79.8281 109.524 79.6234 109.797C79.6234 109.797 79.6234 109.797 79.5893 109.831C79.2823 110.24 78.9753 110.649 78.6684 111.024C78.4637 111.262 78.259 111.535 78.0544 111.774C78.0203 111.808 77.9862 111.842 77.952 111.91C77.9179 111.944 77.8497 112.012 77.8156 112.046C77.7815 112.08 77.7474 112.114 77.7133 112.183C77.6792 112.217 77.611 112.285 77.5768 112.319L77.5427 112.353C77.5086 112.387 77.4745 112.421 77.4404 112.455C77.4063 112.489 77.3722 112.557 77.304 112.592C77.2357 112.66 77.1675 112.728 77.0993 112.796C77.0311 112.864 76.9629 112.932 76.8946 113.001C76.8946 113.001 76.8605 113.001 76.8605 113.035C76.5194 113.375 76.2124 113.716 75.9055 114.023C75.8031 114.125 75.7349 114.193 75.6326 114.296C75.4279 114.5 75.2233 114.704 75.0186 114.875C74.9504 114.943 74.9163 114.977 74.848 115.011C74.7798 115.079 74.7116 115.147 74.6434 115.216C74.6093 115.25 74.5752 115.284 74.507 115.318C74.507 115.318 74.4728 115.318 74.4728 115.352C74.4387 115.386 74.3705 115.454 74.3364 115.488C74.3023 115.522 74.2341 115.591 74.2 115.625L74.1658 115.659C74.1317 115.693 74.0976 115.727 74.0635 115.727C74.0294 115.761 74.0294 115.761 73.9953 115.795C73.9612 115.829 73.893 115.863 73.8589 115.897C73.8247 115.931 73.8247 115.931 73.7906 115.965C73.7565 115.999 73.7224 116.034 73.6883 116.034C73.6883 116.034 73.6542 116.034 73.6542 116.068C73.6201 116.102 73.6201 116.102 73.586 116.136C73.5178 116.17 73.4836 116.238 73.4154 116.272C73.3813 116.306 73.3472 116.34 73.3131 116.374C71.9828 117.567 70.8572 118.385 68.7424 119.987C65.3996 122.509 62.5002 124.383 60.4878 125.644C60.4878 125.644 60.4878 125.644 60.4536 125.644C60.4536 125.61 60.4195 125.61 60.4195 125.61C60.3513 125.473 51.4827 108.025 45.8887 107.786C45.7864 107.786 45.7181 107.786 45.6158 107.786C45.5817 107.786 45.5476 107.786 45.5135 107.786C45.377 107.786 45.2747 107.821 45.1383 107.855C43.0917 108.4 41.9319 111.569 40.1241 116.613C38.8279 120.225 38.862 121.963 36.986 123.497C35.1441 124.996 32.7564 125.167 31.2555 125.269C31.2214 125.269 31.1532 125.269 31.1191 125.269C31.0509 125.269 31.0168 125.269 30.9485 125.269C30.8462 125.269 30.7098 125.269 30.6074 125.303C30.2663 125.337 29.8911 125.337 29.5159 125.337C29.4136 125.337 29.3113 125.337 29.2089 125.337C29.1407 125.337 29.0725 125.337 29.0384 125.337C28.9702 125.337 28.9019 125.337 28.8678 125.337C28.7996 125.337 28.7314 125.337 28.6973 125.303C28.5608 125.303 28.4585 125.269 28.3221 125.269C27.6058 125.167 26.8212 124.962 26.0708 124.587C24.3312 123.769 23.2397 122.44 22.5575 121.418C22.3187 121.077 22.1482 120.736 21.9776 120.498C20.5791 118.181 15.258 110.172 12.4268 109.933C12.3586 109.933 12.2904 109.933 12.2563 109.933H12.2222C12.1881 109.933 12.1881 109.933 12.154 109.933C5.84361 110.717 7.89021 168.208 7.54911 170.662C7.54911 170.73 7.44678 171.276 7.48089 171.991C7.48089 172.059 7.48089 172.128 7.48089 172.196V172.23C7.48089 172.366 7.515 172.434 7.515 172.571C7.41267 172.536 7.31034 172.502 7.24212 172.468C6.32115 171.991 4.30867 170.798 2.80783 168.379C1.23877 165.925 1.06822 163.574 1 162.551V67.1302C1 66.8235 1.03411 66.4486 1.03411 66.1419C1.03411 65.8352 1.06822 65.4604 1.06822 65.1877C1.10233 64.2335 1.30699 62.6659 2.09152 60.9279C2.94427 59.0876 4.10401 57.8607 4.82031 57.1792L62.8755 4.3227C67.7191 -0.107566 75.7008 -0.107566 80.5444 4.3227L138.668 57.2132C139.316 57.8267 140.135 58.7127 140.885 59.9396C141.601 61.1323 142.011 62.2229 142.249 63.0748C142.42 63.6542 142.59 64.3017 142.727 65.0514C142.863 65.8011 142.932 66.5168 142.932 67.1302Z" fill="#033249" stroke="black" stroke-width="0.696196" stroke-miterlimit="10"/>
<path d="M73.5507 164.528C73.5507 164.528 73.5166 164.46 73.5166 164.358C73.5166 164.289 73.4825 164.255 73.4825 164.221C73.3802 163.949 73.312 163.71 73.2096 163.437L73.1755 163.369V163.335V163.267L67.6838 145.41C65.5349 138.935 63.0108 131.812 60.4184 125.746C60.4184 125.746 60.4184 125.746 60.4525 125.712C60.4525 125.712 60.4525 125.712 60.4866 125.712C60.4184 125.576 51.7886 108.638 46.1946 107.889C46.0922 107.889 46.024 107.855 45.9217 107.855C45.8193 107.855 45.7511 107.855 45.6488 107.855C45.6147 107.855 45.5806 107.855 45.5465 107.855C45.4441 107.855 45.3077 107.889 45.2054 107.923C43.1588 108.468 41.999 111.637 40.1912 116.681C38.895 120.293 38.9291 122.031 37.0531 123.565C35.2112 125.064 32.8235 125.235 31.3226 125.337C31.2544 125.337 31.2203 125.337 31.1521 125.337C31.0838 125.337 31.0497 125.337 30.9815 125.337C30.8792 125.337 30.7427 125.337 30.6404 125.371C30.2993 125.405 29.9241 125.405 29.5489 125.405C29.4466 125.405 29.3442 125.405 29.2419 125.405C29.1737 125.405 29.1055 125.405 29.0714 125.405C29.0031 125.405 28.9349 125.405 28.9008 125.405C28.8326 125.405 28.7644 125.405 28.7303 125.371C28.5938 125.371 28.4915 125.337 28.3551 125.337C28.1845 125.303 27.9798 125.269 27.8093 125.235C27.2635 125.099 26.6837 124.928 26.1379 124.656C24.3642 123.838 23.3068 122.474 22.5905 121.452C22.3517 121.111 22.1811 120.805 22.0447 120.566C20.6121 118.249 15.2909 110.206 12.4598 110.002C12.3916 110.002 12.3234 110.002 12.2893 110.002H12.2552H12.221C5.9107 110.785 7.9573 168.277 7.6162 170.73C7.6162 170.798 7.51387 171.344 7.54798 172.059C7.54798 172.128 7.54798 172.196 7.54798 172.264V172.298C7.54798 172.434 7.58209 172.502 7.58209 172.639C7.88908 172.775 8.2984 172.877 8.74183 173.014C9.56046 173.286 9.96978 173.388 10.4132 173.491C10.7884 173.559 11.3001 173.627 12.3234 173.729C12.835 173.763 13.2443 173.831 13.5172 173.866H51.618C51.6522 173.9 51.7545 173.934 51.8227 174.002C53.6646 175.195 58.9858 178.603 66.5582 179.659C68.2637 179.898 70.5491 180.102 73.2779 179.932C72.8344 179.829 72.391 179.693 71.9817 179.455C71.9135 179.42 71.8111 179.352 71.7429 179.318C71.7088 179.284 71.6747 179.284 71.6406 179.25C71.6065 179.216 71.5041 179.182 71.47 179.114C70.6855 178.603 70.1056 177.989 69.6963 177.376C69.6622 177.342 69.6281 177.273 69.594 177.239C69.5258 177.103 69.4576 177.035 69.3893 176.899C69.3552 176.865 69.3552 176.796 69.3211 176.728C69.287 176.694 69.287 176.626 69.2529 176.592C69.2188 176.456 69.1506 176.353 69.1165 176.217V176.183C69.0823 176.081 69.0482 175.978 69.0141 175.876C68.98 175.842 68.98 175.74 68.98 175.706C68.9459 175.672 68.9459 175.57 68.9459 175.535C68.9459 175.501 68.9118 175.433 68.9118 175.399C68.8777 175.331 68.8777 175.263 68.8777 175.195C68.8436 175.058 68.8436 174.956 68.8436 174.854C68.8095 174.615 68.8095 174.411 68.8095 174.24V173.968C68.8095 173.866 68.8095 173.763 68.8436 173.695C68.8777 173.252 68.98 172.809 69.1165 172.366C69.1506 172.298 69.1506 172.23 69.1847 172.128C69.2188 172.059 69.2188 171.991 69.2529 171.923C69.3211 171.685 69.4234 171.48 69.4917 171.241C69.5258 171.173 69.5599 171.105 69.594 171.037C69.594 171.037 69.594 171.003 69.6281 171.003C69.6622 170.969 69.6622 170.901 69.6963 170.867C70.1397 169.912 70.7196 168.992 71.2995 168.174C71.4018 168.038 71.5041 167.902 71.5724 167.8C71.6747 167.663 71.777 167.561 71.8452 167.425C71.9476 167.288 72.0499 167.152 72.1522 167.016C72.1522 167.016 72.1522 167.016 72.1863 166.982C72.2546 166.879 72.3569 166.777 72.4251 166.675C72.4933 166.573 72.5957 166.505 72.6639 166.402C72.698 166.334 72.7662 166.3 72.8003 166.232C72.8685 166.164 72.9027 166.096 72.9709 166.061C73.0391 165.993 73.1073 165.925 73.1414 165.891C73.1414 165.891 73.1414 165.891 73.1755 165.857C73.2096 165.823 73.3461 165.687 73.5507 165.482C73.619 165.346 73.7213 165.21 73.7895 165.039C73.5849 164.732 73.5507 164.596 73.5507 164.528ZM45.8876 139.207C48.4117 139.207 50.4583 141.252 50.4583 143.774C50.4583 146.296 48.4117 148.34 45.8876 148.34C43.3634 148.34 41.3168 146.296 41.3168 143.774C41.3168 141.252 43.3634 139.207 45.8876 139.207ZM37.2577 152.907C39.9183 151.714 43.7386 152.43 44.7278 153.35C45.717 154.27 42.306 157.235 42.306 157.235C42.306 157.235 34.5972 154.1 37.2577 152.907ZM28.8326 140.4C31.3567 140.4 33.4033 142.445 33.4033 144.967C33.4033 147.488 31.3567 149.533 28.8326 149.533C26.3085 149.533 24.2619 147.488 24.2619 144.967C24.2619 142.445 26.3085 140.4 28.8326 140.4ZM75.9725 179.829C75.4609 179.898 74.881 180 74.1306 179.966C73.7213 179.966 73.3802 179.932 73.1073 179.898C73.6872 179.966 74.4717 180 75.3245 179.898C75.9043 179.829 76.3819 179.727 76.8253 179.625C77.1664 179.557 77.4734 179.489 77.8145 179.42C77.0982 179.625 76.4501 179.727 75.9725 179.829Z" fill="#F4B537" stroke="black" stroke-width="0.696196" stroke-miterlimit="10"/>
<path d="M42.3761 157.303C42.3761 157.303 34.7014 154.168 37.3279 152.975C39.9884 151.782 43.8088 152.498 44.7979 153.418C45.7871 154.338 42.3761 157.303 42.3761 157.303Z" fill="black" stroke="black" stroke-width="0.696196" stroke-miterlimit="10"/>
<path d="M45.9574 139.309C43.4333 139.309 41.3867 141.354 41.3867 143.876C41.3867 146.398 43.4333 148.442 45.9574 148.442C48.4816 148.442 50.5282 146.398 50.5282 143.876C50.5282 141.354 48.4816 139.309 45.9574 139.309ZM46.8102 145.546C45.3094 145.546 44.0473 144.285 44.0473 142.785C44.0473 141.286 45.3094 140.025 46.8102 140.025C48.311 140.025 49.5731 141.286 49.5731 142.785C49.5731 144.285 48.311 145.546 46.8102 145.546Z" stroke="black" stroke-width="0.696196" stroke-miterlimit="10"/>
<path d="M46.8108 145.546C48.3367 145.546 49.5737 144.31 49.5737 142.785C49.5737 141.261 48.3367 140.025 46.8108 140.025C45.2848 140.025 44.0479 141.261 44.0479 142.785C44.0479 144.31 45.2848 145.546 46.8108 145.546Z" fill="black" stroke="black" stroke-width="0.696196" stroke-miterlimit="10"/>
<path d="M28.9018 140.502C26.3777 140.502 24.3311 142.547 24.3311 145.069C24.3311 147.591 26.3777 149.635 28.9018 149.635C31.4259 149.635 33.4725 147.591 33.4725 145.069C33.4725 142.547 31.4259 140.502 28.9018 140.502ZM29.8569 146.5C28.3901 146.5 27.1963 145.307 27.1963 143.842C27.1963 142.377 28.3901 141.184 29.8569 141.184C31.3236 141.184 32.5174 142.377 32.5174 143.842C32.5174 145.341 31.3236 146.5 29.8569 146.5Z" stroke="black" stroke-width="0.696196" stroke-miterlimit="10"/>
<path d="M29.8569 146.534C31.3263 146.534 32.5174 145.344 32.5174 143.876C32.5174 142.408 31.3263 141.218 29.8569 141.218C28.3875 141.218 27.1963 142.408 27.1963 143.876C27.1963 145.344 28.3875 146.534 29.8569 146.534Z" fill="black" stroke="black" stroke-width="0.696196" stroke-miterlimit="10"/>
<path d="M22.4887 154.986H15.5303" stroke="black" stroke-width="0.696196" stroke-miterlimit="10"/>
<path d="M22.2494 157.882L16.2461 159.314" stroke="black" stroke-width="0.696196" stroke-miterlimit="10"/>
<path d="M54.4834 153.35L59.2929 151.919" stroke="black" stroke-width="0.696196" stroke-miterlimit="10"/>
<path d="M55.4385 156.485L60.0092 157.201" stroke="black" stroke-width="0.696196" stroke-miterlimit="10"/>
<path d="M36.2344 160.166C40.9415 162.824 42.1013 157.508 42.1013 157.508C42.1013 157.508 43.0905 161.836 47.0131 160.166" stroke="black" stroke-width="0.696196" stroke-miterlimit="10"/>
<path d="M61.1687 101.141C60.7935 101.789 58.6445 104.685 58.6445 106.832C58.6445 108.979 59.3608 111.058 61.1687 110.615C62.9765 110.172 64.8867 110.649 68.2635 105.367C71.6404 100.085 77.2345 97.8013 77.2345 97.8013L61.1687 101.141Z" fill="#F4B537" stroke="black" stroke-width="0.696196" stroke-miterlimit="10"/>
</svg>
