<svg width="245" height="176" viewBox="0 0 245 176" fill="none" xmlns="http://www.w3.org/2000/svg">
<path d="M72.6938 79.1976C72.6938 79.1976 11.8543 159.029 33.6927 156.233C55.531 153.438 74.7557 115.343 95.0549 117.744C115.354 120.144 75.0171 80.6096 75.0171 80.6096" fill="#C1C1C1"/>
<path d="M72.6938 79.1976C72.6938 79.1976 11.8543 159.029 33.6927 156.233C55.531 153.438 74.7557 115.343 95.0549 117.744C115.354 120.144 75.0171 80.6096 75.0171 80.6096" stroke="black" stroke-width="2" stroke-miterlimit="10"/>
<path d="M134.985 15.0389C110.475 14.6717 97.9589 15.8013 97.5232 18.4275C96.9715 21.5056 112.711 26.5886 144.772 33.6765C117.358 33.14 110.446 36.4439 109.343 39.6067C105.771 49.8292 154.675 82.3604 201.255 72.6744C222.048 68.3539 235.726 57.5384 242.318 51.467C238.834 66.3772 234.448 89.2789 233.084 117.631C231.486 150.134 234.768 171.115 226.927 173.177C215.659 176.114 202.824 127.119 164.229 120.85C162.109 120.511 139.893 117.151 123.718 128.22C119.971 130.762 114.105 134.772 111.085 141.662C109.662 144.938 105.277 154.313 104.057 162.192C103.941 162.982 103.622 165.27 102.199 167.783C101.705 168.658 100.108 171.398 97.2909 172.979C97.2909 172.979 92.9349 175.436 87.5043 173.854C75.6849 170.409 79.2859 129.35 73.7973 87.8387C73.3907 84.7607 70.5448 63.6662 70.5448 63.6662C70.0801 60.1928 68.7443 55.0534 64.5915 50.4504C58.5221 43.7013 51.7847 43.9837 38.1067 38.5901C20.6825 31.5868 1.57398 19.19 3.08408 9.50403C3.11312 9.24988 3.14216 8.99573 3.25832 8.65687C5.87195 1.34299 31.6017 1.08884 43.1017 1.00412C64.3882 0.891168 96.3036 3.03732 134.985 15.0389Z" fill="white" stroke="black" stroke-width="2" stroke-miterlimit="10"/>
<path d="M22.5119 13.9093C28.5424 13.9093 33.4311 11.5451 33.4311 8.62862C33.4311 5.71218 28.5424 3.34795 22.5119 3.34795C16.4814 3.34795 11.5928 5.71218 11.5928 8.62862C11.5928 11.5451 16.4814 13.9093 22.5119 13.9093Z" fill="black" stroke="black" stroke-width="2" stroke-miterlimit="10"/>
<path d="M73.449 10.4359C76.5765 10.4359 79.1119 9.71526 79.1119 8.82629C79.1119 7.93733 76.5765 7.21667 73.449 7.21667C70.3215 7.21667 67.7861 7.93733 67.7861 8.82629C67.7861 9.71526 70.3215 10.4359 73.449 10.4359Z" fill="black" stroke="black" stroke-width="2" stroke-miterlimit="10"/>
<path d="M73.4497 23.6235C76.9621 23.6235 79.8095 22.2327 79.8095 20.5172C79.8095 18.8016 76.9621 17.4109 73.4497 17.4109C69.9372 17.4109 67.0898 18.8016 67.0898 20.5172C67.0898 22.2327 69.9372 23.6235 73.4497 23.6235Z" fill="black" stroke="black" stroke-width="2" stroke-miterlimit="10"/>
<g filter="url(#filter0_d_759_1207)">
<path d="M10.2574 38.0913C13.2314 34.7495 23.9916 34.3942 29 34.6343L15.8338 27C13.975 27.5762 9.51389 28.9302 6.53986 29.7368C2.82231 30.7451 6.53986 42.2686 10.2574 38.0913Z" fill="#F4B537"/>
<path d="M10.2574 38.0913C13.2314 34.7495 23.9916 34.3942 29 34.6343L15.8338 27C13.975 27.5762 9.51389 28.9302 6.53986 29.7368C2.82231 30.7451 6.53986 42.2686 10.2574 38.0913Z" stroke="black" stroke-width="1.5"/>
</g>
<defs>
<filter id="filter0_d_759_1207" x="0.25" y="26.1863" width="33.126" height="21.5638" filterUnits="userSpaceOnUse" color-interpolation-filters="sRGB">
<feFlood flood-opacity="0" result="BackgroundImageFix"/>
<feColorMatrix in="SourceAlpha" type="matrix" values="0 0 0 0 0 0 0 0 0 0 0 0 0 0 0 0 0 0 127 0" result="hardAlpha"/>
<feOffset dy="4"/>
<feGaussianBlur stdDeviation="2"/>
<feComposite in2="hardAlpha" operator="out"/>
<feColorMatrix type="matrix" values="0 0 0 0 0 0 0 0 0 0 0 0 0 0 0 0 0 0 0.25 0"/>
<feBlend mode="normal" in2="BackgroundImageFix" result="effect1_dropShadow_759_1207"/>
<feBlend mode="normal" in="SourceGraphic" in2="effect1_dropShadow_759_1207" result="shape"/>
</filter>
</defs>
</svg>
