<svg width="64" height="57" viewBox="0 0 64 57" fill="none" xmlns="http://www.w3.org/2000/svg">
<path d="M13.9252 51.6164C17.235 52.9213 21.1494 46.6516 25.6367 47.9565C29.4557 49.0704 29.2329 54.3853 32.7018 54.9582C35.3751 55.3719 38.3348 52.6349 39.6714 50.4389C43.3313 44.4556 41.2308 32.5846 31.8426 29.5612C23.6636 26.9196 15.1664 32.6483 12.3658 38.7906C10.1381 43.7236 10.9337 50.4389 13.9252 51.6164Z" fill="white" stroke="black" stroke-width="3" stroke-miterlimit="10"/>
<path d="M10.7594 28.6458C13.6277 27.5845 14.7071 23.3565 13.1701 19.2022C11.6332 15.0478 8.06198 12.5404 5.19362 13.6017C2.32526 14.6629 1.24594 18.891 2.78288 23.0453C4.31982 27.1996 7.89103 29.707 10.7594 28.6458Z" fill="white" stroke="black" stroke-width="3.0001" stroke-miterlimit="10.0003"/>
<path d="M25.0322 18.3585C27.8093 18.3585 30.0605 14.6965 30.0605 10.1792C30.0605 5.66197 27.8093 2 25.0322 2C22.2552 2 20.0039 5.66197 20.0039 10.1792C20.0039 14.6965 22.2552 18.3585 25.0322 18.3585Z" fill="white" stroke="black" stroke-width="3" stroke-miterlimit="10"/>
<path d="M49.682 17.03C52.3962 12.8827 52.4982 8.14742 49.91 6.4534C47.3217 4.75938 43.0232 6.74812 40.309 10.8954C37.5948 15.0426 37.4927 19.7779 40.081 21.472C42.6693 23.166 46.9678 21.1772 49.682 17.03Z" fill="white" stroke="black" stroke-width="2.9999" stroke-miterlimit="9.9997"/>
<path d="M56.304 39.0167C60.5543 37.0277 63.0519 33.3893 61.8824 30.89C60.7129 28.3906 56.3193 27.9768 52.069 29.9657C47.8186 31.9546 45.3211 35.5931 46.4906 38.0924C47.66 40.5918 52.0536 41.0056 56.304 39.0167Z" fill="white" stroke="black" stroke-width="2.9998" stroke-miterlimit="9.9995"/>
</svg>
