<svg width="80" height="75" viewBox="0 0 80 75" fill="none" xmlns="http://www.w3.org/2000/svg">
<path d="M65.3716 23.2254C62.8206 20.7456 56.7919 25.0218 53.1544 22.0881C50.0599 19.5881 52.3142 14.7698 49.3342 12.9041C47.027 11.4918 43.241 12.8764 41.1612 14.3875C35.4778 18.4976 32.8399 30.2608 40.3372 36.6696C46.8658 42.2598 56.9146 40.2493 61.8665 35.6611C65.8236 31.9681 67.678 25.4651 65.3716 23.2254Z" fill="white" stroke="black" stroke-width="2" stroke-miterlimit="10"/>
<path d="M59.4381 45.6412C56.3824 45.5148 53.7566 49 53.5734 53.4258C53.3902 57.8515 55.7189 61.5417 58.7746 61.6682C61.8304 61.7946 64.4561 58.3093 64.6394 53.8836C64.8226 49.4579 62.4939 45.7677 59.4381 45.6412Z" fill="white" stroke="black" stroke-width="2" stroke-miterlimit="10.0003"/>
<path d="M42.3028 49.6318C39.7403 48.5613 36.2515 51.0724 34.5102 55.2406C32.7689 59.4088 33.4346 63.6555 35.997 64.726C38.5594 65.7965 42.0483 63.2853 43.7896 59.1172C45.5309 54.949 44.8652 50.7022 42.3028 49.6318Z" fill="white" stroke="black" stroke-width="2" stroke-miterlimit="10"/>
<path d="M19.0456 41.3555C14.9425 44.136 13.023 48.466 14.7582 51.0268C16.4935 53.5876 21.2264 53.4095 25.3295 50.629C29.4326 47.8485 31.3521 43.5185 29.6168 40.9577C27.8816 38.3969 23.1487 38.575 19.0456 41.3555Z" fill="white" stroke="black" stroke-width="2" stroke-miterlimit="9.9997"/>
<path d="M21.4112 18.5156C16.7226 18.7124 13.0156 21.1069 13.1312 23.8639C13.2469 26.6209 17.1415 28.6963 21.83 28.4995C26.5185 28.3027 30.2256 25.9082 30.1099 23.1512C29.9943 20.3942 26.0997 18.3188 21.4112 18.5156Z" fill="white" stroke="black" stroke-width="2" stroke-miterlimit="9.9995"/>
</svg>
