<svg width="48" height="48" viewBox="0 0 48 48" fill="none" xmlns="http://www.w3.org/2000/svg">
<path d="M24 28C27.3137 28 30 25.3137 30 22C30 18.6863 27.3137 16 24 16C20.6863 16 18 18.6863 18 22C18 25.3137 20.6863 28 24 28Z" stroke="white" stroke-width="4" stroke-linecap="round" stroke-linejoin="round"/>
<path d="M35.314 33.3144L26.828 41.8004C26.078 42.5497 25.0612 42.9705 24.001 42.9705C22.9408 42.9705 21.924 42.5497 21.174 41.8004L12.686 33.3144C10.4484 31.0767 8.92468 28.2258 8.30738 25.1221C7.69009 22.0184 8.00699 18.8014 9.21801 15.8779C10.429 12.9543 12.4798 10.4555 15.111 8.69741C17.7421 6.93934 20.8355 6.00098 24 6.00098C27.1645 6.00098 30.2579 6.93934 32.889 8.69741C35.5202 10.4555 37.571 12.9543 38.782 15.8779C39.993 18.8014 40.3099 22.0184 39.6926 25.1221C39.0753 28.2258 37.5516 31.0767 35.314 33.3144V33.3144Z" stroke="white" stroke-width="4" stroke-linecap="round" stroke-linejoin="round"/>
</svg>
